<?xml version="1.0" standalone="no"?>
<!DOCTYPE svg PUBLIC "-//W3C//DTD SVG 1.1//EN" "http://www.w3.org/Graphics/SVG/1.1/DTD/svg11.dtd" >
<svg xmlns="http://www.w3.org/2000/svg" xmlns:xlink="http://www.w3.org/1999/xlink" version="1.1">
<metadata>
Created by FontForge 20170731 at Sat May 25 04:07:06 2019
 By Aleksey,,,
Copyright (c) 2018 by Ivy Foundry. All rights reserved. |DCNT
</metadata>
<defs>
<font id="IvyMode-Regular" horiz-adv-x="0" >
  <font-face 
    font-family="Ivy Mode"
    font-weight="400"
    font-stretch="normal"
    units-per-em="1000"
    panose-1="2 11 4 4 2 1 1 1 1 2"
    ascent="810"
    descent="-190"
    x-height="531"
    cap-height="728"
    bbox="-390 -276 1664 1040"
    underline-thickness="50"
    underline-position="-250"
    unicode-range="U+000D-FEFF"
  />
<missing-glyph horiz-adv-x="832" 
d="M100 728h632v-760h-632v760zM710 708h-588v-720h588v720z" />
    <glyph glyph-name="f_f" unicode="ff" horiz-adv-x="671" 
d="M511 630v-99h167l-13 -22h-154v-509h-95v509h-225v-509h-95v509h-77v22h77v88q0 90 45.5 139.5t126.5 49.5q76 0 151 -42l-7 -13q-50 21 -101 21q-120 0 -120 -150v-93h225v94q0 90 45 139.5t126 49.5q82 0 158 -46l-7 -12q-54 24 -107 24q-120 0 -120 -150z" />
    <glyph glyph-name="f_f_i" unicode="ffi" horiz-adv-x="900" 
d="M798 531l37 11h4v-542h-94v509h-234v-509h-95v509h-225v-509h-95v509h-77v22h77v88q0 90 45.5 139.5t126.5 49.5q76 0 151 -42l-7 -13q-50 21 -101 21q-120 0 -120 -150v-93h225v94q0 90 45.5 139.5t124.5 49.5q56 0 117 -30l-4 -13q-35 9 -68 9q-120 0 -120 -150v-99
h287zM860 694l-68 -68l-68 68l68 68z" />
    <glyph glyph-name="f_i" unicode="fi" horiz-adv-x="580" 
d="M479 531l37 11h4v-542h-95v509h-234v-509h-95v509h-77v22h77v94q0 90 45.5 139.5t124.5 49.5q56 0 117 -30l-4 -13q-33 9 -68 9q-120 0 -120 -150v-99h288zM540 694l-68 -68l-68 68l68 68z" />
    <glyph glyph-name="f_l" unicode="fl" horiz-adv-x="582" 
d="M517 810h4v-810h-94v756q-60 24 -116 24q-120 0 -120 -150v-99h168l-14 -22h-154v-509h-95v509h-77v22h77v94q0 90 45.5 139.5t126.5 49.5q83 0 161 -43z" />
    <glyph glyph-name=".notdef" horiz-adv-x="832" 
d="M100 728h632v-760h-632v760zM710 708h-588v-720h588v720z" />
    <glyph glyph-name=".null" 
 />
    <glyph glyph-name="uni000D" unicode="&#xd;" horiz-adv-x="209" 
 />
    <glyph glyph-name="space" unicode=" " horiz-adv-x="209" 
 />
    <glyph glyph-name="exclam" unicode="!" horiz-adv-x="214" 
d="M99 209l-45 519h106l-45 -519h-16zM107 -21l-71 70l71 71l71 -71z" />
    <glyph glyph-name="quotedbl" unicode="&#x22;" horiz-adv-x="291" 
d="M70 452l-37 288h84l-37 -288h-10zM210 452l-37 288h84l-37 -288h-10z" />
    <glyph glyph-name="numbersign" unicode="#" horiz-adv-x="532" 
d="M506 481h-107l-32 -234h100v-18h-103l-31 -229h-20l31 229h-195l-31 -229h-20l31 229h-104v18h107l32 234h-100v18h103l31 229h20l-31 -229h195l31 229h20l-31 -229h104v-18zM347 247l32 234h-195l-32 -234h195z" />
    <glyph glyph-name="dollar" unicode="$" horiz-adv-x="538" 
d="M509 196q0 -94 -70 -151t-176 -57h-17l-8 -89h-20l8 91q-114 8 -196 60l17 60q29 -39 78 -67t103 -36l29 322l-29 13q-48 22 -94 49q-91 59 -91 157q0 83 64.5 137.5t166.5 54.5q16 0 21 -1l8 90h20l-8 -91q93 -10 162 -51l-14 -52q-69 67 -150 84l-27 -292l35 -16
q66 -31 99 -53q89 -56 89 -162zM267 436l26 286q-24 2 -27 2q-67 0 -107.5 -37.5t-40.5 -94.5q3 -58 37 -89t112 -67zM435 150q-3 63 -40 97.5t-117 72.5l-2 1l-28 -316q4 -1 19 -1q73 0 120.5 41.5t47.5 104.5z" />
    <glyph glyph-name="percent" unicode="%" horiz-adv-x="763" 
d="M26 554q0 82 45.5 131t120.5 49q73 0 118.5 -48t45.5 -126q0 -82 -45.5 -131t-119.5 -49t-119.5 47.5t-45.5 126.5zM150 0l440 728h23l-440 -728h-23zM294 555q0 77 -28 122t-76 45t-75 -43.5t-27 -119.5q0 -77 28 -122t77 -45q48 0 74.5 43.5t26.5 119.5zM407 168
q0 82 45.5 131t119.5 49q73 0 118.5 -47.5t45.5 -126.5q0 -82 -45.5 -131t-120.5 -49q-72 0 -117.5 48t-45.5 126zM674 169q0 77 -27.5 122t-76.5 45q-48 0 -75 -44t-27 -119q0 -77 28 -122t76 -45t75 43.5t27 119.5z" />
    <glyph glyph-name="ampersand" unicode="&#x26;" horiz-adv-x="692" 
d="M591 164l84 -71v-115h-4l-131 111q-93 -101 -258 -101q-108 0 -178 53t-70 141q0 132 163 200q-87 89 -87 178q0 77 55.5 128.5t135.5 51.5q76 0 131 -45.5t55 -112.5q0 -65 -46 -105q-45 -39 -111 -59l-11 10q102 46 102 147q0 67 -35 109t-90 42q-56 0 -88 -39
q-31 -38 -31 -89q0 -50 31 -93t93 -95l279 -236q29 66 29 147q0 59 -33 122l49 19h4v-121q0 -99 -38 -177zM528 99l-265 224q-29 24 -56 49q-86 -53 -86 -162q0 -86 55 -140.5t140 -54.5q129 0 212 84z" />
    <glyph glyph-name="quotesingle" unicode="'" horiz-adv-x="151" 
d="M70 452l-37 288h84l-37 -288h-10z" />
    <glyph glyph-name="parenleft" unicode="(" horiz-adv-x="223" 
d="M36 304q0 280 156 478l13 -9q-125 -165 -125 -463q0 -302 125 -467l-13 -9q-156 198 -156 470z" />
    <glyph glyph-name="parenright" unicode=")" horiz-adv-x="222" 
d="M31 -166l-13 9q125 165 125 463q0 302 -125 467l13 9q156 -198 156 -470q0 -280 -156 -478z" />
    <glyph glyph-name="asterisk" unicode="*" horiz-adv-x="439" 
d="M403 619l-177 -75l177 -75l-27 -46l-153 116l24 -191h-54l24 191l-153 -116l-27 46l177 75l-177 75l27 46l153 -116l-24 191h54l-24 -191l153 116z" />
    <glyph glyph-name="plus" unicode="+" horiz-adv-x="508" 
d="M458 374v-20h-193v-200h-22v200h-193v20h193v200h22v-200h193z" />
    <glyph glyph-name="comma" unicode="," horiz-adv-x="194" 
d="M46 -143l-5 7q59 36 59 90q0 57 -72 102l52 65q40 -16 63 -46.5t23 -68.5q0 -44 -33 -83.5t-87 -65.5z" />
    <glyph glyph-name="hyphen" unicode="-" horiz-adv-x="302" 
d="M44 264v33h215v-33h-215z" />
    <glyph glyph-name="period" unicode="." horiz-adv-x="186" 
d="M93 -21l-71 70l71 71l71 -71z" />
    <glyph glyph-name="slash" unicode="/" horiz-adv-x="362" 
d="M22 -64l292 846h25l-292 -846h-25z" />
    <glyph glyph-name="zero" unicode="0" horiz-adv-x="663" 
d="M44 358q0 175 78 278.5t210 103.5q128 0 207.5 -99t79.5 -271q0 -175 -78.5 -278.5t-210.5 -103.5q-128 0 -207 99t-79 271zM515 360q0 167 -49 266q-48 100 -137 100t-135 -97q-46 -96 -46 -260q0 -167 48 -267q49 -100 138 -100t135 97q46 96 46 261z" />
    <glyph glyph-name="one" unicode="1" horiz-adv-x="295" 
d="M217 740h4v-740h-92v618q-47 -29 -116 -48v12q52 19 109 63q58 43 95 95z" />
    <glyph glyph-name="two" unicode="2" horiz-adv-x="526" 
d="M495 89l-26 -89h-448v4l58 60q151 158 222 267q70 109 70 200q0 74 -40.5 117t-107.5 43q-117 0 -187 -122l-13 6q83 165 242 165q92 0 151.5 -52.5t59.5 -142.5q0 -63 -37 -128q-35 -63 -111.5 -142.5t-216.5 -199.5l-7 -6h73q104 0 169 4q59 4 149 16z" />
    <glyph glyph-name="three" unicode="3" horiz-adv-x="517" 
d="M26 33l15 56q40 -45 80 -65t91 -20q74 0 124 49.5t50 130.5q0 72 -49 121q-47 50 -129 61l-38 4l-4 11l35 11q66 21 108.5 68.5t42.5 109.5q0 57 -36 90.5t-94 33.5q-55 0 -100.5 -26.5t-72.5 -64.5l-13 6q89 131 228 131q79 0 132 -41t53 -108q0 -59 -46 -108
q-45 -48 -107 -69v-2q76 -14 128 -68.5t52 -129.5q0 -100 -74.5 -163t-189.5 -63q-88 0 -186 45z" />
    <glyph glyph-name="four" unicode="4" horiz-adv-x="544" 
d="M525 260l-17 -62h-92v-198h-92v198h-310l-12 31l394 504h20v-473h109zM52 260h272v352z" />
    <glyph glyph-name="five" unicode="5" horiz-adv-x="496" 
d="M462 224q0 -103 -74.5 -169.5t-184.5 -66.5q-95 0 -181 45l14 48q70 -77 164 -77q77 0 128 52t51 132q0 92 -71 144.5t-207 52.5h-34l30 343h352l-24 -71h-314l-16 -186h40q159 0 243 -68t84 -179z" />
    <glyph glyph-name="six" unicode="6" horiz-adv-x="562" 
d="M41 278q-2 161 104 291t270 171l5 -15q-134 -44 -204 -163q-71 -121 -71 -287q0 -129 41.5 -201t114.5 -72q63 0 99.5 54.5t36.5 148.5q0 95 -37.5 148.5t-103.5 53.5q-55 0 -102 -38l-10 12q64 61 151 61t146 -60.5t59 -156.5q0 -105 -70 -171t-175 -66
q-114 0 -184 78.5t-70 211.5z" />
    <glyph glyph-name="seven" unicode="7" horiz-adv-x="483" 
d="M23 728h455v-4l-267 -724h-90l313 657h-125q-202 0 -304 -24z" />
    <glyph glyph-name="eight" unicode="8" horiz-adv-x="563" 
d="M523 192q0 -86 -72 -145t-177 -59q-98 0 -166.5 48t-68.5 127q0 142 167 198q-135 69 -135 187q0 81 61 136.5t157 55.5q84 0 144 -45.5t60 -114.5q0 -61 -40 -106.5t-109 -73.5q179 -78 179 -208zM288 424l37 -16q95 67 95 170q0 64 -38.5 106t-98.5 42q-62 0 -99 -40
t-37 -103q0 -54 34.5 -91.5t106.5 -67.5zM447 156q0 55 -38 94.5t-114 70.5l-49 21l-24 11q-109 -67 -109 -186q0 -73 49.5 -119t119.5 -46q69 0 117 45t48 109z" />
    <glyph glyph-name="nine" unicode="9" horiz-adv-x="562" 
d="M147 -12l-5 15q134 44 204 163q71 121 71 287q0 129 -41.5 201t-114.5 72q-63 0 -99.5 -54.5t-36.5 -148.5q0 -95 37.5 -148.5t103.5 -53.5q55 0 102 38l10 -12q-64 -61 -148 -61q-87 0 -147.5 60.5t-60.5 156.5q0 105 70 171t175 66q114 0 184 -78.5t70 -211.5
q2 -161 -104 -291.5t-270 -170.5z" />
    <glyph glyph-name="colon" unicode=":" horiz-adv-x="229" 
d="M115 -21l-71 70l71 71l71 -71zM115 372l-71 70l71 71l71 -71z" />
    <glyph glyph-name="semicolon" unicode=";" horiz-adv-x="238" 
d="M66 -143l-5 7q59 36 59 90q0 57 -72 102l52 65q40 -16 63 -46.5t23 -68.5q0 -44 -33 -83.5t-87 -65.5zM119 372l-71 70l71 71l71 -71z" />
    <glyph glyph-name="less" unicode="&#x3c;" horiz-adv-x="508" 
d="M447 544l-379 -180l379 -180l-10 -18l-398 189v18l398 189z" />
    <glyph glyph-name="equal" unicode="=" horiz-adv-x="508" 
d="M50 426v20h408v-20h-408zM50 282v20h408v-20h-408z" />
    <glyph glyph-name="greater" unicode="&#x3e;" horiz-adv-x="508" 
d="M71 562l398 -189v-18l-398 -189l-10 18l379 180l-379 180z" />
    <glyph glyph-name="question" unicode="?" horiz-adv-x="482" 
d="M166 274q0 27 16.5 51.5t58.5 66.5q34 34 53 56q48 57 48 121q0 58 -38.5 94t-101.5 36q-95 0 -169 -84l-12 8q92 117 229 117q86 0 142 -45q56 -44 56 -117q0 -44 -22 -79q-19 -33 -47 -58.5t-83 -65.5q-55 -39 -76.5 -62t-21.5 -47q0 -43 53 -43q12 0 27 3l3 -14
q-15 -3 -31 -3q-38 0 -61 17t-23 48zM239 -21l-71 70l71 71l70 -71z" />
    <glyph glyph-name="at" unicode="@" horiz-adv-x="855" 
d="M651 527l-50 -240q-8 -45 -8 -66q0 -64 56 -64q62 0 109.5 70t47.5 167q2 138 -99.5 235t-245.5 95q-161 3 -276.5 -118.5t-112.5 -292.5q-2 -168 108 -281.5t272 -110.5q141 0 246 79l10 -12q-112 -83 -260 -83q-175 -3 -297 114t-119 289q-2 117 56.5 217.5t159 158.5
t217.5 56q158 2 268 -99t107 -246q0 -108 -57.5 -182.5t-148.5 -74.5q-92 0 -103 69q-65 -79 -143 -79q-59 0 -96.5 39t-37.5 109q0 102 66.5 178.5t163.5 76.5q73 0 114 -41l47 37h6zM529 229q0 30 8 60l35 172q-13 25 -36.5 39.5t-50.5 14.5q-67 0 -114 -70.5t-47 -161.5
q0 -62 25 -94t66 -32q65 0 114 72z" />
    <glyph glyph-name="A" unicode="A" horiz-adv-x="616" 
d="M504 0l-96 239h-284q-55 -148 -59 -239h-69q53 109 130 300l8 19l174 425h4l303 -744h-111zM131 257h270l-135 334l-113 -279z" />
    <glyph glyph-name="B" unicode="B" horiz-adv-x="639" 
d="M609 200q0 -93 -79.5 -146.5t-222.5 -53.5h-235v728h241q122 0 187 -44.5t65 -125.5q0 -66 -49 -111.5t-127 -61.5v-2q97 -6 158 -55q62 -48 62 -128zM288 712h-114v-329h129q70 0 112 46t42 118q0 74 -44 119.5t-125 45.5zM497 186q0 82 -48 131.5t-129 49.5h-146v-344
q16 -4 46 -5q44 -2 57 -2q220 0 220 170z" />
    <glyph glyph-name="C" unicode="C" horiz-adv-x="702" 
d="M38 358q-2 169 104.5 276.5t265.5 105.5q82 0 154.5 -32t118.5 -85l-50 -45q-41 68 -100.5 107t-127.5 39q-112 0 -182.5 -97t-70.5 -244q0 -161 79 -256t203 -95q159 0 247 137l12 -7q-107 -174 -304 -174q-152 0 -250.5 103t-98.5 267z" />
    <glyph glyph-name="D" unicode="D" horiz-adv-x="752" 
d="M713 372q0 -174 -108.5 -273t-294.5 -99h-238v728h255q177 0 281.5 -94t104.5 -262zM601 367q0 155 -77.5 250t-205.5 95h-144v-687q39 -9 153 -9q131 0 202.5 91.5t71.5 259.5z" />
    <glyph glyph-name="E" unicode="E" horiz-adv-x="539" 
d="M520 67h2l-19 -67h-431v728h419l12 -63h-2q-133 45 -272 45h-55v-322h46q161 0 210 20h2v-62h-2q-53 24 -210 24h-46v-352h58q153 0 288 49z" />
    <glyph glyph-name="F" unicode="F" horiz-adv-x="497" 
d="M213 710h-39v-334h36q161 0 210 20h2v-62h-2q-53 24 -210 24h-36v-358h-102v728h402l13 -63h-2q-133 45 -272 45z" />
    <glyph glyph-name="G" unicode="G" horiz-adv-x="753" 
d="M439 330h272v-251q-124 -91 -284 -91q-177 0 -283 99.5t-106 271.5q-2 168 108.5 275.5t274.5 105.5q83 0 155.5 -31.5t118.5 -85.5l-50 -45q-41 69 -101 107.5t-132 38.5q-119 0 -190.5 -97.5t-71.5 -260.5q-2 -158 77.5 -260t204.5 -100q110 0 185 60v246h-167z" />
    <glyph glyph-name="H" unicode="H" horiz-adv-x="704" 
d="M530 728h102v-728h-102v370h-356v-370h-102v728h102v-340h356v340z" />
    <glyph glyph-name="I" unicode="I" horiz-adv-x="246" 
d="M72 0v728h102v-728h-102z" />
    <glyph glyph-name="J" unicode="J" horiz-adv-x="249" 
d="M-63 -150l-7 12q66 42 97 87q31 47 42 108q10 59 10 163v508h102v-500q0 -115 -29 -187q-28 -69 -78 -110q-49 -40 -137 -81z" />
    <glyph glyph-name="K" unicode="K" horiz-adv-x="637" 
d="M72 0v728h102v-728h-102zM362 494l-72 -69l331 -318v-129h-6l-409 395l143 136q145 137 192 219h80v-2q-119 -99 -259 -232z" />
    <glyph glyph-name="L" unicode="L" horiz-adv-x="450" 
d="M437 75h2l-19 -75h-348v728h102v-710h19q115 0 244 57z" />
    <glyph glyph-name="M" unicode="M" horiz-adv-x="855" 
d="M812 0h-102l-62 665l-245 -619h-4l-271 594l-28 -321q-10 -101 -10 -193q0 -70 6 -126h-60q25 111 44 320l32 358l-22 47v3h110l241 -535l211 535h92z" />
    <glyph glyph-name="N" unicode="N" horiz-adv-x="653" 
d="M537 728h60q-20 -126 -20 -318v-422h-9l-463 641v-311q0 -201 20 -318h-60q20 126 20 318v339l-49 68v3h121l400 -564v246q0 201 -20 318z" />
    <glyph glyph-name="O" unicode="O" horiz-adv-x="831" 
d="M37 357q-2 168 109.5 276.5t275.5 106.5q161 0 266.5 -101.5t105.5 -267.5q2 -168 -109.5 -276.5t-275.5 -106.5q-161 0 -266.5 101.5t-105.5 267.5zM682 360q0 162 -75 263t-193 101q-120 0 -192.5 -98t-72.5 -258q0 -162 75.5 -263t195.5 -101q118 0 190 98t72 258z
" />
    <glyph glyph-name="P" unicode="P" horiz-adv-x="570" 
d="M543 528q0 -102 -76 -163t-206 -61q-43 0 -87 6v-310h-102v728h189q138 0 210 -51.5t72 -148.5zM435 516q0 92 -48 144t-141 52h-72v-385q29 -7 70 -7q93 0 142 51t49 145z" />
    <glyph glyph-name="Q" unicode="Q" horiz-adv-x="831" 
d="M924 -114v-4q-67 -32 -151 -32q-98 0 -195 38q-96 38 -146 101q-5 -1 -23 -1q-161 0 -266.5 101.5t-105.5 267.5q-2 168 109.5 276.5t275.5 106.5q161 0 266.5 -101.5t105.5 -267.5q0 -136 -70 -231q-69 -96 -184 -132q131 -131 293 -131q45 0 91 9zM420 4q118 0 190 98
t72 258q0 162 -75 263t-193 101q-120 0 -192.5 -98t-72.5 -258q0 -162 75.5 -263t195.5 -101z" />
    <glyph glyph-name="R" unicode="R" horiz-adv-x="616" 
d="M371 354l224 -249v-127h-6l-296 330q-12 12 -22 16.5t-30 4.5h-67v-329h-102v728h179q295 0 295 -184q0 -129 -175 -190zM443 537q0 83 -50.5 129t-145.5 46h-73v-361q31 -6 92 -6q78 0 127.5 55.5t49.5 136.5z" />
    <glyph glyph-name="S" unicode="S" horiz-adv-x="540" 
d="M33 41l18 63q36 -44 99 -72t125 -28q73 0 117 40q46 40 46 102q-3 64 -40.5 99t-119.5 74l-50 22q-56 26 -91 48q-93 60 -93 159q0 83 64 137.5t166 54.5q113 0 204 -53l-16 -56q-91 93 -199 93q-66 0 -106 -36t-40 -92q3 -58 38 -90t118 -71l50 -23q67 -33 97 -53
q90 -56 90 -161q0 -93 -69 -151.5t-175 -58.5q-63 0 -128 16q-64 16 -105 37z" />
    <glyph glyph-name="T" unicode="T" horiz-adv-x="563" 
d="M541 728l13 -71h-2q-115 53 -196 53h-23v-710h-102v710h-24q-81 0 -196 -53h-2l14 71h518z" />
    <glyph glyph-name="U" unicode="U" horiz-adv-x="659" 
d="M66 250v478h102v-476q0 -116 51 -175t148 -59q96 0 148 58.5t52 170.5v163q0 201 -20 318h60q-20 -126 -20 -318v-158q0 -264 -257 -264q-130 0 -197 67t-67 195z" />
    <glyph glyph-name="V" unicode="V" horiz-adv-x="616" 
d="M551 728h69q-53 -109 -130 -300l-8 -19l-174 -425h-4l-303 744h111l238 -591l113 279q48 116 66 185q19 67 22 127z" />
    <glyph glyph-name="W" unicode="W" horiz-adv-x="933" 
d="M871 728h62q-44 -105 -119 -319l-147 -425h-4l-196 570l-200 -570h-4l-258 744h109l194 -568l200 568h4l195 -568l88 255q62 173 76 313z" />
    <glyph glyph-name="X" unicode="X" horiz-adv-x="620" 
d="M394 464l-31 -44l232 -293v-149h-5l-294 368l-66 -92q-99 -141 -121 -254h-106q82 85 212 265l68 97l-292 366h128l231 -292l28 39q123 177 144 253h79q-97 -108 -207 -264z" />
    <glyph glyph-name="Y" unicode="Y" horiz-adv-x="591" 
d="M410 431l-61 -107v-324h-102v312l-238 416h117l214 -380l52 92q100 174 127 288h63q-92 -153 -172 -297z" />
    <glyph glyph-name="Z" unicode="Z" horiz-adv-x="547" 
d="M535 67h2l-19 -67h-513v4l404 706h-62q-210 0 -320 -45h-2l12 63h496v-4l-405 -706h79q210 0 328 49z" />
    <glyph glyph-name="bracketleft" unicode="[" horiz-adv-x="244" 
d="M248 782v-12h-156q20 -243 20 -462t-20 -462h156v-12h-180v948h180z" />
    <glyph glyph-name="backslash" unicode="\" horiz-adv-x="362" 
d="M315 -64l-292 846h25l292 -846h-25z" />
    <glyph glyph-name="bracketright" unicode="]" horiz-adv-x="244" 
d="M-4 782h180v-948h-180v12h156q-20 243 -20 462t20 462h-156v12z" />
    <glyph glyph-name="asciicircum" unicode="^" horiz-adv-x="508" 
d="M469 358l-18 -10l-197 354l-197 -354l-18 10l213 382h4z" />
    <glyph glyph-name="underscore" unicode="_" horiz-adv-x="376" 
d="M-2 -86v22h380v-22h-380z" />
    <glyph glyph-name="grave" unicode="`" horiz-adv-x="600" 
d="M319 606l-170 179h105l72 -174z" />
    <glyph glyph-name="a" unicode="a" horiz-adv-x="512" 
d="M504 24v-6q-40 -25 -83 -25q-73 0 -79 74q-83 -77 -185 -77q-63 0 -101.5 34t-38.5 89q0 68 60 111.5t166 54.5l60 6l38 3v57q0 83 -30 124t-98 41q-78 0 -150 -60l-9 11q46 43 91.5 62.5t104.5 19.5q186 0 186 -189v-256q0 -46 8 -61t41 -15q3 0 19 2zM341 86v187
q-117 -13 -173.5 -45.5t-56.5 -98.5q0 -49 27 -76t71 -27q70 0 132 60z" />
    <glyph glyph-name="b" unicode="b" horiz-adv-x="588" 
d="M558 274q1 -122 -76 -205t-182 -81q-111 0 -182 70l-56 -62h-4v784l90 30h4v-351q79 84 178 84q98 0 163 -76t65 -193zM456 265q0 116 -42.5 180.5t-113.5 64.5q-83 0 -148 -77v-328q20 -48 56.5 -74.5t82.5 -26.5q73 0 119 71.5t46 189.5z" />
    <glyph glyph-name="c" unicode="c" horiz-adv-x="511" 
d="M30 260q-2 122 75.5 203.5t186.5 79.5q131 0 201 -91l-41 -36q-69 112 -155 112q-72 0 -118 -68t-46 -178q0 -118 50.5 -184.5t131.5 -66.5q47 0 93.5 25t78.5 71l12 -7q-87 -132 -223 -132q-107 0 -176.5 76t-69.5 196z" />
    <glyph glyph-name="d" unicode="d" horiz-adv-x="589" 
d="M552 19l-89 -28l-26 82q-79 -85 -179 -85q-97 0 -162.5 76t-65.5 192q-2 122 75 205.5t183 81.5q86 0 147 -55v292l91 30h4v-719zM435 96v329q-19 46 -56 73.5t-82 27.5q-75 0 -120 -70.5t-45 -189.5q0 -117 42 -181t115 -64q80 0 146 75z" />
    <glyph glyph-name="e" unicode="e" horiz-adv-x="541" 
d="M515 303h-384v-18q0 -119 52.5 -186.5t136.5 -67.5q50 0 97.5 25t79.5 71l12 -7q-86 -132 -230 -132q-109 0 -179 74.5t-70 194.5q0 127 76 206.5t193 79.5q104 0 161 -65t55 -175zM132 319h292q4 94 -32.5 151.5t-100.5 57.5q-65 0 -108 -57.5t-51 -151.5z" />
    <glyph glyph-name="f" unicode="f" horiz-adv-x="351" 
d="M191 630v-99h168l-14 -22h-154v-509h-95v509h-77v22h77v94q0 90 45.5 139.5t126.5 49.5t157 -46l-7 -12q-54 24 -107 24q-120 0 -120 -150z" />
    <glyph glyph-name="g" unicode="g" horiz-adv-x="529" 
d="M513 -49q0 -81 -82 -136t-199 -55q-98 0 -162.5 40t-64.5 104q0 34 16 67l56 16h4q-16 -42 -16 -75q0 -63 44.5 -99.5t122.5 -36.5q99 0 159 37.5t60 99.5q0 82 -131 90l-157 10q-117 6 -117 82q0 50 71 92l20 12q-101 50 -101 159q0 80 61.5 132.5t152.5 52.5
q82 0 137 -40q51 72 134 72l-9 -80q-36 11 -58 11q-35 0 -54 -13q61 -50 61 -134q0 -80 -61.5 -132t-152.5 -52q-48 0 -93 17l-22 -15q-29 -20 -29 -45q0 -35 70 -39l165 -10q175 -11 175 -132zM126 359q0 -75 33.5 -121.5t89.5 -46.5q57 0 89.5 45.5t32.5 121.5
t-33.5 122.5t-89.5 46.5t-89 -46t-33 -122z" />
    <glyph glyph-name="h" unicode="h" horiz-adv-x="572" 
d="M517 354v-354h-94v356q0 58 -21 104q-21 47 -96 47q-80 0 -154 -71v-436h-94v780l90 30h4v-355q89 88 195 88q170 0 170 -189z" />
    <glyph glyph-name="i" unicode="i" horiz-adv-x="215" 
d="M107 626l-68 68l68 68l68 -68zM60 0v515l90 27h4v-542h-94z" />
    <glyph glyph-name="j" unicode="j" horiz-adv-x="220" 
d="M112 626l-68 68l68 68l68 -68zM-57 -228l-4 12q59 13 92.5 66t33.5 133v532l91 27h4v-552q0 -92 -63 -148q-62 -56 -154 -70z" />
    <glyph glyph-name="k" unicode="k" horiz-adv-x="513" 
d="M58 780l90 30h4v-810h-94v780zM259 345l241 -240v-127h-5l-317 322l88 76q59 51 99 89q35 33 63 66h69v-2q-114 -75 -220 -168z" />
    <glyph glyph-name="l" unicode="l" horiz-adv-x="215" 
d="M60 0v780l91 30h4v-810h-95z" />
    <glyph glyph-name="m" unicode="m" horiz-adv-x="919" 
d="M864 354v-354h-94v356q0 58 -21 104q-21 47 -96 47q-79 0 -153 -80q8 -37 8 -73v-354h-95v356q0 58 -21 104q-20 47 -95 47q-72 0 -145 -70v-437h-95v515l91 27h4v-86q46 46 89 66.5t98 20.5q120 0 156 -98q50 52 96 75t104 23q169 0 169 -189z" />
    <glyph glyph-name="n" unicode="n" horiz-adv-x="571" 
d="M517 354v-354h-95v356q0 58 -21 104q-21 47 -96 47q-80 0 -153 -71v-436h-95v515l91 27h4v-86q92 87 194 87q171 0 171 -189z" />
    <glyph glyph-name="o" unicode="o" horiz-adv-x="597" 
d="M30 262q0 125 77.5 203t195.5 78q116 0 190 -75.5t74 -199.5t-77.5 -202t-195.5 -78q-116 0 -190 75t-74 199zM465 262q0 119 -47 193t-121 74q-75 0 -120 -72t-45 -189q0 -119 47 -192.5t121 -73.5q75 0 120 71t45 189z" />
    <glyph glyph-name="p" unicode="p" horiz-adv-x="587" 
d="M557 274q1 -122 -76 -205t-182 -81q-86 0 -147 55v-271h-95v743l91 27h4v-83q80 84 177 84q98 0 163 -76t65 -193zM455 265q0 117 -42 181t-113 64q-81 0 -148 -76v-328q19 -47 55.5 -74.5t82.5 -27.5q75 0 120 71t45 190z" />
    <glyph glyph-name="q" unicode="q" horiz-adv-x="588" 
d="M525 542h5v-770h-95v299q-80 -83 -177 -83t-162.5 76t-65.5 192q-2 122 75 205.5t183 81.5q105 0 176 -61zM435 96v329q-19 46 -56 73.5t-82 27.5q-75 0 -120 -70.5t-45 -189.5q0 -117 42 -181t115 -64q80 0 146 75z" />
    <glyph glyph-name="r" unicode="r" horiz-adv-x="362" 
d="M360 535l-28 -74q-27 12 -55 12q-39 0 -72.5 -25t-52.5 -67v-381h-95v515l89 27h4v-132q28 63 70 97t93 34q23 0 47 -6z" />
    <glyph glyph-name="s" unicode="s" horiz-adv-x="437" 
d="M23 36l15 51q73 -85 184 -85q59 0 94.5 28.5t35.5 73.5q-3 43 -29.5 65t-94.5 51l-41 17q-37 15 -78 37q-76 46 -76 123q0 64 51.5 105t134.5 41q100 0 173 -42l-14 -47q-75 75 -168 75q-52 0 -82.5 -25.5t-30.5 -65.5q0 -29 18 -50q17 -19 36.5 -30t70.5 -32l40 -17
q43 -17 76 -36q78 -46 78 -127q0 -70 -55 -114t-149 -44q-51 0 -103.5 13t-85.5 35z" />
    <glyph glyph-name="t" unicode="t" horiz-adv-x="356" 
d="M356 47l8 -12q-71 -47 -140 -47q-130 0 -130 137v384h-77v17l73 5l95 170h4v-170h171l-13 -22h-158v-382q0 -40 14 -73q15 -32 67 -32q43 0 86 25z" />
    <glyph glyph-name="u" unicode="u" horiz-adv-x="569" 
d="M510 91l22 -72l-89 -28l-28 87v2q-85 -92 -192 -92q-171 0 -171 188v339l91 27h4v-368q0 -58 21 -105q21 -46 96 -46q37 0 77.5 21.5t73.5 58.5v412l91 27h4v-451z" />
    <glyph glyph-name="v" unicode="v" horiz-adv-x="483" 
d="M428 531h58q-57 -115 -135 -300l-106 -246h-7l-235 546h102l177 -413l52 119q83 192 94 294z" />
    <glyph glyph-name="w" unicode="w" horiz-adv-x="752" 
d="M692 531h59q-48 -105 -125 -305l-94 -241h-7l-146 394l-150 -394h-7l-218 546h101l159 -402l151 402h6l149 -399l39 102q74 192 83 297z" />
    <glyph glyph-name="x" unicode="x" horiz-adv-x="453" 
d="M295 350l-21 -30l159 -204v-138h-5l-213 275l-54 -76q-68 -96 -79 -177h-84q59 61 148 187l57 81l-204 263h111l153 -196l17 24q80 114 96 172h61q-60 -67 -142 -181z" />
    <glyph glyph-name="y" unicode="y" horiz-adv-x="481" 
d="M422 531h58q-36 -74 -100 -231l-28 -66l-132 -318q-62 -150 -215 -150l6 57q21 -7 49 -7q44 0 82 25.5t59 75.5l33 80l-233 534h102l180 -414l52 124q76 186 87 290z" />
    <glyph glyph-name="z" unicode="z" horiz-adv-x="434" 
d="M424 43h3l-12 -43h-404v4l298 512h-49q-138 0 -240 -26h-3l9 41h391v-4l-296 -512h52q140 0 251 28z" />
    <glyph glyph-name="braceleft" unicode="{" horiz-adv-x="274" 
d="M134 661q0 -44 26 -117q24 -71 24 -101q0 -52 -36.5 -88.5t-92.5 -46.5q56 -10 92.5 -46.5t36.5 -88.5q0 -31 -24 -101q-26 -73 -26 -117q0 -109 137 -109v-12q-110 0 -159.5 33t-49.5 107q0 44 29 123q25 65 25 99q0 44 -27 74t-72 32v12q45 2 72 32t27 74q0 34 -25 99
q-29 79 -29 123q0 74 49.5 107t159.5 33v-12q-137 0 -137 -109z" />
    <glyph glyph-name="bar" unicode="|" horiz-adv-x="161" 
d="M68 -64v846h24v-846h-24z" />
    <glyph glyph-name="braceright" unicode="}" horiz-adv-x="274" 
d="M158 196q0 -34 25 -99q30 -73 30 -123q0 -75 -49.5 -107.5t-160.5 -32.5v12q138 0 138 109q0 44 -26 117q-24 70 -24 101q0 52 36.5 88.5t92.5 46.5q-56 10 -92.5 46.5t-36.5 88.5q0 30 24 101q26 73 26 117q0 109 -138 109v12q111 0 160.5 -32.5t49.5 -107.5
q0 -50 -30 -123q-25 -65 -25 -99q0 -44 27 -74t72 -32v-12q-45 -2 -72 -32t-27 -74z" />
    <glyph glyph-name="asciitilde" unicode="~" horiz-adv-x="524" 
d="M64 309l-12 3q18 118 104 118q26 0 51 -9t76 -33q73 -37 105 -37q58 0 77 80l12 -3q-16 -118 -103 -118q-26 0 -51 9t-76 33q-73 37 -105 37q-30 0 -48.5 -19t-29.5 -61z" />
    <glyph glyph-name="uni00A0" unicode="&#xa0;" horiz-adv-x="209" 
 />
    <glyph glyph-name="exclamdown" unicode="&#xa1;" horiz-adv-x="203" 
d="M102 539l70 -70l-70 -71l-71 71zM94 309h15l46 -519h-106z" />
    <glyph glyph-name="cent" unicode="&#xa2;" horiz-adv-x="535" 
d="M494 127l12 -7q-86 -132 -222 -132h-11l-8 -88h-20l8 90q-95 11 -155 85t-60 185q-1 123 75.5 204t185.5 79h5l7 81h20l-7 -82q112 -9 177 -90l-41 -36q-62 101 -138 111v-2l-45 -488q23 -6 46 -6q47 0 93.5 25t77.5 71zM258 43l44 482v3q-73 -2 -119 -69.5t-46 -176.5
q0 -93 32 -155t89 -84z" />
    <glyph glyph-name="sterling" unicode="&#xa3;" horiz-adv-x="568" 
d="M532 174h10l-5 -38q-4 -26 -8 -43.5t-14 -38.5t-24 -34t-38.5 -22t-57.5 -10q-52 0 -167 34q-69 21 -92 21q-44 0 -89 -45l-13 23q42 30 62 49q59 53 59 140q0 55 -32 146h-83v18h77q-36 108 -36 164q0 90 56 146t145 56q136 0 215 -130l-13 -7q-70 91 -168 91
q-61 0 -99 -39t-38 -109q0 -52 32 -151l6 -21h200v-18h-195q18 -62 18 -98q0 -87 -86 -155q51 -1 134 -24q86 -21 120 -21q49 0 73 20t38 60z" />
    <glyph glyph-name="currency" unicode="&#xa4;" horiz-adv-x="490" 
d="M376 215l71 -71l-14 -14l-71 71q-50 -44 -117 -44t-117 44l-71 -71l-14 14l71 71q-45 51 -45 117t45 117l-71 71l14 14l71 -71q50 44 117 44t117 -44l71 71l14 -14l-71 -71q45 -51 45 -117t-45 -117zM399 332q0 63 -45.5 109t-108.5 46t-108.5 -46t-45.5 -109t45.5 -109
t108.5 -46t108.5 46t45.5 109z" />
    <glyph glyph-name="yen" unicode="&#xa5;" horiz-adv-x="617" 
d="M423 431l-51 -89h153v-18h-163v-98h163v-18h-163v-208h-102v208h-163v18h163v86l-7 12h-156v18h146l-221 386h117l214 -380l52 92q100 174 127 288h63q-92 -153 -172 -297z" />
    <glyph glyph-name="brokenbar" unicode="&#xa6;" horiz-adv-x="161" 
d="M68 409v373h24v-373h-24zM68 -64v373h24v-373h-24z" />
    <glyph glyph-name="section" unicode="&#xa7;" horiz-adv-x="515" 
d="M487 156q2 -99 -72.5 -185t-168.5 -83q-38 0 -84 12.5t-75 31.5l11 33q70 -63 153 -63q54 0 86.5 33.5t32.5 85.5q0 32 -15 58q-14 24 -36.5 44.5t-69.5 54.5l-30 22l-35 26q-47 35 -74 61q-83 81 -83 185q-2 99 72.5 185t165.5 83q80 0 156 -44l-11 -33q-74 63 -150 63
q-51 0 -83.5 -34t-32.5 -85q0 -32 14 -58q14 -24 37 -44.5t70 -54.5l30 -22l35 -26q68 -50 112 -107q45 -57 45 -139zM451 126q0 73 -37.5 127t-110.5 106l-37 26q-32 23 -76 58q-75 66 -75 143q0 50 34 96q-86 -73 -86 -180q0 -73 37.5 -127t110.5 -106l37 -26
q38 -27 75 -58q76 -65 76 -143q0 -50 -34 -96q86 73 86 180z" />
    <glyph glyph-name="dieresis" unicode="&#xa8;" horiz-adv-x="600" 
d="M205 619l-60 61l60 59l60 -59zM396 619l-61 61l61 59l59 -59z" />
    <glyph glyph-name="copyright" unicode="&#xa9;" horiz-adv-x="822" 
d="M36 364q-3 153 109.5 266t265.5 110q100 2 187.5 -49.5t138.5 -139t49 -187.5q2 -100 -49 -187.5t-138.5 -139t-187.5 -49.5q-153 -3 -265.5 110t-109.5 266zM764 364q3 146 -103 253.5t-250 104.5q-144 3 -250 -104.5t-103 -253.5q-3 -146 103 -253.5t250 -104.5
q144 -3 250 104.5t103 253.5zM191 361q0 101 62.5 166t157.5 65q110 0 170 -85l-34 -18q-56 89 -141 89q-71 0 -118 -58t-47 -151t48.5 -150t120.5 -57q46 0 91 23.5t72 63.5l12 -7q-72 -106 -187 -106q-89 0 -148 63t-59 162z" />
    <glyph glyph-name="ordfeminine" unicode="&#xaa;" horiz-adv-x="366" 
d="M342 411v-4q-29 -17 -53 -17q-47 0 -52 47q-50 -49 -116 -49q-41 0 -65.5 22t-24.5 57q0 43 38 71t107 35l60 6v35q0 52 -18.5 77t-61.5 25q-50 0 -99 -38l-8 9q63 53 132 53q119 0 119 -121v-163q0 -29 5 -37.5t24 -8.5q10 0 13 1zM236 452v115q-71 -7 -106 -27.5
t-35 -61.5q0 -30 16.5 -47t43.5 -17q45 0 81 38z" />
    <glyph glyph-name="guillemotleft" unicode="&#xab;" horiz-adv-x="469" 
d="M245 509l-129 -243l129 -243h-12l-204 243l204 243h12zM432 509l-129 -243l129 -243h-12l-204 243l204 243h12z" />
    <glyph glyph-name="logicalnot" unicode="&#xac;" horiz-adv-x="508" 
d="M44 374h408v-220h-22v200h-386v20z" />
    <glyph glyph-name="uni00AD" unicode="&#xad;" horiz-adv-x="302" 
d="M44 264v33h215v-33h-215z" />
    <glyph glyph-name="registered" unicode="&#xae;" horiz-adv-x="623" 
d="M583 469q2 -109 -80 -190.5t-191 -79.5q-110 -2 -192 79.5t-80 190.5q-2 108 80 190.5t192 80.5q109 2 191 -80.5t80 -190.5zM561 471q2 101 -73.5 177t-175.5 74q-101 2 -176.5 -74t-73.5 -177q-2 -101 73.5 -177.5t176.5 -74.5q100 -2 175.5 74.5t73.5 177.5zM471 309
v-6q-10 -2 -18 -2q-25 0 -41 11t-32 34l-60 93q-5 10 -24 10h-40v-147h-29v331h63q129 0 129 -86q0 -59 -77 -90l67 -99q34 -49 62 -49zM387 544q0 36 -25 56t-72 20h-34v-156q16 -3 45 -3q37 0 61.5 23.5t24.5 59.5z" />
    <glyph glyph-name="overscore" unicode="&#xaf;" horiz-adv-x="600" 
d="M163 654v32h275v-32h-275z" />
    <glyph glyph-name="degree" unicode="&#xb0;" horiz-adv-x="333" 
d="M27 613q0 58 41 98.5t99 40.5t99 -40.5t41 -98.5t-41 -98.5t-99 -40.5t-99 40.5t-41 98.5zM285 613q0 50 -35 85q-35 36 -83 36q-49 0 -84 -36q-34 -34 -34 -85t34 -86q35 -35 84 -35q48 0 83 35q35 37 35 86z" />
    <glyph glyph-name="plusminus" unicode="&#xb1;" horiz-adv-x="508" 
d="M265 374h193v-20h-193v-200h-22v200h-193v20h193v200h22v-200zM50 0v20h408v-20h-408z" />
    <glyph glyph-name="uni00B2" unicode="&#xb2;" horiz-adv-x="325" 
d="M299 355l-16 -56h-263v3l34 36q88 91 127.5 154.5t39.5 116.5q0 42 -23 67t-60 25q-64 0 -105 -69l-10 4q46 97 141 97q55 0 89.5 -31t34.5 -84q-2 -56 -46.5 -111.5t-165.5 -161.5l-1 -1h38q103 0 186 11z" />
    <glyph glyph-name="uni00B3" unicode="&#xb3;" horiz-adv-x="320" 
d="M23 320l10 37q46 -52 97 -52q45 0 73 29t28 73q0 43 -28 72t-73 34l-22 2l-2 9l19 7q39 13 62.5 40t23.5 62q0 32 -20 51t-53 19q-58 0 -98 -52l-10 4q51 78 134 78q48 0 79 -24.5t31 -63.5q0 -32 -25.5 -60t-63.5 -41v-2q45 -9 74.5 -41t29.5 -77q0 -55 -44 -93
t-111 -38q-50 0 -111 27z" />
    <glyph glyph-name="acute" unicode="&#xb4;" horiz-adv-x="600" 
d="M289 606l-7 5l72 174h105z" />
    <glyph glyph-name="uni00B5" unicode="&#xb5;" horiz-adv-x="591" 
d="M524 91l22 -72l-90 -28l-27 87v2q-87 -92 -193 -92q-70 0 -110 40q35 -123 35 -185v-55h-95v727l91 27h4v-368q0 -58 21 -105q21 -46 96 -46q37 0 77.5 21.5t73.5 58.5v412l91 27h4v-451z" />
    <glyph glyph-name="paragraph" unicode="&#xb6;" horiz-adv-x="463" 
d="M237 -64v440q-94 4 -154 61q-58 57 -58 148q0 92 58 144.5t155 52.5h23v-846h-24zM361 782h24v-817q0 -79 -38.5 -129.5t-109.5 -63.5v17q60 13 92 58.5t32 117.5v817z" />
    <glyph glyph-name="middot" unicode="&#xb7;" horiz-adv-x="209" 
d="M104 225l-71 70l71 71l71 -71z" />
    <glyph glyph-name="cedilla" unicode="&#xb8;" horiz-adv-x="600" 
d="M417 -136q0 -38 -31.5 -62t-81.5 -24q-51 0 -82 18l3 9q25 -9 63 -9q33 0 53 14.5t20 36.5q0 21 -20.5 35t-55.5 14h-26l47 104h20l-23 -51q53 -4 83.5 -27.5t30.5 -57.5z" />
    <glyph glyph-name="uni00B9" unicode="&#xb9;" horiz-adv-x="193" 
d="M137 735h3v-435h-60v356q-27 -13 -66 -26v10q28 10 63.5 37.5t59.5 57.5z" />
    <glyph glyph-name="ordmasculine" unicode="&#xba;" horiz-adv-x="401" 
d="M29 562q0 78 49.5 128t124.5 50t122 -48t47 -126t-49.5 -128t-124.5 -50q-76 0 -122.5 47.5t-46.5 126.5zM304 562q0 74 -29 120t-75 46q-47 0 -74.5 -44.5t-27.5 -117.5q0 -75 28 -120.5t75 -45.5t75 44.5t28 117.5z" />
    <glyph glyph-name="guillemotright" unicode="&#xbb;" horiz-adv-x="469" 
d="M49 509l204 -243l-204 -243h-12l129 243l-129 243h12zM236 509l204 -243l-204 -243h-12l129 243l-129 243h12z" />
    <glyph glyph-name="onequarter" unicode="&#xbc;" horiz-adv-x="707" 
d="M155 735h3v-435h-60v356q-27 -13 -66 -26v10q28 10 63.5 37.5t59.5 57.5zM74 0l440 728h23l-440 -728h-23zM684 155l-11 -40h-53v-115h-60v115h-179l-7 21l232 297h14v-278h64zM409 155h151v195z" />
    <glyph glyph-name="onehalf" unicode="&#xbd;" horiz-adv-x="682" 
d="M151 735h3v-435h-60v356q-27 -13 -66 -26v10q28 10 63.5 37.5t59.5 57.5zM69 0l440 728h23l-440 -728h-23zM654 56l-16 -56h-263v3l34 36q88 91 127.5 154.5t39.5 116.5q0 42 -23 67t-60 25q-65 0 -105 -69l-10 4q46 97 141 97q55 0 89.5 -31t34.5 -84
q-2 -56 -46.5 -111.5t-165.5 -161.5l-1 -1h38q103 0 186 11z" />
    <glyph glyph-name="threequarters" unicode="&#xbe;" horiz-adv-x="781" 
d="M34 320l10 37q46 -52 97 -52q45 0 73 29t28 73q0 43 -28 72t-73 34l-22 2l-2 9l19 7q39 13 62.5 40t23.5 62q0 32 -20 51t-53 19q-58 0 -98 -52l-10 4q51 78 134 78q48 0 79 -24.5t31 -63.5q0 -32 -25.5 -60t-63.5 -41v-2q45 -9 74.5 -41t29.5 -77q0 -55 -44 -93
t-111 -38q-49 0 -111 27zM148 0l440 728h23l-440 -728h-23zM758 155l-11 -40h-53v-115h-60v115h-179l-7 21l232 297h14v-278h64zM483 155h151v195z" />
    <glyph glyph-name="questiondown" unicode="&#xbf;" horiz-adv-x="474" 
d="M239 539l71 -70l-71 -71l-71 71zM312 244q0 -28 -17 -53t-59 -65q-36 -36 -53 -57q-48 -55 -48 -120q0 -58 38.5 -94t101.5 -36q97 0 170 84l12 -8q-36 -45 -90 -81t-139 -36q-88 0 -143 45q-55 43 -55 117q0 43 21 79q20 33 48 58.5t83 65.5q55 39 76.5 62t21.5 47
q0 43 -53 43q-12 0 -27 -3l-3 14q15 3 31 3q37 0 60.5 -17t23.5 -48z" />
    <glyph glyph-name="Agrave" unicode="&#xc0;" horiz-adv-x="616" 
d="M504 0l-96 239h-284q-55 -148 -59 -239h-69q53 109 130 300l8 19l174 425h4l303 -744h-111zM131 257h270l-135 334l-113 -279zM325 797l-181 170h118l70 -165z" />
    <glyph glyph-name="Aacute" unicode="&#xc1;" horiz-adv-x="616" 
d="M504 0l-96 239h-284q-55 -148 -59 -239h-69q53 109 130 300l8 19l174 425h4l303 -744h-111zM131 257h270l-135 334l-113 -279zM294 797l-7 5l70 165h118z" />
    <glyph glyph-name="Acircumflex" unicode="&#xc2;" horiz-adv-x="616" 
d="M504 0l-96 239h-284q-55 -148 -59 -239h-69q53 109 130 300l8 19l174 425h4l303 -744h-111zM131 257h270l-135 334l-113 -279zM478 802l-6 -5l-162 92l-162 -92l-6 5l165 165h6z" />
    <glyph glyph-name="Atilde" unicode="&#xc3;" horiz-adv-x="616" 
d="M504 0l-96 239h-284q-55 -148 -59 -239h-69q53 109 130 300l8 19l174 425h4l303 -744h-111zM131 257h270l-135 334l-113 -279zM145 809l-9 3q14 111 87 111q32 0 107 -32q66 -26 85 -26q44 0 60 58l10 -2q-16 -112 -88 -112q-31 0 -105 31q-58 27 -86 27q-45 0 -61 -58z
" />
    <glyph glyph-name="Adieresis" unicode="&#xc4;" horiz-adv-x="616" 
d="M504 0l-96 239h-284q-55 -148 -59 -239h-69q53 109 130 300l8 19l174 425h4l303 -744h-111zM131 257h270l-135 334l-113 -279zM212 811l-61 60l61 60l59 -60zM408 811l-61 60l61 60l59 -60z" />
    <glyph glyph-name="Aring" unicode="&#xc5;" horiz-adv-x="616" 
d="M504 0l-96 239h-284q-55 -148 -59 -239h-69q53 109 130 300l8 19l174 425h4l303 -744h-111zM131 257h270l-135 334l-113 -279zM201 897q0 44 31.5 72t77.5 28t77.5 -28t31.5 -72t-31.5 -72t-77.5 -28t-77.5 28t-31.5 72zM374 897q0 40 -17 63.5t-47 23.5t-47 -23.5
t-17 -63.5t17 -63.5t47 -23.5t47 23.5t17 63.5z" />
    <glyph glyph-name="AE" unicode="&#xc6;" horiz-adv-x="882" 
d="M863 67h2l-19 -67h-431v262h-253q-82 -153 -104 -262h-71l416 728h431l12 -63h-2q-134 45 -272 45h-55v-322h46q161 0 210 20h2v-62h-2q-53 24 -210 24h-46v-352h58q153 0 288 49zM172 280h243v428l-225 -395q-1 -2 -7.5 -13t-10.5 -20z" />
    <glyph glyph-name="Ccedilla" unicode="&#xc7;" horiz-adv-x="702" 
d="M406 -12l-19 -39q53 -4 84 -27.5t31 -57.5q0 -38 -31.5 -62t-81.5 -24q-51 0 -83 18l3 9q25 -9 63 -9q33 0 53 14.5t20 36.5t-20.5 35.5t-55.5 13.5h-25l42 92q-150 -2 -250 102.5t-98 267.5q-2 169 104.5 276.5t265.5 105.5q82 0 154.5 -32t118.5 -85l-50 -45
q-41 68 -100.5 107t-127.5 39q-112 0 -182.5 -97t-70.5 -244q0 -161 79 -256t203 -95q159 0 247 137l12 -7q-103 -167 -285 -174z" />
    <glyph glyph-name="Egrave" unicode="&#xc8;" horiz-adv-x="539" 
d="M520 67h2l-19 -67h-431v728h419l12 -63h-2q-133 45 -272 45h-55v-322h46q161 0 210 20h2v-62h-2q-53 24 -210 24h-46v-352h58q153 0 288 49zM298 797l-181 170h118l70 -165z" />
    <glyph glyph-name="Eacute" unicode="&#xc9;" horiz-adv-x="539" 
d="M520 67h2l-19 -67h-431v728h419l12 -63h-2q-133 45 -272 45h-55v-322h46q161 0 210 20h2v-62h-2q-53 24 -210 24h-46v-352h58q153 0 288 49zM267 797l-7 5l70 165h118z" />
    <glyph glyph-name="Ecircumflex" unicode="&#xca;" horiz-adv-x="539" 
d="M520 67h2l-19 -67h-431v728h419l12 -63h-2q-133 45 -272 45h-55v-322h46q161 0 210 20h2v-62h-2q-53 24 -210 24h-46v-352h58q153 0 288 49zM451 802l-6 -5l-162 92l-162 -92l-6 5l165 165h6z" />
    <glyph glyph-name="Edieresis" unicode="&#xcb;" horiz-adv-x="539" 
d="M520 67h2l-19 -67h-431v728h419l12 -63h-2q-133 45 -272 45h-55v-322h46q161 0 210 20h2v-62h-2q-53 24 -210 24h-46v-352h58q153 0 288 49zM185 811l-61 60l61 60l59 -60zM381 811l-61 60l61 60l59 -60z" />
    <glyph glyph-name="Igrave" unicode="&#xcc;" horiz-adv-x="246" 
d="M72 0v728h102v-728h-102zM139 797l-181 170h118l70 -165z" />
    <glyph glyph-name="Iacute" unicode="&#xcd;" horiz-adv-x="246" 
d="M72 0v728h102v-728h-102zM108 797l-7 5l70 165h118z" />
    <glyph glyph-name="Icircumflex" unicode="&#xce;" horiz-adv-x="246" 
d="M72 0v728h102v-728h-102zM291 802l-6 -5l-162 92l-162 -92l-6 5l165 165h6z" />
    <glyph glyph-name="Idieresis" unicode="&#xcf;" horiz-adv-x="246" 
d="M72 0v728h102v-728h-102zM26 811l-61 60l61 60l59 -60zM222 811l-61 60l61 60l59 -60z" />
    <glyph glyph-name="Eth" unicode="&#xd0;" horiz-adv-x="757" 
d="M718 372q0 -175 -108 -273.5t-295 -98.5h-238v371h-62v14h62v343h255q177 0 281.5 -94t104.5 -262zM606 367q0 155 -77.5 250t-205.5 95h-144v-327h191v-14h-191v-346q41 -9 153 -9q131 0 202.5 91.5t71.5 259.5z" />
    <glyph glyph-name="Ntilde" unicode="&#xd1;" horiz-adv-x="653" 
d="M537 728h60q-20 -126 -20 -318v-422h-9l-463 641v-311q0 -201 20 -318h-60q20 126 20 318v339l-49 68v3h121l400 -564v246q0 201 -20 318zM158 809l-9 3q14 111 87 111q32 0 107 -32q66 -26 85 -26q44 0 60 58l10 -2q-16 -112 -88 -112q-31 0 -105 31q-58 27 -86 27
q-45 0 -61 -58z" />
    <glyph glyph-name="Ograve" unicode="&#xd2;" horiz-adv-x="831" 
d="M37 357q-2 168 109.5 276.5t275.5 106.5q161 0 266.5 -101.5t105.5 -267.5q2 -168 -109.5 -276.5t-275.5 -106.5q-161 0 -266.5 101.5t-105.5 267.5zM682 360q0 162 -75 263t-193 101q-120 0 -192.5 -98t-72.5 -258q0 -162 75.5 -263t195.5 -101q118 0 190 98t72 258z
M431 797l-181 170h118l70 -165z" />
    <glyph glyph-name="Oacute" unicode="&#xd3;" horiz-adv-x="831" 
d="M37 357q-2 168 109.5 276.5t275.5 106.5q161 0 266.5 -101.5t105.5 -267.5q2 -168 -109.5 -276.5t-275.5 -106.5q-161 0 -266.5 101.5t-105.5 267.5zM682 360q0 162 -75 263t-193 101q-120 0 -192.5 -98t-72.5 -258q0 -162 75.5 -263t195.5 -101q118 0 190 98t72 258z
M400 797l-7 5l70 165h118z" />
    <glyph glyph-name="Ocircumflex" unicode="&#xd4;" horiz-adv-x="831" 
d="M37 357q-2 168 109.5 276.5t275.5 106.5q161 0 266.5 -101.5t105.5 -267.5q2 -168 -109.5 -276.5t-275.5 -106.5q-161 0 -266.5 101.5t-105.5 267.5zM682 360q0 162 -75 263t-193 101q-120 0 -192.5 -98t-72.5 -258q0 -162 75.5 -263t195.5 -101q118 0 190 98t72 258z
M584 802l-6 -5l-162 92l-162 -92l-6 5l165 165h6z" />
    <glyph glyph-name="Otilde" unicode="&#xd5;" horiz-adv-x="831" 
d="M37 357q-2 168 109.5 276.5t275.5 106.5q161 0 266.5 -101.5t105.5 -267.5q2 -168 -109.5 -276.5t-275.5 -106.5q-161 0 -266.5 101.5t-105.5 267.5zM682 360q0 162 -75 263t-193 101q-120 0 -192.5 -98t-72.5 -258q0 -162 75.5 -263t195.5 -101q118 0 190 98t72 258z
M251 809l-9 3q14 111 87 111q32 0 107 -32q66 -26 85 -26q44 0 60 58l10 -2q-16 -112 -88 -112q-31 0 -105 31q-58 27 -86 27q-45 0 -61 -58z" />
    <glyph glyph-name="Odieresis" unicode="&#xd6;" horiz-adv-x="831" 
d="M37 357q-2 168 109.5 276.5t275.5 106.5q161 0 266.5 -101.5t105.5 -267.5q2 -168 -109.5 -276.5t-275.5 -106.5q-161 0 -266.5 101.5t-105.5 267.5zM682 360q0 162 -75 263t-193 101q-120 0 -192.5 -98t-72.5 -258q0 -162 75.5 -263t195.5 -101q118 0 190 98t72 258z
M318 811l-61 60l61 60l59 -60zM514 811l-61 60l61 60l59 -60z" />
    <glyph glyph-name="multiply" unicode="&#xd7;" horiz-adv-x="508" 
d="M439 533l-170 -170l169 -169l-15 -15l-169 169l-169 -169l-15 15l169 169l-170 170l15 15l170 -170l170 170z" />
    <glyph glyph-name="Oslash" unicode="&#xd8;" horiz-adv-x="831" 
d="M794 371q2 -168 -109.5 -276.5t-275.5 -106.5q-126 0 -217 61l-76 -100l-16 11l76 101q-139 103 -139 296q-2 168 109.5 276.5t275.5 106.5q123 0 218 -62l76 101l16 -11l-76 -101q138 -102 138 -296zM217 115l386 514q-75 95 -189 95q-120 0 -192.5 -98t-72.5 -258
q0 -154 68 -253zM682 360q0 152 -67 252l-386 -513q75 -95 191 -95q118 0 190 98t72 258z" />
    <glyph glyph-name="Ugrave" unicode="&#xd9;" horiz-adv-x="659" 
d="M66 250v478h102v-476q0 -116 51 -175t148 -59q96 0 148 58.5t52 170.5v163q0 201 -20 318h60q-20 -126 -20 -318v-158q0 -264 -257 -264q-130 0 -197 67t-67 195zM355 797l-181 170h118l70 -165z" />
    <glyph glyph-name="Uacute" unicode="&#xda;" horiz-adv-x="659" 
d="M66 250v478h102v-476q0 -116 51 -175t148 -59q96 0 148 58.5t52 170.5v163q0 201 -20 318h60q-20 -126 -20 -318v-158q0 -264 -257 -264q-130 0 -197 67t-67 195zM324 797l-7 5l70 165h118z" />
    <glyph glyph-name="Ucircumflex" unicode="&#xdb;" horiz-adv-x="659" 
d="M66 250v478h102v-476q0 -116 51 -175t148 -59q96 0 148 58.5t52 170.5v163q0 201 -20 318h60q-20 -126 -20 -318v-158q0 -264 -257 -264q-130 0 -197 67t-67 195zM508 802l-6 -5l-162 92l-162 -92l-6 5l165 165h6z" />
    <glyph glyph-name="Udieresis" unicode="&#xdc;" horiz-adv-x="659" 
d="M66 250v478h102v-476q0 -116 51 -175t148 -59q96 0 148 58.5t52 170.5v163q0 201 -20 318h60q-20 -126 -20 -318v-158q0 -264 -257 -264q-130 0 -197 67t-67 195zM242 811l-61 60l61 60l59 -60zM438 811l-61 60l61 60l59 -60z" />
    <glyph glyph-name="Yacute" unicode="&#xdd;" horiz-adv-x="591" 
d="M410 431l-61 -107v-324h-102v312l-238 416h117l214 -380l52 92q100 174 127 288h63q-92 -153 -172 -297zM297 797l-7 5l70 165h118z" />
    <glyph glyph-name="Thorn" unicode="&#xde;" horiz-adv-x="568" 
d="M543 406q0 -102 -76 -163t-206 -61q-43 0 -87 6v-188h-102v728h102v-122h87q138 0 210 -51.5t72 -148.5zM435 394q0 92 -48 144t-141 52h-72v-385q29 -7 70 -7q93 0 142 51t49 145z" />
    <glyph glyph-name="germandbls" unicode="&#xdf;" horiz-adv-x="621" 
d="M600 153q0 -75 -51 -120t-135 -45q-99 0 -164 48l14 51q64 -85 156 -85q55 0 88 30t33 77q0 42 -26.5 70t-89.5 63l-38 21q-49 27 -73.5 55.5t-24.5 68.5q0 33 16 57t55 60q31 29 45 46q41 48 41 113q0 61 -34 99t-91 38q-62 0 -96 -44.5t-34 -119.5v-636h-95v509h-77v22
h77v55q0 110 62 169t167 59q83 0 141 -41t58 -105q0 -44 -23 -73t-78 -67q-42 -28 -59 -47t-17 -44q0 -26 20 -45t67 -45l38 -22q68 -38 98 -75.5t30 -96.5z" />
    <glyph glyph-name="agrave" unicode="&#xe0;" horiz-adv-x="512" 
d="M504 24v-6q-40 -25 -83 -25q-73 0 -79 74q-83 -77 -185 -77q-63 0 -101.5 34t-38.5 89q0 68 60 111.5t166 54.5l60 6l38 3v57q0 83 -30 124t-98 41q-78 0 -150 -60l-9 11q46 43 91.5 62.5t104.5 19.5q186 0 186 -189v-256q0 -46 8 -61t41 -15q3 0 19 2zM341 86v187
q-117 -13 -173.5 -45.5t-56.5 -98.5q0 -49 27 -76t71 -27q70 0 132 60zM254 606l-170 179h105l72 -174z" />
    <glyph glyph-name="aacute" unicode="&#xe1;" horiz-adv-x="512" 
d="M504 24v-6q-40 -25 -83 -25q-73 0 -79 74q-83 -77 -185 -77q-63 0 -101.5 34t-38.5 89q0 68 60 111.5t166 54.5l60 6l38 3v57q0 83 -30 124t-98 41q-78 0 -150 -60l-9 11q46 43 91.5 62.5t104.5 19.5q186 0 186 -189v-256q0 -46 8 -61t41 -15q3 0 19 2zM341 86v187
q-117 -13 -173.5 -45.5t-56.5 -98.5q0 -49 27 -76t71 -27q70 0 132 60zM224 606l-7 5l73 174h105z" />
    <glyph glyph-name="acircumflex" unicode="&#xe2;" horiz-adv-x="512" 
d="M504 24v-6q-40 -25 -83 -25q-73 0 -79 74q-83 -77 -185 -77q-63 0 -101.5 34t-38.5 89q0 68 60 111.5t166 54.5l60 6l38 3v57q0 83 -30 124t-98 41q-78 0 -150 -60l-9 11q46 43 91.5 62.5t104.5 19.5q186 0 186 -189v-256q0 -46 8 -61t41 -15q3 0 19 2zM341 86v187
q-117 -13 -173.5 -45.5t-56.5 -98.5q0 -49 27 -76t71 -27q70 0 132 60zM393 611l-6 -5l-148 100l-148 -100l-6 5l151 174h6z" />
    <glyph glyph-name="atilde" unicode="&#xe3;" horiz-adv-x="512" 
d="M504 24v-6q-40 -25 -83 -25q-73 0 -79 74q-83 -77 -185 -77q-63 0 -101.5 34t-38.5 89q0 68 60 111.5t166 54.5l60 6l38 3v57q0 83 -30 124t-98 41q-78 0 -150 -60l-9 11q46 43 91.5 62.5t104.5 19.5q186 0 186 -189v-256q0 -46 8 -61t41 -15q3 0 19 2zM341 86v187
q-117 -13 -173.5 -45.5t-56.5 -98.5q0 -49 27 -76t71 -27q70 0 132 60zM81 618l-10 2q16 112 88 112q36 0 100 -32q60 -26 78 -26q45 0 61 58l9 -2q-14 -112 -88 -112q-33 0 -99 32q-60 26 -78 26q-45 0 -61 -58z" />
    <glyph glyph-name="adieresis" unicode="&#xe4;" horiz-adv-x="512" 
d="M504 24v-6q-40 -25 -83 -25q-73 0 -79 74q-83 -77 -185 -77q-63 0 -101.5 34t-38.5 89q0 68 60 111.5t166 54.5l60 6l38 3v57q0 83 -30 124t-98 41q-78 0 -150 -60l-9 11q46 43 91.5 62.5t104.5 19.5q186 0 186 -189v-256q0 -46 8 -61t41 -15q3 0 19 2zM341 86v187
q-117 -13 -173.5 -45.5t-56.5 -98.5q0 -49 27 -76t71 -27q70 0 132 60zM138 619l-61 61l61 59l59 -59zM328 619l-60 61l60 59l60 -59z" />
    <glyph glyph-name="aring" unicode="&#xe5;" horiz-adv-x="512" 
d="M504 24v-6q-40 -25 -83 -25q-73 0 -79 74q-83 -77 -185 -77q-63 0 -101.5 34t-38.5 89q0 68 60 111.5t166 54.5l60 6l38 3v57q0 83 -30 124t-98 41q-78 0 -150 -60l-9 11q46 43 91.5 62.5t104.5 19.5q186 0 186 -189v-256q0 -46 8 -61t41 -15q3 0 19 2zM341 86v187
q-117 -13 -173.5 -45.5t-56.5 -98.5q0 -49 27 -76t71 -27q70 0 132 60zM130 706q0 44 31.5 71.5t77.5 27.5t77.5 -27.5t31.5 -71.5t-31 -72t-78 -28t-78 28t-31 72zM303 706q0 40 -17 63.5t-47 23.5t-47 -23.5t-17 -63.5t17 -63.5t47 -23.5t47 23.5t17 63.5z" />
    <glyph glyph-name="ae" unicode="&#xe6;" horiz-adv-x="852" 
d="M826 303h-384v-18q0 -119 52.5 -186.5t136.5 -67.5q50 0 97.5 25t79.5 71l12 -7q-86 -132 -230 -132q-66 0 -120.5 29.5t-86.5 83.5q-42 -53 -101.5 -82t-122.5 -29t-101.5 34t-38.5 89q0 70 61.5 120t165.5 63l45 6l56 8v35q0 83 -30.5 124t-102.5 41q-80 0 -157 -60
l-9 11q51 43 97.5 62.5t108.5 19.5q127 0 163 -86q70 86 193 86q104 0 161 -65t55 -175zM443 319h292q4 94 -32.5 151.5t-100.5 57.5q-65 0 -108 -57.5t-51 -151.5zM213 26q73 0 134 56v213q-116 -19 -175 -59t-59 -107q0 -49 27.5 -76t72.5 -27z" />
    <glyph glyph-name="ccedilla" unicode="&#xe7;" horiz-adv-x="511" 
d="M291 -12l-18 -39q53 -4 84 -27.5t31 -57.5q0 -38 -32 -62t-82 -24t-82 18l3 9q25 -9 63 -9q33 0 53 14.5t20 36.5q0 21 -20.5 35t-55.5 14h-25l41 92q-105 2 -173 77.5t-68 194.5q-2 122 75.5 203.5t186.5 79.5q131 0 201 -91l-41 -36q-69 112 -155 112q-72 0 -118 -68
t-46 -178q0 -118 50.5 -184.5t131.5 -66.5q47 0 93.5 25t78.5 71l12 -7q-83 -125 -208 -132z" />
    <glyph glyph-name="egrave" unicode="&#xe8;" horiz-adv-x="541" 
d="M515 303h-384v-18q0 -119 52.5 -186.5t136.5 -67.5q50 0 97.5 25t79.5 71l12 -7q-86 -132 -230 -132q-109 0 -179 74.5t-70 194.5q0 127 76 206.5t193 79.5q104 0 161 -65t55 -175zM132 319h292q4 94 -32.5 151.5t-100.5 57.5q-65 0 -108 -57.5t-51 -151.5zM307 606
l-170 179h105l72 -174z" />
    <glyph glyph-name="eacute" unicode="&#xe9;" horiz-adv-x="541" 
d="M515 303h-384v-18q0 -119 52.5 -186.5t136.5 -67.5q50 0 97.5 25t79.5 71l12 -7q-86 -132 -230 -132q-109 0 -179 74.5t-70 194.5q0 127 76 206.5t193 79.5q104 0 161 -65t55 -175zM132 319h292q4 94 -32.5 151.5t-100.5 57.5q-65 0 -108 -57.5t-51 -151.5zM277 606l-7 5
l73 174h105z" />
    <glyph glyph-name="ecircumflex" unicode="&#xea;" horiz-adv-x="541" 
d="M515 303h-384v-18q0 -119 52.5 -186.5t136.5 -67.5q50 0 97.5 25t79.5 71l12 -7q-86 -132 -230 -132q-109 0 -179 74.5t-70 194.5q0 127 76 206.5t193 79.5q104 0 161 -65t55 -175zM132 319h292q4 94 -32.5 151.5t-100.5 57.5q-65 0 -108 -57.5t-51 -151.5zM446 611
l-6 -5l-148 100l-148 -100l-6 5l151 174h6z" />
    <glyph glyph-name="edieresis" unicode="&#xeb;" horiz-adv-x="541" 
d="M515 303h-384v-18q0 -119 52.5 -186.5t136.5 -67.5q50 0 97.5 25t79.5 71l12 -7q-86 -132 -230 -132q-109 0 -179 74.5t-70 194.5q0 127 76 206.5t193 79.5q104 0 161 -65t55 -175zM132 319h292q4 94 -32.5 151.5t-100.5 57.5q-65 0 -108 -57.5t-51 -151.5zM191 619
l-61 61l61 59l59 -59zM381 619l-60 61l60 59l60 -59z" />
    <glyph glyph-name="igrave" unicode="&#xec;" horiz-adv-x="215" 
d="M60 0v515l90 27h4v-542h-94zM122 606l-170 179h105l72 -174z" />
    <glyph glyph-name="iacute" unicode="&#xed;" horiz-adv-x="215" 
d="M60 0v515l90 27h4v-542h-94zM92 606l-7 5l73 174h105z" />
    <glyph glyph-name="icircumflex" unicode="&#xee;" horiz-adv-x="215" 
d="M60 0v515l90 27h4v-542h-94zM261 611l-6 -5l-148 100l-148 -100l-6 5l151 174h6z" />
    <glyph glyph-name="idieresis" unicode="&#xef;" horiz-adv-x="215" 
d="M60 0v515l90 27h4v-542h-94zM6 619l-61 61l61 59l59 -59zM196 619l-60 61l60 59l60 -59z" />
    <glyph glyph-name="eth" unicode="&#xf0;" horiz-adv-x="578" 
d="M546 288q0 -133 -74.5 -216.5t-190.5 -83.5q-111 0 -180.5 72.5t-69.5 189.5q0 115 69.5 186.5t173.5 71.5q77 0 141 -49q-38 108 -107 180l-141 -63l-7 16l135 60q-62 57 -126 79l6 16q89 -23 165 -75l115 51l7 -16l-106 -47q89 -67 139.5 -165.5t50.5 -206.5zM446 269
q0 84 -22 162q-72 60 -144 60q-69 0 -108 -63.5t-39 -171.5t44 -179.5t111 -71.5q71 0 114.5 74.5t43.5 189.5z" />
    <glyph glyph-name="ntilde" unicode="&#xf1;" horiz-adv-x="571" 
d="M517 354v-354h-95v356q0 58 -21 104q-21 47 -96 47q-80 0 -153 -71v-436h-95v515l91 27h4v-86q92 87 194 87q171 0 171 -189zM133 618l-10 2q16 112 88 112q36 0 100 -32q60 -26 78 -26q45 0 61 58l9 -2q-14 -112 -88 -112q-33 0 -99 32q-60 26 -78 26q-45 0 -61 -58z
" />
    <glyph glyph-name="ograve" unicode="&#xf2;" horiz-adv-x="597" 
d="M30 262q0 125 77.5 203t195.5 78q116 0 190 -75.5t74 -199.5t-77.5 -202t-195.5 -78q-116 0 -190 75t-74 199zM465 262q0 119 -47 193t-121 74q-75 0 -120 -72t-45 -189q0 -119 47 -192.5t121 -73.5q75 0 120 71t45 189zM314 606l-170 179h105l72 -174z" />
    <glyph glyph-name="oacute" unicode="&#xf3;" horiz-adv-x="597" 
d="M30 262q0 125 77.5 203t195.5 78q116 0 190 -75.5t74 -199.5t-77.5 -202t-195.5 -78q-116 0 -190 75t-74 199zM465 262q0 119 -47 193t-121 74q-75 0 -120 -72t-45 -189q0 -119 47 -192.5t121 -73.5q75 0 120 71t45 189zM284 606l-7 5l73 174h105z" />
    <glyph glyph-name="ocircumflex" unicode="&#xf4;" horiz-adv-x="597" 
d="M30 262q0 125 77.5 203t195.5 78q116 0 190 -75.5t74 -199.5t-77.5 -202t-195.5 -78q-116 0 -190 75t-74 199zM465 262q0 119 -47 193t-121 74q-75 0 -120 -72t-45 -189q0 -119 47 -192.5t121 -73.5q75 0 120 71t45 189zM453 611l-6 -5l-148 100l-148 -100l-6 5l151 174
h6z" />
    <glyph glyph-name="otilde" unicode="&#xf5;" horiz-adv-x="597" 
d="M30 262q0 125 77.5 203t195.5 78q116 0 190 -75.5t74 -199.5t-77.5 -202t-195.5 -78q-116 0 -190 75t-74 199zM465 262q0 119 -47 193t-121 74q-75 0 -120 -72t-45 -189q0 -119 47 -192.5t121 -73.5q75 0 120 71t45 189zM141 618l-10 2q16 112 88 112q36 0 100 -32
q60 -26 78 -26q45 0 61 58l9 -2q-14 -112 -88 -112q-33 0 -99 32q-60 26 -78 26q-45 0 -61 -58z" />
    <glyph glyph-name="odieresis" unicode="&#xf6;" horiz-adv-x="597" 
d="M30 262q0 125 77.5 203t195.5 78q116 0 190 -75.5t74 -199.5t-77.5 -202t-195.5 -78q-116 0 -190 75t-74 199zM465 262q0 119 -47 193t-121 74q-75 0 -120 -72t-45 -189q0 -119 47 -192.5t121 -73.5q75 0 120 71t45 189zM197 619l-61 61l61 59l59 -59zM387 619l-60 61
l60 59l60 -59z" />
    <glyph glyph-name="divide" unicode="&#xf7;" horiz-adv-x="508" 
d="M254 506l-41 41l41 41l41 -41zM50 354v20h408v-20h-408zM254 140l-41 41l41 41l41 -41z" />
    <glyph glyph-name="oslash" unicode="&#xf8;" horiz-adv-x="597" 
d="M567 268q0 -124 -77.5 -202t-195.5 -78q-86 0 -148 40l-55 -79l-15 10l55 80q-101 74 -101 223q0 125 77.5 203t195.5 78q83 0 148 -41l55 80l15 -11l-55 -79q101 -76 101 -224zM169 93l249 362q-45 74 -121 74q-75 0 -120 -72t-45 -189q0 -107 37 -175zM465 262
q0 104 -36 175l-250 -361q45 -74 121 -74q75 0 120 71t45 189z" />
    <glyph glyph-name="ugrave" unicode="&#xf9;" horiz-adv-x="569" 
d="M510 91l22 -72l-89 -28l-28 87v2q-85 -92 -192 -92q-171 0 -171 188v339l91 27h4v-368q0 -58 21 -105q21 -46 96 -46q37 0 77.5 21.5t73.5 58.5v412l91 27h4v-451zM297 606l-170 179h105l72 -174z" />
    <glyph glyph-name="uacute" unicode="&#xfa;" horiz-adv-x="569" 
d="M510 91l22 -72l-89 -28l-28 87v2q-85 -92 -192 -92q-171 0 -171 188v339l91 27h4v-368q0 -58 21 -105q21 -46 96 -46q37 0 77.5 21.5t73.5 58.5v412l91 27h4v-451zM267 606l-7 5l73 174h105z" />
    <glyph glyph-name="ucircumflex" unicode="&#xfb;" horiz-adv-x="569" 
d="M510 91l22 -72l-89 -28l-28 87v2q-85 -92 -192 -92q-171 0 -171 188v339l91 27h4v-368q0 -58 21 -105q21 -46 96 -46q37 0 77.5 21.5t73.5 58.5v412l91 27h4v-451zM436 611l-6 -5l-148 100l-148 -100l-6 5l151 174h6z" />
    <glyph glyph-name="udieresis" unicode="&#xfc;" horiz-adv-x="569" 
d="M510 91l22 -72l-89 -28l-28 87v2q-85 -92 -192 -92q-171 0 -171 188v339l91 27h4v-368q0 -58 21 -105q21 -46 96 -46q37 0 77.5 21.5t73.5 58.5v412l91 27h4v-451zM180 619l-61 61l61 59l59 -59zM370 619l-60 61l60 59l60 -59z" />
    <glyph glyph-name="yacute" unicode="&#xfd;" horiz-adv-x="481" 
d="M422 531h58q-36 -74 -100 -231l-28 -66l-132 -318q-62 -150 -215 -150l6 57q21 -7 49 -7q44 0 82 25.5t59 75.5l33 80l-233 534h102l180 -414l52 124q76 186 87 290zM235 606l-7 5l73 174h105z" />
    <glyph glyph-name="thorn" unicode="&#xfe;" horiz-adv-x="588" 
d="M558 274q1 -122 -76 -205t-182 -81q-86 0 -148 56v-272h-94v1008l90 30h4v-351q79 84 178 84q98 0 163 -76t65 -193zM456 265q0 116 -42.5 180.5t-113.5 64.5q-83 0 -148 -77v-327q20 -48 57 -75t82 -27q73 0 119 71.5t46 189.5z" />
    <glyph glyph-name="ydieresis" unicode="&#xff;" horiz-adv-x="481" 
d="M422 531h58q-36 -74 -100 -231l-28 -66l-132 -318q-62 -150 -215 -150l6 57q21 -7 49 -7q44 0 82 25.5t59 75.5l33 80l-233 534h102l180 -414l52 124q76 186 87 290zM148 619l-61 61l61 59l59 -59zM338 619l-60 61l60 59l60 -59z" />
    <glyph glyph-name="Amacron" unicode="&#x100;" horiz-adv-x="616" 
d="M504 0l-96 239h-284q-55 -148 -59 -239h-69q53 109 130 300l8 19l174 425h4l303 -744h-111zM131 257h270l-135 334l-113 -279zM154 824v32h313v-32h-313z" />
    <glyph glyph-name="amacron" unicode="&#x101;" horiz-adv-x="512" 
d="M504 24v-6q-40 -25 -83 -25q-73 0 -79 74q-83 -77 -185 -77q-63 0 -101.5 34t-38.5 89q0 68 60 111.5t166 54.5l60 6l38 3v57q0 83 -30 124t-98 41q-78 0 -150 -60l-9 11q46 43 91.5 62.5t104.5 19.5q186 0 186 -189v-256q0 -46 8 -61t41 -15q3 0 19 2zM341 86v187
q-117 -13 -173.5 -45.5t-56.5 -98.5q0 -49 27 -76t71 -27q70 0 132 60zM102 654v32h275v-32h-275z" />
    <glyph glyph-name="Abreve" unicode="&#x102;" horiz-adv-x="616" 
d="M504 0l-96 239h-284q-55 -148 -59 -239h-69q53 109 130 300l8 19l174 425h4l303 -744h-111zM131 257h270l-135 334l-113 -279zM148 957l9 3q18 -42 60 -68.5t93 -26.5q52 0 94 26.5t60 68.5l9 -3q-41 -148 -163 -148q-121 0 -162 148z" />
    <glyph glyph-name="abreve" unicode="&#x103;" horiz-adv-x="512" 
d="M504 24v-6q-40 -25 -83 -25q-73 0 -79 74q-83 -77 -185 -77q-63 0 -101.5 34t-38.5 89q0 68 60 111.5t166 54.5l60 6l38 3v57q0 83 -30 124t-98 41q-78 0 -150 -60l-9 11q46 43 91.5 62.5t104.5 19.5q186 0 186 -189v-256q0 -46 8 -61t41 -15q3 0 19 2zM341 86v187
q-117 -13 -173.5 -45.5t-56.5 -98.5q0 -49 27 -76t71 -27q70 0 132 60zM84 766l9 3q18 -43 57 -69t89 -26q51 0 90 26t57 69l9 -3q-40 -148 -156 -148q-115 0 -155 148z" />
    <glyph glyph-name="Aogonek" unicode="&#x104;" horiz-adv-x="616" 
d="M634 -174l3 -5q-50 -43 -111 -43q-36 0 -59 20t-23 53q0 38 29 71.5t93 77.5h-62l-96 239h-284q-55 -148 -59 -239h-69q53 109 130 300l8 19l174 425h4l303 -744h-34q-67 -72 -67 -127q0 -29 16 -45.5t42 -16.5q24 0 62 15zM131 257h270l-135 334l-113 -279z" />
    <glyph glyph-name="aogonek" unicode="&#x105;" horiz-adv-x="512" 
d="M505 -174l3 -5q-50 -43 -112 -43q-36 0 -59 20t-23 53q0 36 27 68.5t86 73.5h-6q-73 0 -79 74q-83 -77 -185 -77q-63 0 -101.5 34t-38.5 89q0 68 60 111.5t166 54.5l60 6l38 3v57q0 83 -30 124t-98 41q-78 0 -150 -60l-9 11q46 43 91.5 62.5t104.5 19.5q186 0 186 -189
v-256q0 -46 8 -61t41 -15q3 0 19 2v-6q-28 -16 -56 -22q-63 -68 -63 -123q0 -29 16 -45.5t42 -16.5q25 0 62 15zM341 86v187q-117 -13 -173.5 -45.5t-56.5 -98.5q0 -49 27 -76t71 -27q70 0 132 60z" />
    <glyph glyph-name="Cacute" unicode="&#x106;" horiz-adv-x="702" 
d="M38 358q-2 169 104.5 276.5t265.5 105.5q82 0 154.5 -32t118.5 -85l-50 -45q-41 68 -100.5 107t-127.5 39q-112 0 -182.5 -97t-70.5 -244q0 -161 79 -256t203 -95q159 0 247 137l12 -7q-107 -174 -304 -174q-152 0 -250.5 103t-98.5 267zM386 797l-7 5l70 165h118z" />
    <glyph glyph-name="cacute" unicode="&#x107;" horiz-adv-x="511" 
d="M30 260q-2 122 75.5 203.5t186.5 79.5q131 0 201 -91l-41 -36q-69 112 -155 112q-72 0 -118 -68t-46 -178q0 -118 50.5 -184.5t131.5 -66.5q47 0 93.5 25t78.5 71l12 -7q-87 -132 -223 -132q-107 0 -176.5 76t-69.5 196zM273 606l-7 5l73 174h105z" />
    <glyph glyph-name="Ccircumflex" unicode="&#x108;" horiz-adv-x="702" 
d="M38 358q-2 169 104.5 276.5t265.5 105.5q82 0 154.5 -32t118.5 -85l-50 -45q-41 68 -100.5 107t-127.5 39q-112 0 -182.5 -97t-70.5 -244q0 -161 79 -256t203 -95q159 0 247 137l12 -7q-107 -174 -304 -174q-152 0 -250.5 103t-98.5 267zM569 802l-6 -5l-162 92l-162 -92
l-6 5l165 165h6z" />
    <glyph glyph-name="ccircumflex" unicode="&#x109;" horiz-adv-x="511" 
d="M30 260q-2 122 75.5 203.5t186.5 79.5q131 0 201 -91l-41 -36q-69 112 -155 112q-72 0 -118 -68t-46 -178q0 -118 50.5 -184.5t131.5 -66.5q47 0 93.5 25t78.5 71l12 -7q-87 -132 -223 -132q-107 0 -176.5 76t-69.5 196zM442 611l-6 -5l-148 100l-148 -100l-6 5l151 174
h6z" />
    <glyph glyph-name="Cdotaccent" unicode="&#x10a;" horiz-adv-x="702" 
d="M38 358q-2 169 104.5 276.5t265.5 105.5q82 0 154.5 -32t118.5 -85l-50 -45q-41 68 -100.5 107t-127.5 39q-112 0 -182.5 -97t-70.5 -244q0 -161 79 -256t203 -95q159 0 247 137l12 -7q-107 -174 -304 -174q-152 0 -250.5 103t-98.5 267zM401 811l-71 70l71 71l71 -71z
" />
    <glyph glyph-name="cdotaccent" unicode="&#x10b;" horiz-adv-x="511" 
d="M30 260q-2 122 75.5 203.5t186.5 79.5q131 0 201 -91l-41 -36q-69 112 -155 112q-72 0 -118 -68t-46 -178q0 -118 50.5 -184.5t131.5 -66.5q47 0 93.5 25t78.5 71l12 -7q-87 -132 -223 -132q-107 0 -176.5 76t-69.5 196zM288 619l-68 68l68 68l68 -68z" />
    <glyph glyph-name="Ccaron" unicode="&#x10c;" horiz-adv-x="702" 
d="M38 358q-2 169 104.5 276.5t265.5 105.5q82 0 154.5 -32t118.5 -85l-50 -45q-41 68 -100.5 107t-127.5 39q-112 0 -182.5 -97t-70.5 -244q0 -161 79 -256t203 -95q159 0 247 137l12 -7q-107 -174 -304 -174q-152 0 -250.5 103t-98.5 267zM563 967l6 -5l-165 -165h-6
l-165 165l6 5l162 -92z" />
    <glyph glyph-name="ccaron" unicode="&#x10d;" horiz-adv-x="511" 
d="M30 260q-2 122 75.5 203.5t186.5 79.5q131 0 201 -91l-41 -36q-69 112 -155 112q-72 0 -118 -68t-46 -178q0 -118 50.5 -184.5t131.5 -66.5q47 0 93.5 25t78.5 71l12 -7q-87 -132 -223 -132q-107 0 -176.5 76t-69.5 196zM436 785l6 -5l-151 -174h-6l-151 174l6 5
l148 -100z" />
    <glyph glyph-name="Dcaron" unicode="&#x10e;" horiz-adv-x="752" 
d="M713 372q0 -174 -108.5 -273t-294.5 -99h-238v728h255q177 0 281.5 -94t104.5 -262zM601 367q0 155 -77.5 250t-205.5 95h-144v-687q39 -9 153 -9q131 0 202.5 91.5t71.5 259.5zM473 967l6 -5l-165 -165h-6l-165 165l6 5l162 -92z" />
    <glyph glyph-name="dcaron" unicode="&#x10f;" horiz-adv-x="613" 
d="M552 19l-89 -28l-26 82q-79 -85 -179 -85q-97 0 -162.5 76t-65.5 192q-2 122 75 205.5t183 81.5q86 0 147 -55v292l91 30h4v-719zM435 96v329q-19 46 -56 73.5t-82 27.5q-75 0 -120 -70.5t-45 -189.5q0 -117 42 -181t115 -64q80 0 146 75zM597 624l-4 5q48 28 48 71
q0 46 -58 74l43 47q65 -26 65 -86q0 -32 -26 -61.5t-68 -49.5z" />
    <glyph glyph-name="Dcroat" unicode="&#x110;" horiz-adv-x="757" 
d="M718 372q0 -175 -108 -273.5t-295 -98.5h-238v371h-62v14h62v343h255q177 0 281.5 -94t104.5 -262zM606 367q0 155 -77.5 250t-205.5 95h-144v-327h191v-14h-191v-346q41 -9 153 -9q131 0 202.5 91.5t71.5 259.5z" />
    <glyph glyph-name="dslash" unicode="&#x111;" horiz-adv-x="589" 
d="M592 662h-62v-571l22 -72l-89 -28l-26 82q-79 -85 -179 -85q-97 0 -162.5 76t-65.5 192q-2 122 75 205.5t183 81.5q86 0 147 -55v174h-151v14h151v104l91 30h4v-134h62v-14zM435 96v329q-19 46 -56 73.5t-82 27.5q-75 0 -120 -70.5t-45 -189.5q0 -117 42 -181t115 -64
q80 0 146 75z" />
    <glyph glyph-name="Emacron" unicode="&#x112;" horiz-adv-x="539" 
d="M520 67h2l-19 -67h-431v728h419l12 -63h-2q-133 45 -272 45h-55v-322h46q161 0 210 20h2v-62h-2q-53 24 -210 24h-46v-352h58q153 0 288 49zM127 824v32h313v-32h-313z" />
    <glyph glyph-name="emacron" unicode="&#x113;" horiz-adv-x="541" 
d="M515 303h-384v-18q0 -119 52.5 -186.5t136.5 -67.5q50 0 97.5 25t79.5 71l12 -7q-86 -132 -230 -132q-109 0 -179 74.5t-70 194.5q0 127 76 206.5t193 79.5q104 0 161 -65t55 -175zM132 319h292q4 94 -32.5 151.5t-100.5 57.5q-65 0 -108 -57.5t-51 -151.5zM155 654v32
h275v-32h-275z" />
    <glyph glyph-name="Ebreve" unicode="&#x114;" horiz-adv-x="539" 
d="M520 67h2l-19 -67h-431v728h419l12 -63h-2q-133 45 -272 45h-55v-322h46q161 0 210 20h2v-62h-2q-53 24 -210 24h-46v-352h58q153 0 288 49zM121 957l9 3q18 -42 60 -68.5t93 -26.5q52 0 94 26.5t60 68.5l9 -3q-41 -148 -163 -148q-121 0 -162 148z" />
    <glyph glyph-name="ebreve" unicode="&#x115;" horiz-adv-x="541" 
d="M515 303h-384v-18q0 -119 52.5 -186.5t136.5 -67.5q50 0 97.5 25t79.5 71l12 -7q-86 -132 -230 -132q-109 0 -179 74.5t-70 194.5q0 127 76 206.5t193 79.5q104 0 161 -65t55 -175zM132 319h292q4 94 -32.5 151.5t-100.5 57.5q-65 0 -108 -57.5t-51 -151.5zM137 766l9 3
q18 -43 57 -69t89 -26q51 0 90 26t57 69l9 -3q-40 -148 -156 -148q-115 0 -155 148z" />
    <glyph glyph-name="Edotaccent" unicode="&#x116;" horiz-adv-x="539" 
d="M520 67h2l-19 -67h-431v728h419l12 -63h-2q-133 45 -272 45h-55v-322h46q161 0 210 20h2v-62h-2q-53 24 -210 24h-46v-352h58q153 0 288 49zM283 811l-71 70l71 71l71 -71z" />
    <glyph glyph-name="edotaccent" unicode="&#x117;" horiz-adv-x="541" 
d="M515 303h-384v-18q0 -119 52.5 -186.5t136.5 -67.5q50 0 97.5 25t79.5 71l12 -7q-86 -132 -230 -132q-109 0 -179 74.5t-70 194.5q0 127 76 206.5t193 79.5q104 0 161 -65t55 -175zM132 319h292q4 94 -32.5 151.5t-100.5 57.5q-65 0 -108 -57.5t-51 -151.5zM292 619
l-68 68l68 68l68 -68z" />
    <glyph glyph-name="Eogonek" unicode="&#x118;" horiz-adv-x="539" 
d="M515 -174l3 -5q-50 -43 -112 -43q-36 0 -59 20t-23 53q0 38 29 71.5t94 77.5h-375v728h419l12 -63h-2q-133 45 -272 45h-55v-322h46q161 0 210 20h2v-62h-2q-53 24 -210 24h-46v-352h58q153 0 288 49h2l-19 -67h-41q-67 -72 -67 -127q0 -29 16 -45.5t42 -16.5q25 0 62 15
z" />
    <glyph glyph-name="eogonek" unicode="&#x119;" horiz-adv-x="541" 
d="M515 303h-384v-18q0 -119 52.5 -186.5t136.5 -67.5q50 0 97.5 25t79.5 71l12 -7q-30 -45 -80 -87q-99 -89 -99 -161q0 -28 16 -44.5t42 -16.5q24 0 62 15l3 -5q-50 -43 -111 -43q-36 0 -59 19.5t-23 51.5q0 38 30.5 75t98.5 89q-51 -25 -109 -25q-110 0 -180 74.5
t-70 195.5q0 126 76 205.5t193 79.5q104 0 161 -65t55 -175zM132 319h292q4 94 -32.5 151.5t-100.5 57.5q-65 0 -108 -57.5t-51 -151.5z" />
    <glyph glyph-name="Ecaron" unicode="&#x11a;" horiz-adv-x="539" 
d="M520 67h2l-19 -67h-431v728h419l12 -63h-2q-133 45 -272 45h-55v-322h46q161 0 210 20h2v-62h-2q-53 24 -210 24h-46v-352h58q153 0 288 49zM445 967l6 -5l-165 -165h-6l-165 165l6 5l162 -92z" />
    <glyph glyph-name="ecaron" unicode="&#x11b;" horiz-adv-x="541" 
d="M515 303h-384v-18q0 -119 52.5 -186.5t136.5 -67.5q50 0 97.5 25t79.5 71l12 -7q-86 -132 -230 -132q-109 0 -179 74.5t-70 194.5q0 127 76 206.5t193 79.5q104 0 161 -65t55 -175zM132 319h292q4 94 -32.5 151.5t-100.5 57.5q-65 0 -108 -57.5t-51 -151.5zM440 785l6 -5
l-151 -174h-6l-151 174l6 5l148 -100z" />
    <glyph glyph-name="Gcircumflex" unicode="&#x11c;" horiz-adv-x="753" 
d="M439 330h272v-251q-124 -91 -284 -91q-177 0 -283 99.5t-106 271.5q-2 168 108.5 275.5t274.5 105.5q83 0 155.5 -31.5t118.5 -85.5l-50 -45q-41 69 -101 107.5t-132 38.5q-119 0 -190.5 -97.5t-71.5 -260.5q-2 -158 77.5 -260t204.5 -100q110 0 185 60v246h-167z
M581 802l-6 -5l-162 92l-162 -92l-6 5l165 165h6z" />
    <glyph glyph-name="gcircumflex" unicode="&#x11d;" horiz-adv-x="529" 
d="M513 -49q0 -81 -82 -136t-199 -55q-98 0 -162.5 40t-64.5 104q0 34 16 67l56 16h4q-16 -42 -16 -75q0 -63 44.5 -99.5t122.5 -36.5q99 0 159 37.5t60 99.5q0 82 -131 90l-157 10q-117 6 -117 82q0 50 71 92l20 12q-101 50 -101 159q0 80 61.5 132.5t152.5 52.5
q82 0 137 -40q51 72 134 72l-9 -80q-36 11 -58 11q-35 0 -54 -13q61 -50 61 -134q0 -80 -61.5 -132t-152.5 -52q-48 0 -93 17l-22 -15q-29 -20 -29 -45q0 -35 70 -39l165 -10q175 -11 175 -132zM126 359q0 -75 33.5 -121.5t89.5 -46.5q57 0 89.5 45.5t32.5 121.5
t-33.5 122.5t-89.5 46.5t-89 -46t-33 -122zM403 611l-6 -5l-148 100l-148 -100l-6 5l151 174h6z" />
    <glyph glyph-name="Gbreve" unicode="&#x11e;" horiz-adv-x="753" 
d="M439 330h272v-251q-124 -91 -284 -91q-177 0 -283 99.5t-106 271.5q-2 168 108.5 275.5t274.5 105.5q83 0 155.5 -31.5t118.5 -85.5l-50 -45q-41 69 -101 107.5t-132 38.5q-119 0 -190.5 -97.5t-71.5 -260.5q-2 -158 77.5 -260t204.5 -100q110 0 185 60v246h-167z
M251 957l9 3q18 -42 60 -68.5t93 -26.5q52 0 94 26.5t60 68.5l9 -3q-41 -148 -163 -148q-121 0 -162 148z" />
    <glyph glyph-name="gbreve" unicode="&#x11f;" horiz-adv-x="529" 
d="M513 -49q0 -81 -82 -136t-199 -55q-98 0 -162.5 40t-64.5 104q0 34 16 67l56 16h4q-16 -42 -16 -75q0 -63 44.5 -99.5t122.5 -36.5q99 0 159 37.5t60 99.5q0 82 -131 90l-157 10q-117 6 -117 82q0 50 71 92l20 12q-101 50 -101 159q0 80 61.5 132.5t152.5 52.5
q82 0 137 -40q51 72 134 72l-9 -80q-36 11 -58 11q-35 0 -54 -13q61 -50 61 -134q0 -80 -61.5 -132t-152.5 -52q-48 0 -93 17l-22 -15q-29 -20 -29 -45q0 -35 70 -39l165 -10q175 -11 175 -132zM126 359q0 -75 33.5 -121.5t89.5 -46.5q57 0 89.5 45.5t32.5 121.5
t-33.5 122.5t-89.5 46.5t-89 -46t-33 -122zM94 766l9 3q18 -43 57 -69t89 -26q51 0 90 26t57 69l9 -3q-40 -148 -156 -148q-115 0 -155 148z" />
    <glyph glyph-name="Gdotaccent" unicode="&#x120;" horiz-adv-x="753" 
d="M439 330h272v-251q-124 -91 -284 -91q-177 0 -283 99.5t-106 271.5q-2 168 108.5 275.5t274.5 105.5q83 0 155.5 -31.5t118.5 -85.5l-50 -45q-41 69 -101 107.5t-132 38.5q-119 0 -190.5 -97.5t-71.5 -260.5q-2 -158 77.5 -260t204.5 -100q110 0 185 60v246h-167z
M413 811l-71 70l71 71l71 -71z" />
    <glyph glyph-name="gdotaccent" unicode="&#x121;" horiz-adv-x="529" 
d="M513 -49q0 -81 -82 -136t-199 -55q-98 0 -162.5 40t-64.5 104q0 34 16 67l56 16h4q-16 -42 -16 -75q0 -63 44.5 -99.5t122.5 -36.5q99 0 159 37.5t60 99.5q0 82 -131 90l-157 10q-117 6 -117 82q0 50 71 92l20 12q-101 50 -101 159q0 80 61.5 132.5t152.5 52.5
q82 0 137 -40q51 72 134 72l-9 -80q-36 11 -58 11q-35 0 -54 -13q61 -50 61 -134q0 -80 -61.5 -132t-152.5 -52q-48 0 -93 17l-22 -15q-29 -20 -29 -45q0 -35 70 -39l165 -10q175 -11 175 -132zM126 359q0 -75 33.5 -121.5t89.5 -46.5q57 0 89.5 45.5t32.5 121.5
t-33.5 122.5t-89.5 46.5t-89 -46t-33 -122zM249 619l-68 68l68 68l68 -68z" />
    <glyph glyph-name="uni0122" unicode="&#x122;" horiz-adv-x="753" 
d="M439 330h272v-251q-124 -91 -284 -91q-177 0 -283 99.5t-106 271.5q-2 168 108.5 275.5t274.5 105.5q83 0 155.5 -31.5t118.5 -85.5l-50 -45q-41 69 -101 107.5t-132 38.5q-119 0 -190.5 -97.5t-71.5 -260.5q-2 -158 77.5 -260t204.5 -100q110 0 185 60v246h-167z
M395 -276l-5 6q55 33 55 82q0 52 -66 86l48 53q34 -14 53 -40t19 -58q0 -38 -29 -72.5t-75 -56.5z" />
    <glyph glyph-name="uni0123" unicode="&#x123;" horiz-adv-x="529" 
d="M513 -49q0 -81 -82 -136t-199 -55q-98 0 -162.5 40t-64.5 104q0 34 16 67l56 16h4q-16 -42 -16 -75q0 -63 44.5 -99.5t122.5 -36.5q99 0 159 37.5t60 99.5q0 82 -131 90l-157 10q-117 6 -117 82q0 50 71 92l20 12q-101 50 -101 159q0 80 61.5 132.5t152.5 52.5
q82 0 137 -40q51 72 134 72l-9 -80q-36 11 -58 11q-35 0 -54 -13q61 -50 61 -134q0 -80 -61.5 -132t-152.5 -52q-48 0 -93 17l-22 -15q-29 -20 -29 -45q0 -35 70 -39l165 -10q175 -11 175 -132zM126 359q0 -75 33.5 -121.5t89.5 -46.5q57 0 89.5 45.5t32.5 121.5
t-33.5 122.5t-89.5 46.5t-89 -46t-33 -122zM195 697q0 33 25.5 62t67.5 49l5 -5q-49 -27 -49 -71q0 -46 58 -74l-43 -47q-64 26 -64 86z" />
    <glyph glyph-name="Hcircumflex" unicode="&#x124;" horiz-adv-x="704" 
d="M530 728h102v-728h-102v370h-356v-370h-102v728h102v-340h356v340zM520 802l-6 -5l-162 92l-162 -92l-6 5l165 165h6z" />
    <glyph glyph-name="hcircumflex" unicode="&#x125;" horiz-adv-x="572" 
d="M517 354v-354h-94v356q0 58 -21 104q-21 47 -96 47q-80 0 -154 -71v-436h-94v780l90 30h4v-355q89 88 195 88q170 0 170 -189zM282 802l-6 -5l-162 92l-162 -92l-6 5l165 165h6z" />
    <glyph glyph-name="Hbar" unicode="&#x126;" horiz-adv-x="709" 
d="M697 578v-14h-62v-564h-102v370h-356v-370h-102v564h-62v14h62v150h102v-150h356v150h102v-150h62zM533 388v176h-356v-176h356z" />
    <glyph glyph-name="hbar" unicode="&#x127;" horiz-adv-x="572" 
d="M517 354v-354h-94v356q0 58 -21 104q-21 47 -96 47q-80 0 -154 -71v-436h-94v662h-62v14h62v104l90 30h4v-134h151v-14h-151v-207q89 88 195 88q170 0 170 -189z" />
    <glyph glyph-name="Itilde" unicode="&#x128;" horiz-adv-x="246" 
d="M72 0v728h102v-728h-102zM-42 809l-9 3q14 111 87 111q32 0 107 -32q66 -26 85 -26q44 0 60 58l10 -2q-16 -112 -88 -112q-31 0 -105 31q-58 27 -86 27q-45 0 -61 -58z" />
    <glyph glyph-name="itilde" unicode="&#x129;" horiz-adv-x="215" 
d="M60 0v515l90 27h4v-542h-94zM-51 618l-10 2q16 112 88 112q36 0 100 -32q60 -26 78 -26q45 0 61 58l9 -2q-14 -112 -88 -112q-33 0 -99 32q-60 26 -78 26q-45 0 -61 -58z" />
    <glyph glyph-name="Imacron" unicode="&#x12a;" horiz-adv-x="246" 
d="M72 0v728h102v-728h-102zM-33 824v32h313v-32h-313z" />
    <glyph glyph-name="imacron" unicode="&#x12b;" horiz-adv-x="215" 
d="M60 0v515l90 27h4v-542h-94zM-30 654v32h275v-32h-275z" />
    <glyph glyph-name="Ibreve" unicode="&#x12c;" horiz-adv-x="246" 
d="M72 0v728h102v-728h-102zM-39 957l9 3q18 -42 60 -68.5t93 -26.5q52 0 94 26.5t60 68.5l9 -3q-41 -148 -163 -148q-121 0 -162 148z" />
    <glyph glyph-name="ibreve" unicode="&#x12d;" horiz-adv-x="215" 
d="M60 0v515l90 27h4v-542h-94zM-48 766l9 3q18 -43 57 -69t89 -26q51 0 90 26t57 69l9 -3q-40 -148 -156 -148q-115 0 -155 148z" />
    <glyph glyph-name="Iogonek" unicode="&#x12e;" horiz-adv-x="246" 
d="M197 -174l3 -5q-50 -43 -111 -43q-36 0 -59 20t-23 53q0 38 29 71.5t93 77.5h-57v728h102v-728h-30q-67 -72 -67 -127q0 -29 16 -45.5t42 -16.5q25 0 62 15z" />
    <glyph glyph-name="iogonek" unicode="&#x12f;" horiz-adv-x="215" 
d="M175 694l-68 -68l-68 68l68 68zM180 -174l3 -5q-48 -43 -111 -43q-36 0 -59 20t-23 53q0 38 29 71.5t94 77.5h-53v515l90 27h4v-542h-26q-68 -71 -68 -127q0 -29 16 -45.5t42 -16.5t62 15z" />
    <glyph glyph-name="Idot" unicode="&#x130;" horiz-adv-x="246" 
d="M72 0v728h102v-728h-102zM123 811l-71 70l71 71l71 -71z" />
    <glyph glyph-name="dotlessi" unicode="&#x131;" horiz-adv-x="215" 
d="M60 0v515l90 27h4v-542h-94z" />
    <glyph glyph-name="IJ" unicode="&#x132;" horiz-adv-x="477" 
d="M72 0v728h102v-728h-102zM164 -150l-7 12q66 42 97 87q32 47 42 108q10 59 10 163v508h102v-500q0 -115 -29 -187q-28 -69 -78 -110q-49 -40 -137 -81z" />
    <glyph glyph-name="ij" unicode="&#x133;" horiz-adv-x="423" 
d="M107 626l-68 68l68 68l68 -68zM60 0v515l90 27h4v-542h-94zM315 626l-68 68l68 68l68 -68zM146 -228l-4 12q59 13 92.5 66t33.5 133v532l91 27h4v-552q0 -92 -63 -148q-62 -56 -154 -70z" />
    <glyph glyph-name="Jcircumflex" unicode="&#x134;" horiz-adv-x="249" 
d="M-63 -150l-7 12q66 42 97 87q31 47 42 108q10 59 10 163v508h102v-500q0 -115 -29 -187q-28 -69 -78 -110q-49 -40 -137 -81zM298 802l-6 -5l-162 92l-162 -92l-6 5l165 165h6z" />
    <glyph glyph-name="jcircumflex" unicode="&#x135;" horiz-adv-x="220" 
d="M-57 -228l-4 12q59 13 92.5 66t33.5 133v532l91 27h4v-552q0 -92 -63 -148q-62 -56 -154 -70zM266 611l-6 -5l-148 100l-148 -100l-6 5l151 174h6z" />
    <glyph glyph-name="uni0136" unicode="&#x136;" horiz-adv-x="637" 
d="M72 0v728h102v-728h-102zM362 494l-72 -69l331 -318v-129h-6l-409 395l143 136q145 137 192 219h80v-2q-119 -99 -259 -232zM290 -276l-5 6q55 33 55 82q0 52 -66 86l48 53q34 -14 53 -40t19 -58q0 -38 -29 -72.5t-75 -56.5z" />
    <glyph glyph-name="uni0137" unicode="&#x137;" horiz-adv-x="513" 
d="M58 780l90 30h4v-810h-94v780zM259 345l241 -240v-127h-5l-317 322l88 76q59 51 99 89q35 33 63 66h69v-2q-114 -75 -220 -168zM221 -276l-5 6q55 33 55 82q0 52 -66 86l48 53q34 -14 53 -40t19 -58q0 -38 -29 -72.5t-75 -56.5z" />
    <glyph glyph-name="kgreenlandic" unicode="&#x138;" horiz-adv-x="513" 
d="M57 515l91 27h4v-542h-95v515zM258 345l241 -240v-127h-4l-318 322l88 76q59 51 99 89q34 33 63 66h69v-2q-111 -72 -220 -168z" />
    <glyph glyph-name="Lacute" unicode="&#x139;" horiz-adv-x="450" 
d="M437 75h2l-19 -75h-348v728h102v-710h19q115 0 244 57zM108 797l-7 5l70 165h118z" />
    <glyph glyph-name="lacute" unicode="&#x13a;" horiz-adv-x="215" 
d="M60 0v780l91 30h4v-810h-95zM92 797l-7 5l70 165h118z" />
    <glyph glyph-name="uni013B" unicode="&#x13b;" horiz-adv-x="450" 
d="M437 75h2l-19 -75h-348v728h102v-710h19q115 0 244 57zM215 -276l-5 6q55 33 55 82q0 52 -66 86l48 53q34 -14 53 -40t19 -58q0 -38 -29 -72.5t-75 -56.5z" />
    <glyph glyph-name="uni013C" unicode="&#x13c;" horiz-adv-x="215" 
d="M60 0v780l91 30h4v-810h-95zM69 -276l-5 6q55 33 55 82q0 52 -66 86l48 53q34 -14 53 -40t19 -58q0 -38 -29 -72.5t-75 -56.5z" />
    <glyph glyph-name="Lcaron" unicode="&#x13d;" horiz-adv-x="470" 
d="M437 75h2l-19 -75h-348v728h102v-710h19q115 0 244 57zM340 549l-4 5q48 28 48 71q0 46 -58 74l43 47q65 -26 65 -86q0 -32 -26 -61.5t-68 -49.5z" />
    <glyph glyph-name="lcaron" unicode="&#x13e;" horiz-adv-x="237" 
d="M60 0v780l91 30h4v-810h-95zM222 624l-4 5q48 28 48 71q0 46 -58 74l43 47q65 -26 65 -86q0 -32 -26 -61.5t-68 -49.5z" />
    <glyph glyph-name="Ldot" unicode="&#x13f;" horiz-adv-x="470" 
d="M437 75h2l-19 -75h-348v728h102v-710h19q115 0 244 57zM369 341l-71 70l71 71l71 -71z" />
    <glyph glyph-name="ldot" unicode="&#x140;" horiz-adv-x="347" 
d="M60 0v780l91 30h4v-810h-95zM279 321l-71 70l71 71l71 -71z" />
    <glyph glyph-name="Lslash" unicode="&#x141;" horiz-adv-x="464" 
d="M449 75h2l-20 -75h-348v299l-55 -32l-7 12l62 36v413h102v-355l170 98l7 -12l-177 -102v-339h20q115 0 244 57z" />
    <glyph glyph-name="lslash" unicode="&#x142;" horiz-adv-x="249" 
d="M233 433l-62 -36v-397h-94v343l-55 -32l-7 12l62 36v421l90 30h4v-397l55 32z" />
    <glyph glyph-name="Nacute" unicode="&#x143;" horiz-adv-x="653" 
d="M537 728h60q-20 -126 -20 -318v-422h-9l-463 641v-311q0 -201 20 -318h-60q20 126 20 318v339l-49 68v3h121l400 -564v246q0 201 -20 318zM307 797l-7 5l70 165h118z" />
    <glyph glyph-name="nacute" unicode="&#x144;" horiz-adv-x="571" 
d="M517 354v-354h-95v356q0 58 -21 104q-21 47 -96 47q-80 0 -153 -71v-436h-95v515l91 27h4v-86q92 87 194 87q171 0 171 -189zM276 606l-7 5l73 174h105z" />
    <glyph glyph-name="uni0145" unicode="&#x145;" horiz-adv-x="653" 
d="M537 728h60q-20 -126 -20 -318v-422h-9l-463 641v-311q0 -201 20 -318h-60q20 126 20 318v339l-49 68v3h121l400 -564v246q0 201 -20 318zM284 -276l-5 6q55 33 55 82q0 52 -66 86l48 53q34 -14 53 -40t19 -58q0 -38 -29 -72.5t-75 -56.5z" />
    <glyph glyph-name="uni0146" unicode="&#x146;" horiz-adv-x="571" 
d="M517 354v-354h-95v356q0 58 -21 104q-21 47 -96 47q-80 0 -153 -71v-436h-95v515l91 27h4v-86q92 87 194 87q171 0 171 -189zM248 -276l-5 6q55 33 55 82q0 52 -66 86l48 53q34 -14 53 -40t19 -58q0 -38 -29 -72.5t-75 -56.5z" />
    <glyph glyph-name="Ncaron" unicode="&#x147;" horiz-adv-x="653" 
d="M537 728h60q-20 -126 -20 -318v-422h-9l-463 641v-311q0 -201 20 -318h-60q20 126 20 318v339l-49 68v3h121l400 -564v246q0 201 -20 318zM485 967l6 -5l-165 -165h-6l-165 165l6 5l162 -92z" />
    <glyph glyph-name="ncaron" unicode="&#x148;" horiz-adv-x="571" 
d="M517 354v-354h-95v356q0 58 -21 104q-21 47 -96 47q-80 0 -153 -71v-436h-95v515l91 27h4v-86q92 87 194 87q171 0 171 -189zM439 785l6 -5l-151 -174h-6l-151 174l6 5l148 -100z" />
    <glyph glyph-name="napostrophe" unicode="&#x149;" horiz-adv-x="597" 
d="M-26 496l-5 7q59 36 59 90q0 57 -72 102l52 65q40 -16 63 -46.5t23 -68.5q0 -44 -33 -83.5t-87 -65.5zM543 354v-354h-95v356q0 58 -21 104q-21 47 -96 47q-80 0 -153 -71v-436h-95v515l91 27h4v-86q92 87 194 87q171 0 171 -189z" />
    <glyph glyph-name="Eng" unicode="&#x14a;" horiz-adv-x="653" 
d="M537 728h60q-20 -126 -20 -318v-445q0 -82 -36.5 -131.5t-105.5 -61.5l-4 12q61 11 93.5 57t32.5 124v38l-452 626v-311q0 -201 20 -318h-60q20 126 20 318v339l-49 68v3h121l400 -564v246q0 201 -20 318z" />
    <glyph glyph-name="eng" unicode="&#x14b;" horiz-adv-x="571" 
d="M517 354v-364q0 -92 -63 -148q-62 -56 -155 -70l-3 13q59 12 92.5 65t33.5 133v373q0 58 -21 104q-21 47 -96 47q-80 0 -153 -71v-436h-95v515l91 27h4v-86q92 87 194 87q171 0 171 -189z" />
    <glyph glyph-name="Omacron" unicode="&#x14c;" horiz-adv-x="831" 
d="M37 357q-2 168 109.5 276.5t275.5 106.5q161 0 266.5 -101.5t105.5 -267.5q2 -168 -109.5 -276.5t-275.5 -106.5q-161 0 -266.5 101.5t-105.5 267.5zM682 360q0 162 -75 263t-193 101q-120 0 -192.5 -98t-72.5 -258q0 -162 75.5 -263t195.5 -101q118 0 190 98t72 258z
M260 824v32h313v-32h-313z" />
    <glyph glyph-name="omacron" unicode="&#x14d;" horiz-adv-x="597" 
d="M30 262q0 125 77.5 203t195.5 78q116 0 190 -75.5t74 -199.5t-77.5 -202t-195.5 -78q-116 0 -190 75t-74 199zM465 262q0 119 -47 193t-121 74q-75 0 -120 -72t-45 -189q0 -119 47 -192.5t121 -73.5q75 0 120 71t45 189zM162 654v32h275v-32h-275z" />
    <glyph glyph-name="Obreve" unicode="&#x14e;" horiz-adv-x="831" 
d="M37 357q-2 168 109.5 276.5t275.5 106.5q161 0 266.5 -101.5t105.5 -267.5q2 -168 -109.5 -276.5t-275.5 -106.5q-161 0 -266.5 101.5t-105.5 267.5zM682 360q0 162 -75 263t-193 101q-120 0 -192.5 -98t-72.5 -258q0 -162 75.5 -263t195.5 -101q118 0 190 98t72 258z
M254 957l9 3q18 -42 60 -68.5t93 -26.5q52 0 94 26.5t60 68.5l9 -3q-41 -148 -163 -148q-121 0 -162 148z" />
    <glyph glyph-name="obreve" unicode="&#x14f;" horiz-adv-x="597" 
d="M30 262q0 125 77.5 203t195.5 78q116 0 190 -75.5t74 -199.5t-77.5 -202t-195.5 -78q-116 0 -190 75t-74 199zM465 262q0 119 -47 193t-121 74q-75 0 -120 -72t-45 -189q0 -119 47 -192.5t121 -73.5q75 0 120 71t45 189zM144 766l9 3q18 -43 57 -69t89 -26q51 0 90 26
t57 69l9 -3q-40 -148 -156 -148q-115 0 -155 148z" />
    <glyph glyph-name="Ohungarumlaut" unicode="&#x150;" horiz-adv-x="831" 
d="M37 357q-2 168 109.5 276.5t275.5 106.5q161 0 266.5 -101.5t105.5 -267.5q2 -168 -109.5 -276.5t-275.5 -106.5q-161 0 -266.5 101.5t-105.5 267.5zM682 360q0 162 -75 263t-193 101q-120 0 -192.5 -98t-72.5 -258q0 -162 75.5 -263t195.5 -101q118 0 190 98t72 258z
M334 797l-7 5l72 165h101zM470 797l-7 5l73 165h100z" />
    <glyph glyph-name="ohungarumlaut" unicode="&#x151;" horiz-adv-x="597" 
d="M30 262q0 125 77.5 203t195.5 78q116 0 190 -75.5t74 -199.5t-77.5 -202t-195.5 -78q-116 0 -190 75t-74 199zM465 262q0 119 -47 193t-121 74q-75 0 -120 -72t-45 -189q0 -119 47 -192.5t121 -73.5q75 0 120 71t45 189zM216 606l-7 5l74 174h94zM353 606l-7 5l74 174h94
z" />
    <glyph glyph-name="OE" unicode="&#x152;" horiz-adv-x="1044" 
d="M1025 67h2l-19 -67h-584q-177 0 -281.5 94t-104.5 262q0 175 108 273.5t295 98.5h554l13 -63h-2q-133 45 -272 45h-55v-322h46q159 0 210 20h2v-62h-2q-56 24 -210 24h-46v-352h57q154 0 289 49zM433 16q105 0 144 9v678q-41 9 -153 9q-131 0 -202.5 -91.5t-71.5 -259.5
q0 -155 77.5 -250t205.5 -95z" />
    <glyph glyph-name="oe" unicode="&#x153;" horiz-adv-x="976" 
d="M950 303h-384v-18q0 -119 52.5 -186.5t136.5 -67.5q50 0 97.5 25t79.5 71l12 -7q-86 -132 -230 -132q-135 0 -202 111q-73 -111 -218 -111q-116 0 -190 75t-74 199q0 125 77.5 203t195.5 78q146 0 215 -114q34 54 90.5 84t125.5 30q104 0 161 -65t55 -175zM465 262
q0 119 -47 193t-121 74q-75 0 -120 -72t-45 -189q0 -119 47 -192.5t121 -73.5q75 0 120 71t45 189zM567 319h292q4 94 -32.5 151.5t-100.5 57.5q-65 0 -108 -57.5t-51 -151.5z" />
    <glyph glyph-name="Racute" unicode="&#x154;" horiz-adv-x="616" 
d="M371 354l224 -249v-127h-6l-296 330q-12 12 -22 16.5t-30 4.5h-67v-329h-102v728h179q295 0 295 -184q0 -129 -175 -190zM443 537q0 83 -50.5 129t-145.5 46h-73v-361q31 -6 92 -6q78 0 127.5 55.5t49.5 136.5zM259 797l-7 5l70 165h118z" />
    <glyph glyph-name="racute" unicode="&#x155;" horiz-adv-x="362" 
d="M360 535l-28 -74q-27 12 -55 12q-39 0 -72.5 -25t-52.5 -67v-381h-95v515l89 27h4v-132q28 63 70 97t93 34q23 0 47 -6zM169 606l-7 5l73 174h105z" />
    <glyph glyph-name="uni0156" unicode="&#x156;" horiz-adv-x="616" 
d="M371 354l224 -249v-127h-6l-296 330q-12 12 -22 16.5t-30 4.5h-67v-329h-102v728h179q295 0 295 -184q0 -129 -175 -190zM443 537q0 83 -50.5 129t-145.5 46h-73v-361q31 -6 92 -6q78 0 127.5 55.5t49.5 136.5zM275 -276l-5 6q55 33 55 82q0 52 -66 86l48 53
q34 -14 53 -40t19 -58q0 -38 -29 -72.5t-75 -56.5z" />
    <glyph glyph-name="uni0157" unicode="&#x157;" horiz-adv-x="362" 
d="M360 535l-28 -74q-27 12 -55 12q-39 0 -72.5 -25t-52.5 -67v-381h-95v515l89 27h4v-132q28 63 70 97t93 34q23 0 47 -6zM65 -276l-5 6q55 33 55 82q0 52 -66 86l48 53q34 -14 53 -40t19 -58q0 -38 -29 -72.5t-75 -56.5z" />
    <glyph glyph-name="Rcaron" unicode="&#x158;" horiz-adv-x="616" 
d="M371 354l224 -249v-127h-6l-296 330q-12 12 -22 16.5t-30 4.5h-67v-329h-102v728h179q295 0 295 -184q0 -129 -175 -190zM443 537q0 83 -50.5 129t-145.5 46h-73v-361q31 -6 92 -6q78 0 127.5 55.5t49.5 136.5zM436 967l6 -5l-165 -165h-6l-165 165l6 5l162 -92z" />
    <glyph glyph-name="rcaron" unicode="&#x159;" horiz-adv-x="362" 
d="M360 535l-28 -74q-27 12 -55 12q-39 0 -72.5 -25t-52.5 -67v-381h-95v515l89 27h4v-132q28 63 70 97t93 34q23 0 47 -6zM332 785l6 -5l-151 -174h-6l-151 174l6 5l148 -100z" />
    <glyph glyph-name="Sacute" unicode="&#x15a;" horiz-adv-x="540" 
d="M33 41l18 63q36 -44 99 -72t125 -28q73 0 117 40q46 40 46 102q-3 64 -40.5 99t-119.5 74l-50 22q-56 26 -91 48q-93 60 -93 159q0 83 64 137.5t166 54.5q113 0 204 -53l-16 -56q-91 93 -199 93q-66 0 -106 -36t-40 -92q3 -58 38 -90t118 -71l50 -23q67 -33 97 -53
q90 -56 90 -161q0 -93 -69 -151.5t-175 -58.5q-63 0 -128 16q-64 16 -105 37zM257 797l-7 5l70 165h118z" />
    <glyph glyph-name="sacute" unicode="&#x15b;" horiz-adv-x="437" 
d="M23 36l15 51q73 -85 184 -85q59 0 94.5 28.5t35.5 73.5q-3 43 -29.5 65t-94.5 51l-41 17q-37 15 -78 37q-76 46 -76 123q0 64 51.5 105t134.5 41q100 0 173 -42l-14 -47q-75 75 -168 75q-52 0 -82.5 -25.5t-30.5 -65.5q0 -29 18 -50q17 -19 36.5 -30t70.5 -32l40 -17
q43 -17 76 -36q78 -46 78 -127q0 -70 -55 -114t-149 -44q-51 0 -103.5 13t-85.5 35zM199 606l-7 5l73 174h105z" />
    <glyph glyph-name="Scircumflex" unicode="&#x15c;" horiz-adv-x="540" 
d="M33 41l18 63q36 -44 99 -72t125 -28q73 0 117 40q46 40 46 102q-3 64 -40.5 99t-119.5 74l-50 22q-56 26 -91 48q-93 60 -93 159q0 83 64 137.5t166 54.5q113 0 204 -53l-16 -56q-91 93 -199 93q-66 0 -106 -36t-40 -92q3 -58 38 -90t118 -71l50 -23q67 -33 97 -53
q90 -56 90 -161q0 -93 -69 -151.5t-175 -58.5q-63 0 -128 16q-64 16 -105 37zM440 802l-6 -5l-162 92l-162 -92l-6 5l165 165h6z" />
    <glyph glyph-name="scircumflex" unicode="&#x15d;" horiz-adv-x="437" 
d="M23 36l15 51q73 -85 184 -85q59 0 94.5 28.5t35.5 73.5q-3 43 -29.5 65t-94.5 51l-41 17q-37 15 -78 37q-76 46 -76 123q0 64 51.5 105t134.5 41q100 0 173 -42l-14 -47q-75 75 -168 75q-52 0 -82.5 -25.5t-30.5 -65.5q0 -29 18 -50q17 -19 36.5 -30t70.5 -32l40 -17
q43 -17 76 -36q78 -46 78 -127q0 -70 -55 -114t-149 -44q-51 0 -103.5 13t-85.5 35zM368 611l-6 -5l-148 100l-148 -100l-6 5l151 174h6z" />
    <glyph glyph-name="Scedilla" unicode="&#x15e;" horiz-adv-x="540" 
d="M279 -12l-18 -39q53 -4 84 -27.5t31 -57.5q0 -38 -32 -62t-82 -24t-82 18l3 9q25 -9 63 -9q33 0 53 14.5t20 36.5q0 21 -20.5 35t-55.5 14h-25l41 92q-64 2 -124 17q-65 17 -102 36l18 63q36 -44 99 -72t125 -28q73 0 117 40q46 40 46 102q-3 64 -40.5 99t-119.5 74
l-50 22q-56 26 -91 48q-93 60 -93 159q0 83 64 137.5t166 54.5q113 0 204 -53l-16 -56q-91 93 -199 93q-66 0 -106 -36t-40 -92q3 -58 38 -90t118 -71l50 -23q67 -33 97 -53q90 -56 90 -161q0 -89 -65 -148t-166 -62z" />
    <glyph glyph-name="scedilla" unicode="&#x15f;" horiz-adv-x="437" 
d="M224 -12l-19 -39q53 -4 84 -27.5t31 -57.5q0 -38 -31.5 -62t-81.5 -24q-51 0 -83 18l3 9q25 -9 63 -9q33 0 53 14.5t20 36.5t-20.5 35.5t-55.5 13.5h-25l42 92q-115 5 -181 48l15 51q73 -85 184 -85q59 0 94.5 28.5t35.5 73.5q-3 43 -29.5 65t-94.5 51l-41 17
q-37 15 -78 37q-76 46 -76 123q0 64 51.5 105t134.5 41q100 0 173 -42l-14 -47q-75 75 -168 75q-52 0 -82.5 -25.5t-30.5 -65.5q0 -29 18 -50q17 -19 36.5 -30t70.5 -32l40 -17q43 -17 76 -36q78 -46 78 -127q0 -68 -52 -111.5t-140 -46.5z" />
    <glyph glyph-name="Scaron" unicode="&#x160;" horiz-adv-x="540" 
d="M33 41l18 63q36 -44 99 -72t125 -28q73 0 117 40q46 40 46 102q-3 64 -40.5 99t-119.5 74l-50 22q-56 26 -91 48q-93 60 -93 159q0 83 64 137.5t166 54.5q113 0 204 -53l-16 -56q-91 93 -199 93q-66 0 -106 -36t-40 -92q3 -58 38 -90t118 -71l50 -23q67 -33 97 -53
q90 -56 90 -161q0 -93 -69 -151.5t-175 -58.5q-63 0 -128 16q-64 16 -105 37zM434 967l6 -5l-165 -165h-6l-165 165l6 5l162 -92z" />
    <glyph glyph-name="scaron" unicode="&#x161;" horiz-adv-x="437" 
d="M23 36l15 51q73 -85 184 -85q59 0 94.5 28.5t35.5 73.5q-3 43 -29.5 65t-94.5 51l-41 17q-37 15 -78 37q-76 46 -76 123q0 64 51.5 105t134.5 41q100 0 173 -42l-14 -47q-75 75 -168 75q-52 0 -82.5 -25.5t-30.5 -65.5q0 -29 18 -50q17 -19 36.5 -30t70.5 -32l40 -17
q43 -17 76 -36q78 -46 78 -127q0 -70 -55 -114t-149 -44q-51 0 -103.5 13t-85.5 35zM362 785l6 -5l-151 -174h-6l-151 174l6 5l148 -100z" />
    <glyph glyph-name="uni0162" unicode="&#x162;" horiz-adv-x="563" 
d="M541 728l13 -71h-2q-115 53 -196 53h-23v-710h-102v710h-24q-81 0 -196 -53h-2l14 71h518zM389 -136q0 -38 -31.5 -62t-81.5 -24q-51 0 -82 18l3 9q25 -9 63 -9q33 0 53 14.5t20 36.5q0 21 -20.5 35t-55.5 14h-26l47 104h20l-23 -51q53 -4 83.5 -27.5t30.5 -57.5z" />
    <glyph glyph-name="uni0163" unicode="&#x163;" horiz-adv-x="356" 
d="M334 -136q0 -38 -32 -62t-82 -24t-82 18l3 9q25 -9 63 -9q33 0 53 14.5t20 36.5q0 21 -20.5 35t-55.5 14h-25l41 92q-123 4 -123 137v384h-77v17l73 5l95 170h4v-170h171l-13 -22h-158v-382q0 -40 14 -73q15 -32 67 -32q43 0 86 25l8 -12q-66 -43 -127 -47l-18 -39
q53 -4 84 -27.5t31 -57.5z" />
    <glyph glyph-name="Tcaron" unicode="&#x164;" horiz-adv-x="563" 
d="M541 728l13 -71h-2q-115 53 -196 53h-23v-710h-102v710h-24q-81 0 -196 -53h-2l14 71h518zM444 967l6 -5l-165 -165h-6l-165 165l6 5l162 -92z" />
    <glyph glyph-name="tcaron" unicode="&#x165;" horiz-adv-x="356" 
d="M356 47l8 -12q-71 -47 -140 -47q-130 0 -130 137v384h-77v17l73 5l95 170h4v-170h171l-13 -22h-158v-382q0 -40 14 -73q15 -32 67 -32q43 0 86 25zM290 576l-4 5q48 28 48 71q0 46 -58 74l43 47q65 -26 65 -86q0 -32 -26 -61.5t-68 -49.5z" />
    <glyph glyph-name="Tbar" unicode="&#x166;" horiz-adv-x="578" 
d="M363 710h-23v-325h128v-14h-128v-371h-102v371h-128v14h128v325h-23q-82 0 -197 -53h-2l14 71h518l14 -71h-2q-115 53 -197 53z" />
    <glyph glyph-name="tbar" unicode="&#x167;" horiz-adv-x="369" 
d="M364 47l8 -12q-71 -47 -140 -47q-130 0 -130 137v195h-77v15h77v174h-77v17l73 5l94 170h4v-170h172l-14 -22h-158v-174h168v-15h-168v-193q0 -40 14 -73q15 -32 68 -32q43 0 86 25z" />
    <glyph glyph-name="Utilde" unicode="&#x168;" horiz-adv-x="659" 
d="M66 250v478h102v-476q0 -116 51 -175t148 -59q96 0 148 58.5t52 170.5v163q0 201 -20 318h60q-20 -126 -20 -318v-158q0 -264 -257 -264q-130 0 -197 67t-67 195zM175 809l-9 3q14 111 87 111q32 0 107 -32q66 -26 85 -26q44 0 60 58l10 -2q-16 -112 -88 -112
q-31 0 -105 31q-58 27 -86 27q-45 0 -61 -58z" />
    <glyph glyph-name="utilde" unicode="&#x169;" horiz-adv-x="569" 
d="M510 91l22 -72l-89 -28l-28 87v2q-85 -92 -192 -92q-171 0 -171 188v339l91 27h4v-368q0 -58 21 -105q21 -46 96 -46q37 0 77.5 21.5t73.5 58.5v412l91 27h4v-451zM124 618l-10 2q16 112 88 112q36 0 100 -32q60 -26 78 -26q45 0 61 58l9 -2q-14 -112 -88 -112
q-33 0 -99 32q-60 26 -78 26q-45 0 -61 -58z" />
    <glyph glyph-name="Umacron" unicode="&#x16a;" horiz-adv-x="659" 
d="M66 250v478h102v-476q0 -116 51 -175t148 -59q96 0 148 58.5t52 170.5v163q0 201 -20 318h60q-20 -126 -20 -318v-158q0 -264 -257 -264q-130 0 -197 67t-67 195zM184 824v32h313v-32h-313z" />
    <glyph glyph-name="umacron" unicode="&#x16b;" horiz-adv-x="569" 
d="M510 91l22 -72l-89 -28l-28 87v2q-85 -92 -192 -92q-171 0 -171 188v339l91 27h4v-368q0 -58 21 -105q21 -46 96 -46q37 0 77.5 21.5t73.5 58.5v412l91 27h4v-451zM145 654v32h275v-32h-275z" />
    <glyph glyph-name="Ubreve" unicode="&#x16c;" horiz-adv-x="659" 
d="M66 250v478h102v-476q0 -116 51 -175t148 -59q96 0 148 58.5t52 170.5v163q0 201 -20 318h60q-20 -126 -20 -318v-158q0 -264 -257 -264q-130 0 -197 67t-67 195zM178 957l9 3q18 -42 60 -68.5t93 -26.5q52 0 94 26.5t60 68.5l9 -3q-41 -148 -163 -148q-121 0 -162 148z
" />
    <glyph glyph-name="ubreve" unicode="&#x16d;" horiz-adv-x="569" 
d="M510 91l22 -72l-89 -28l-28 87v2q-85 -92 -192 -92q-171 0 -171 188v339l91 27h4v-368q0 -58 21 -105q21 -46 96 -46q37 0 77.5 21.5t73.5 58.5v412l91 27h4v-451zM127 766l9 3q18 -43 57 -69t89 -26q51 0 90 26t57 69l9 -3q-40 -148 -156 -148q-115 0 -155 148z" />
    <glyph glyph-name="Uring" unicode="&#x16e;" horiz-adv-x="659" 
d="M66 250v478h102v-476q0 -116 51 -175t148 -59q96 0 148 58.5t52 170.5v163q0 201 -20 318h60q-20 -126 -20 -318v-158q0 -264 -257 -264q-130 0 -197 67t-67 195zM231 897q0 44 31.5 72t77.5 28t77.5 -28t31.5 -72t-31.5 -72t-77.5 -28t-77.5 28t-31.5 72zM404 897
q0 40 -17 63.5t-47 23.5t-47 -23.5t-17 -63.5t17 -63.5t47 -23.5t47 23.5t17 63.5z" />
    <glyph glyph-name="uring" unicode="&#x16f;" horiz-adv-x="569" 
d="M510 91l22 -72l-89 -28l-28 87v2q-85 -92 -192 -92q-171 0 -171 188v339l91 27h4v-368q0 -58 21 -105q21 -46 96 -46q37 0 77.5 21.5t73.5 58.5v412l91 27h4v-451zM173 706q0 44 31.5 71.5t77.5 27.5t77.5 -27.5t31.5 -71.5t-31 -72t-78 -28t-78 28t-31 72zM346 706
q0 40 -17 63.5t-47 23.5t-47 -23.5t-17 -63.5t17 -63.5t47 -23.5t47 23.5t17 63.5z" />
    <glyph glyph-name="Uhungarumlaut" unicode="&#x170;" horiz-adv-x="659" 
d="M66 250v478h102v-476q0 -116 51 -175t148 -59q96 0 148 58.5t52 170.5v163q0 201 -20 318h60q-20 -126 -20 -318v-158q0 -264 -257 -264q-130 0 -197 67t-67 195zM258 797l-7 5l72 165h101zM394 797l-7 5l73 165h100z" />
    <glyph glyph-name="uhungarumlaut" unicode="&#x171;" horiz-adv-x="569" 
d="M510 91l22 -72l-89 -28l-28 87v2q-85 -92 -192 -92q-171 0 -171 188v339l91 27h4v-368q0 -58 21 -105q21 -46 96 -46q37 0 77.5 21.5t73.5 58.5v412l91 27h4v-451zM199 606l-7 5l74 174h94zM336 606l-7 5l74 174h94z" />
    <glyph glyph-name="Uogonek" unicode="&#x172;" horiz-adv-x="659" 
d="M547 728h60q-20 -126 -20 -318v-158q0 -240 -211 -262q-58 -65 -58 -117q0 -29 16 -45.5t42 -16.5q24 0 62 15l3 -5q-50 -43 -111 -43q-36 0 -59 20t-23 53q0 35 25.5 67t79.5 71q-5 -1 -23 -1q-130 0 -197 67t-67 195v478h102v-476q0 -116 51 -175t148 -59
q96 0 148 58.5t52 170.5v163q0 201 -20 318z" />
    <glyph glyph-name="uogonek" unicode="&#x173;" horiz-adv-x="570" 
d="M523 -174l3 -5q-50 -43 -112 -43q-36 0 -59 20t-23 53q0 37 32 75.5t80 67.5l-29 84v2q-85 -92 -192 -92q-171 0 -171 188v339l91 27h4v-368q0 -58 21 -105q21 -46 96 -46q37 0 77.5 21.5t73.5 58.5v412l91 27h4v-451l22 -72l-34 -13q-44 -15 -69.5 -51.5t-25.5 -80.5
q0 -29 16.5 -46t41.5 -17t62 15z" />
    <glyph glyph-name="Wcircumflex" unicode="&#x174;" horiz-adv-x="933" 
d="M871 728h62q-44 -105 -119 -319l-147 -425h-4l-196 570l-200 -570h-4l-258 744h109l194 -568l200 568h4l195 -568l88 255q62 173 76 313zM678 802l-6 -5l-162 92l-162 -92l-6 5l165 165h6z" />
    <glyph glyph-name="wcircumflex" unicode="&#x175;" horiz-adv-x="752" 
d="M692 531h59q-48 -105 -125 -305l-94 -241h-7l-146 394l-150 -394h-7l-218 546h101l159 -402l151 402h6l149 -399l39 102q74 192 83 297zM558 611l-6 -5l-148 100l-148 -100l-6 5l151 174h6z" />
    <glyph glyph-name="Ycircumflex" unicode="&#x176;" horiz-adv-x="591" 
d="M410 431l-61 -107v-324h-102v312l-238 416h117l214 -380l52 92q100 174 127 288h63q-92 -153 -172 -297zM480 802l-6 -5l-162 92l-162 -92l-6 5l165 165h6z" />
    <glyph glyph-name="ycircumflex" unicode="&#x177;" horiz-adv-x="481" 
d="M422 531h58q-36 -74 -100 -231l-28 -66l-132 -318q-62 -150 -215 -150l6 57q21 -7 49 -7q44 0 82 25.5t59 75.5l33 80l-233 534h102l180 -414l52 124q76 186 87 290zM404 611l-6 -5l-148 100l-148 -100l-6 5l151 174h6z" />
    <glyph glyph-name="Ydieresis" unicode="&#x178;" horiz-adv-x="591" 
d="M410 431l-61 -107v-324h-102v312l-238 416h117l214 -380l52 92q100 174 127 288h63q-92 -153 -172 -297zM215 811l-61 60l61 60l59 -60zM411 811l-61 60l61 60l59 -60z" />
    <glyph glyph-name="Zacute" unicode="&#x179;" horiz-adv-x="547" 
d="M535 67h2l-19 -67h-513v4l404 706h-62q-210 0 -320 -45h-2l12 63h496v-4l-405 -706h79q210 0 328 49zM266 797l-7 5l70 165h118z" />
    <glyph glyph-name="zacute" unicode="&#x17a;" horiz-adv-x="434" 
d="M424 43h3l-12 -43h-404v4l298 512h-49q-138 0 -240 -26h-3l9 41h391v-4l-296 -512h52q140 0 251 28zM207 606l-7 5l73 174h105z" />
    <glyph glyph-name="Zdotaccent" unicode="&#x17b;" horiz-adv-x="547" 
d="M535 67h2l-19 -67h-513v4l404 706h-62q-210 0 -320 -45h-2l12 63h496v-4l-405 -706h79q210 0 328 49zM281 811l-71 70l71 71l71 -71z" />
    <glyph glyph-name="zdotaccent" unicode="&#x17c;" horiz-adv-x="434" 
d="M424 43h3l-12 -43h-404v4l298 512h-49q-138 0 -240 -26h-3l9 41h391v-4l-296 -512h52q140 0 251 28zM222 619l-68 68l68 68l68 -68z" />
    <glyph glyph-name="Zcaron" unicode="&#x17d;" horiz-adv-x="547" 
d="M535 67h2l-19 -67h-513v4l404 706h-62q-210 0 -320 -45h-2l12 63h496v-4l-405 -706h79q210 0 328 49zM443 967l6 -5l-165 -165h-6l-165 165l6 5l162 -92z" />
    <glyph glyph-name="zcaron" unicode="&#x17e;" horiz-adv-x="434" 
d="M424 43h3l-12 -43h-404v4l298 512h-49q-138 0 -240 -26h-3l9 41h391v-4l-296 -512h52q140 0 251 28zM370 785l6 -5l-151 -174h-6l-151 174l6 5l148 -100z" />
    <glyph glyph-name="longs" unicode="&#x17f;" horiz-adv-x="230" 
d="M58 0v625q0 90 45 139.5t126 49.5t157 -46l-7 -12q-52 24 -106 24q-121 0 -121 -150v-630h-94z" />
    <glyph glyph-name="florin" unicode="&#x192;" horiz-adv-x="579" 
d="M354 564l-27 -190h158l-5 -18h-155l-54 -384q-25 -186 -152 -186q-55 0 -104 35l6 12q40 -23 85 -23q49 0 77.5 41t40.5 129l53 376h-145v18h147l28 198q25 186 152 186q55 0 104 -35l-6 -12q-40 23 -85 23q-49 0 -77.5 -41t-40.5 -129z" />
    <glyph glyph-name="Aringacute" unicode="&#x1fa;" horiz-adv-x="617" 
d="M469 1040l-181 -98l-7 5l70 93h118zM505 0l-96 239h-285q-54 -142 -58 -239h-69q53 109 130 300l8 19l159 391q-42 5 -67.5 32t-25.5 66q0 44 31 72t78 28t78 -28t31 -72q0 -39 -25.5 -66t-67.5 -32l290 -710h-111zM310 721q30 0 47.5 23.5t17.5 63.5t-17.5 63.5
t-47.5 23.5t-47 -23.5t-17 -63.5t17 -63.5t47 -23.5zM131 257h271l-135 334l-114 -279z" />
    <glyph glyph-name="aringacute" unicode="&#x1fb;" horiz-adv-x="512" 
d="M403 945l-171 -108l-7 5l73 103h105zM130 706q0 44 31.5 71.5t77.5 27.5q48 0 78.5 -27.5t30.5 -71.5t-31 -72t-78 -28t-78 28t-31 72zM175 706q0 -40 17 -63.5t47 -23.5t47.5 23.5t17.5 63.5t-17.5 63.5t-47.5 23.5t-47 -23.5t-17 -63.5zM504 24v-6q-40 -25 -83 -25
q-73 0 -79 74q-83 -77 -185 -77q-63 0 -101.5 34t-38.5 89q0 68 60 111.5t166 54.5l60 6l38 3v57q0 83 -30 124t-98 41q-78 0 -150 -60l-9 11q46 43 91.5 62.5t104.5 19.5q186 0 186 -189v-256q0 -46 8 -61t41 -15q3 0 19 2zM341 86v187q-117 -13 -173.5 -45.5t-56.5 -98.5
q0 -49 27 -76t71 -27q70 0 132 60z" />
    <glyph glyph-name="AEacute" unicode="&#x1fc;" horiz-adv-x="882" 
d="M863 67h2l-19 -67h-431v262h-253q-82 -153 -104 -262h-71l416 728h431l12 -63h-2q-134 45 -272 45h-55v-322h46q161 0 210 20h2v-62h-2q-53 24 -210 24h-46v-352h58q153 0 288 49zM172 280h243v428l-225 -395q-1 -2 -7.5 -13t-10.5 -20zM473 797l-7 5l70 165h118z" />
    <glyph glyph-name="aeacute" unicode="&#x1fd;" horiz-adv-x="852" 
d="M826 303h-384v-18q0 -119 52.5 -186.5t136.5 -67.5q50 0 97.5 25t79.5 71l12 -7q-86 -132 -230 -132q-66 0 -120.5 29.5t-86.5 83.5q-42 -53 -101.5 -82t-122.5 -29t-101.5 34t-38.5 89q0 70 61.5 120t165.5 63l45 6l56 8v35q0 83 -30.5 124t-102.5 41q-80 0 -157 -60
l-9 11q51 43 97.5 62.5t108.5 19.5q127 0 163 -86q70 86 193 86q104 0 161 -65t55 -175zM443 319h292q4 94 -32.5 151.5t-100.5 57.5q-65 0 -108 -57.5t-51 -151.5zM213 26q73 0 134 56v213q-116 -19 -175 -59t-59 -107q0 -49 27.5 -76t72.5 -27zM401 606l-7 5l73 174h105z
" />
    <glyph glyph-name="Oslashacute" unicode="&#x1fe;" horiz-adv-x="831" 
d="M794 371q2 -168 -109.5 -276.5t-275.5 -106.5q-126 0 -217 61l-76 -100l-16 11l76 101q-139 103 -139 296q-2 168 109.5 276.5t275.5 106.5q123 0 218 -62l76 101l16 -11l-76 -101q138 -102 138 -296zM217 115l386 514q-75 95 -189 95q-120 0 -192.5 -98t-72.5 -258
q0 -154 68 -253zM682 360q0 152 -67 252l-386 -513q75 -95 191 -95q118 0 190 98t72 258zM400 797l-7 5l70 165h118z" />
    <glyph glyph-name="oslashacute" unicode="&#x1ff;" horiz-adv-x="597" 
d="M567 268q0 -124 -77.5 -202t-195.5 -78q-86 0 -148 40l-55 -79l-15 10l55 80q-101 74 -101 223q0 125 77.5 203t195.5 78q83 0 148 -41l55 80l15 -11l-55 -79q101 -76 101 -224zM169 93l249 362q-45 74 -121 74q-75 0 -120 -72t-45 -189q0 -107 37 -175zM465 262
q0 104 -36 175l-250 -361q45 -74 121 -74q75 0 120 71t45 189zM284 606l-7 5l73 174h105z" />
    <glyph glyph-name="uni0218" unicode="&#x218;" horiz-adv-x="540" 
d="M33 41l18 63q36 -44 99 -72t125 -28q73 0 117 40q46 40 46 102q-3 64 -40.5 99t-119.5 74l-50 22q-56 26 -91 48q-93 60 -93 159q0 83 64 137.5t166 54.5q113 0 204 -53l-16 -56q-91 93 -199 93q-66 0 -106 -36t-40 -92q3 -58 38 -90t118 -71l50 -23q67 -33 97 -53
q90 -56 90 -161q0 -93 -69 -151.5t-175 -58.5q-63 0 -128 16q-64 16 -105 37zM229 -276l-5 6q55 33 55 82q0 52 -66 86l48 53q34 -14 53 -40t19 -58q0 -38 -29 -72.5t-75 -56.5z" />
    <glyph glyph-name="uni0219" unicode="&#x219;" horiz-adv-x="437" 
d="M23 36l15 51q73 -85 184 -85q59 0 94.5 28.5t35.5 73.5q-3 43 -29.5 65t-94.5 51l-41 17q-37 15 -78 37q-76 46 -76 123q0 64 51.5 105t134.5 41q100 0 173 -42l-14 -47q-75 75 -168 75q-52 0 -82.5 -25.5t-30.5 -65.5q0 -29 18 -50q17 -19 36.5 -30t70.5 -32l40 -17
q43 -17 76 -36q78 -46 78 -127q0 -70 -55 -114t-149 -44q-51 0 -103.5 13t-85.5 35zM180 -276l-5 6q55 33 55 82q0 52 -66 86l48 53q34 -14 53 -40t19 -58q0 -38 -29 -72.5t-75 -56.5z" />
    <glyph glyph-name="uni021A" unicode="&#x21a;" horiz-adv-x="563" 
d="M541 728l13 -71h-2q-115 53 -196 53h-23v-710h-102v710h-24q-81 0 -196 -53h-2l14 71h518zM243 -276l-5 6q55 33 55 82q0 52 -66 86l48 53q34 -14 53 -40t19 -58q0 -38 -29 -72.5t-75 -56.5z" />
    <glyph glyph-name="uni021B" unicode="&#x21b;" horiz-adv-x="356" 
d="M356 47l8 -12q-71 -47 -140 -47q-130 0 -130 137v384h-77v17l73 5l95 170h4v-170h171l-13 -22h-158v-382q0 -40 14 -73q15 -32 67 -32q43 0 86 25zM193 -276l-5 6q55 33 55 82q0 52 -66 86l48 53q34 -14 53 -40t19 -58q0 -38 -29 -72.5t-75 -56.5z" />
    <glyph glyph-name="uni0237" unicode="&#x237;" horiz-adv-x="220" 
d="M-57 -228l-4 12q59 13 92.5 66t33.5 133v532l91 27h4v-552q0 -92 -63 -148q-62 -56 -154 -70z" />
    <glyph glyph-name="uni0259" unicode="&#x259;" horiz-adv-x="540" 
d="M510 273q0 -126 -76 -205.5t-193 -79.5q-104 0 -160.5 65t-54.5 175h384v18q0 119 -53 186.5t-136 67.5q-49 0 -97 -25t-81 -71l-12 7q86 132 230 132q108 0 178.5 -75t70.5 -195zM409 212h-293q-4 -94 32.5 -151.5t100.5 -57.5q65 0 108 58q45 60 52 151z" />
    <glyph glyph-name="uni02BB" unicode="&#x2bb;" horiz-adv-x="152" 
d="M24 703q0 33 26 62.5t67 48.5l4 -5q-48 -29 -48 -70q0 -46 58 -74l-43 -47q-64 26 -64 85z" />
    <glyph glyph-name="uni02BC" unicode="&#x2bc;" horiz-adv-x="155" 
d="M40 618l-4 5q48 29 48 70q0 47 -58 74l43 47q64 -26 64 -85q0 -33 -26 -62.5t-67 -48.5z" />
    <glyph glyph-name="circumflex" unicode="&#x2c6;" horiz-adv-x="600" 
d="M454 611l-6 -5l-148 100l-148 -100l-6 5l151 174h6z" />
    <glyph glyph-name="caron" unicode="&#x2c7;" horiz-adv-x="600" 
d="M448 785l6 -5l-151 -174h-6l-151 174l6 5l148 -100z" />
    <glyph glyph-name="uni02C9" unicode="&#x2c9;" horiz-adv-x="600" 
d="M163 654v32h275v-32h-275z" />
    <glyph glyph-name="breve" unicode="&#x2d8;" horiz-adv-x="600" 
d="M145 766l9 3q18 -43 57 -69t89 -26q51 0 90 26t57 69l9 -3q-40 -148 -156 -148q-115 0 -155 148z" />
    <glyph glyph-name="dotaccent" unicode="&#x2d9;" horiz-adv-x="600" 
d="M309 619l-68 68l68 68l68 -68z" />
    <glyph glyph-name="ring" unicode="&#x2da;" horiz-adv-x="600" 
d="M200 706q0 44 31.5 71.5t77.5 27.5q48 0 78.5 -27.5t30.5 -71.5t-31 -72t-78 -28t-78 28t-31 72zM374 706q0 40 -17.5 63.5t-47.5 23.5t-47 -23.5t-17 -63.5t17 -63.5t47 -23.5t47.5 23.5t17.5 63.5z" />
    <glyph glyph-name="ogonek" unicode="&#x2db;" horiz-adv-x="600" 
d="M260 -149q0 38 29.5 72t94.5 78h15q-69 -72 -69 -128q0 -29 16 -45.5t42 -16.5t62 15l3 -5q-48 -43 -111 -43q-36 0 -59 20t-23 53z" />
    <glyph glyph-name="tilde" unicode="&#x2dc;" horiz-adv-x="600" 
d="M137 618l-9 2q14 112 87 112q36 0 100 -32q60 -26 78 -26q43 0 61 58l10 -2q-16 -112 -88 -112q-33 0 -99 32l-22 10q-35 16 -57 16q-45 0 -61 -58z" />
    <glyph glyph-name="hungarumlaut" unicode="&#x2dd;" horiz-adv-x="600" 
d="M177 606l-7 5l74 174h94zM314 606l-7 5l73 174h94z" />
    <glyph glyph-name="gravecomb" unicode="&#x300;" 
d="M-185 606l-170 179h105l72 -174z" />
    <glyph glyph-name="acutecomb" unicode="&#x301;" 
d="M-215 606l-7 5l73 174h105z" />
    <glyph glyph-name="uni0302" unicode="&#x302;" 
d="M-46 611l-6 -5l-148 100l-148 -100l-6 5l151 174h6z" />
    <glyph glyph-name="tildecomb" unicode="&#x303;" 
d="M-358 618l-10 2q16 112 88 112q36 0 100 -32q60 -26 78 -26q45 0 61 58l9 -2q-14 -112 -88 -112q-33 0 -99 32q-60 26 -78 26q-45 0 -61 -58z" />
    <glyph glyph-name="uni0304" unicode="&#x304;" 
d="M-337 654v32h275v-32h-275z" />
    <glyph glyph-name="uni0306" unicode="&#x306;" 
d="M-355 766l9 3q18 -43 57 -69t89 -26q51 0 90 26t57 69l9 -3q-40 -148 -156 -148q-115 0 -155 148z" />
    <glyph glyph-name="uni0307" unicode="&#x307;" 
d="M-200 619l-68 68l68 68l68 -68z" />
    <glyph glyph-name="uni0308" unicode="&#x308;" 
d="M-300 619l-61 61l61 59l59 -59zM-110 619l-60 61l60 59l60 -59z" />
    <glyph glyph-name="uni030A" unicode="&#x30a;" 
d="M-309 706q0 44 31.5 71.5t77.5 27.5t77.5 -27.5t31.5 -71.5t-31 -72t-78 -28t-78 28t-31 72zM-136 706q0 40 -17 63.5t-47 23.5t-47 -23.5t-17 -63.5t17 -63.5t47 -23.5t47 23.5t17 63.5z" />
    <glyph glyph-name="uni030B" unicode="&#x30b;" 
d="M-383 606l-7 5l74 174h94zM-246 606l-7 5l74 174h94z" />
    <glyph glyph-name="uni030C" unicode="&#x30c;" 
d="M-52 785l6 -5l-151 -174h-6l-151 174l6 5l148 -100z" />
    <glyph glyph-name="uni0312" unicode="&#x312;" 
d="M-254 697q0 33 25.5 62t67.5 49l5 -5q-49 -27 -49 -71q0 -46 58 -74l-43 -47q-64 26 -64 86z" />
    <glyph glyph-name="uni0313" unicode="&#x313;" 
d="M-237 611l-4 5q48 28 48 71q0 46 -58 74l43 47q65 -26 65 -86q0 -32 -26 -61.5t-68 -49.5z" />
    <glyph glyph-name="uni0326" unicode="&#x326;" 
d="M-239 -276l-5 6q55 33 55 82q0 52 -66 86l48 53q34 -14 53 -40t19 -58q0 -38 -29 -72.5t-75 -56.5z" />
    <glyph glyph-name="uni0327" unicode="&#x327;" 
d="M-99 -136q0 -38 -31.5 -62t-81.5 -24t-82 18l3 9q25 -9 63 -9q33 0 53 14.5t20 36.5q0 21 -20.5 35t-55.5 14h-26l47 104h20l-23 -51q53 -4 83.5 -27.5t30.5 -57.5z" />
    <glyph glyph-name="uni0328" unicode="&#x328;" 
d="M-288 -149q0 38 29.5 72t94.5 78h15q-68 -71 -68 -128q0 -29 16 -45.5t42 -16.5q25 0 62 15l3 -5q-50 -43 -112 -43q-36 0 -59 20t-23 53z" />
    <glyph glyph-name="uni037E" unicode="&#x37e;" horiz-adv-x="238" 
d="M66 -143l-5 7q59 36 59 90q0 57 -72 102l52 65q40 -16 63 -46.5t23 -68.5q0 -44 -33 -83.5t-87 -65.5zM119 372l-71 70l71 71l71 -71z" />
    <glyph glyph-name="uni0394" unicode="&#x394;" horiz-adv-x="581" 
d="M292 740l287 -740h-578l287 740h4zM515 18l-243 631l-245 -631h488z" />
    <glyph glyph-name="uni03A9" unicode="&#x3a9;" horiz-adv-x="773" 
d="M744 58l-18 -58h-287v26q116 85 171 176t55 199q0 142 -77 232.5t-202 90.5q-126 0 -202.5 -88.5t-76.5 -230.5q0 -105 54.5 -197t171.5 -182v-26h-287l-18 58q88 -20 201 -20h60q-125 100 -183 182q-57 82 -57 181q-2 145 95.5 243t241.5 96q152 0 244.5 -92.5
t92.5 -242.5q0 -99 -58 -184q-60 -86 -182 -183h60q113 0 201 20z" />
    <glyph glyph-name="uni03BC" unicode="&#x3bc;" horiz-adv-x="574" 
d="M515 91l22 -72l-90 -28l-27 87v2q-87 -92 -193 -92q-70 0 -110 40q35 -123 35 -185v-55h-95v727l91 27h4v-368q0 -58 21 -105q21 -46 96 -46q37 0 77.5 21.5t73.5 58.5v412l91 27h4v-451z" />
    <glyph glyph-name="pi" unicode="&#x3c0;" horiz-adv-x="604" 
d="M592 37l8 -12q-66 -37 -119 -37q-120 0 -120 146v368h-187v-76q0 -257 -28 -426h-48q28 147 28 428v74h-118v22h396q124 0 180 10l-18 -32h-157v-360q0 -130 93 -130q44 0 90 25z" />
    <glyph glyph-name="Wgrave" unicode="&#x1e80;" horiz-adv-x="933" 
d="M871 728h62q-44 -105 -119 -319l-147 -425h-4l-196 570l-200 -570h-4l-258 744h109l194 -568l200 568h4l195 -568l88 255q62 173 76 313zM526 797l-181 170h118l70 -165z" />
    <glyph glyph-name="wgrave" unicode="&#x1e81;" horiz-adv-x="752" 
d="M692 531h59q-48 -105 -125 -305l-94 -241h-7l-146 394l-150 -394h-7l-218 546h101l159 -402l151 402h6l149 -399l39 102q74 192 83 297zM419 606l-170 179h105l72 -174z" />
    <glyph glyph-name="Wacute" unicode="&#x1e82;" horiz-adv-x="933" 
d="M871 728h62q-44 -105 -119 -319l-147 -425h-4l-196 570l-200 -570h-4l-258 744h109l194 -568l200 568h4l195 -568l88 255q62 173 76 313zM495 797l-7 5l70 165h118z" />
    <glyph glyph-name="wacute" unicode="&#x1e83;" horiz-adv-x="752" 
d="M692 531h59q-48 -105 -125 -305l-94 -241h-7l-146 394l-150 -394h-7l-218 546h101l159 -402l151 402h6l149 -399l39 102q74 192 83 297zM389 606l-7 5l73 174h105z" />
    <glyph glyph-name="Wdieresis" unicode="&#x1e84;" horiz-adv-x="933" 
d="M871 728h62q-44 -105 -119 -319l-147 -425h-4l-196 570l-200 -570h-4l-258 744h109l194 -568l200 568h4l195 -568l88 255q62 173 76 313zM413 811l-61 60l61 60l59 -60zM609 811l-61 60l61 60l59 -60z" />
    <glyph glyph-name="wdieresis" unicode="&#x1e85;" horiz-adv-x="752" 
d="M692 531h59q-48 -105 -125 -305l-94 -241h-7l-146 394l-150 -394h-7l-218 546h101l159 -402l151 402h6l149 -399l39 102q74 192 83 297zM302 619l-61 61l61 59l59 -59zM492 619l-60 61l60 59l60 -59z" />
    <glyph glyph-name="uni1E9E" unicode="&#x1e9e;" horiz-adv-x="701" 
d="M681 198q0 -92 -70.5 -149.5t-183.5 -57.5q-91 0 -162 39l16 56q27 -36 65.5 -57.5t79.5 -21.5q66 0 106 48t40 125q0 87 -55 137t-157 58l-28 2l173 310q-82 36 -155 36q-97 0 -139 -64q-42 -63 -42 -164v-495h-102v490q0 116 75.5 183t201.5 67q119 0 257 -65
l-156 -279q111 -10 173.5 -62t62.5 -136z" />
    <glyph glyph-name="Ygrave" unicode="&#x1ef2;" horiz-adv-x="591" 
d="M410 431l-61 -107v-324h-102v312l-238 416h117l214 -380l52 92q100 174 127 288h63q-92 -153 -172 -297zM328 797l-181 170h118l70 -165z" />
    <glyph glyph-name="ygrave" unicode="&#x1ef3;" horiz-adv-x="481" 
d="M422 531h58q-36 -74 -100 -231l-28 -66l-132 -318q-62 -150 -215 -150l6 57q21 -7 49 -7q44 0 82 25.5t59 75.5l33 80l-233 534h102l180 -414l52 124q76 186 87 290zM265 606l-170 179h105l72 -174z" />
    <glyph glyph-name="uni200B" unicode="&#x200b;" 
 />
    <glyph glyph-name="endash" unicode="&#x2013;" horiz-adv-x="464" 
d="M37 298v18h390v-18h-390z" />
    <glyph glyph-name="emdash" unicode="&#x2014;" horiz-adv-x="754" 
d="M37 298v18h680v-18h-680z" />
    <glyph glyph-name="uni2015" unicode="&#x2015;" horiz-adv-x="754" 
d="M37 298v18h680v-18h-680z" />
    <glyph glyph-name="quoteleft" unicode="&#x2018;" horiz-adv-x="189" 
d="M147 740l5 -7q-58 -38 -58 -91q0 -57 71 -102l-52 -64q-39 15 -62 45.5t-23 69.5q0 44 33 83.5t86 65.5z" />
    <glyph glyph-name="quoteright" unicode="&#x2019;" horiz-adv-x="191" 
d="M44 476l-5 7q59 36 59 90q0 57 -72 102l52 65q40 -16 63 -46.5t23 -68.5q0 -44 -33 -83.5t-87 -65.5z" />
    <glyph glyph-name="quotesinglbase" unicode="&#x201a;" horiz-adv-x="194" 
d="M46 -143l-5 7q59 36 59 90q0 57 -72 102l52 65q40 -16 63 -46.5t23 -68.5q0 -44 -33 -83.5t-87 -65.5z" />
    <glyph glyph-name="quotedblleft" unicode="&#x201c;" horiz-adv-x="369" 
d="M147 740l5 -7q-58 -38 -58 -91q0 -57 71 -102l-52 -64q-39 15 -62 45.5t-23 69.5q0 44 33 83.5t86 65.5zM327 740l5 -7q-58 -38 -58 -91q0 -57 71 -102l-52 -64q-39 15 -62 45.5t-23 69.5q0 44 33 83.5t86 65.5z" />
    <glyph glyph-name="quotedblright" unicode="&#x201d;" horiz-adv-x="371" 
d="M224 476l-5 7q59 36 59 90q0 57 -72 102l52 65q40 -16 63 -46.5t23 -68.5q0 -44 -33 -83.5t-87 -65.5zM44 476l-5 7q59 36 59 90q0 57 -72 102l52 65q40 -16 63 -46.5t23 -68.5q0 -44 -33 -83.5t-87 -65.5z" />
    <glyph glyph-name="quotedblbase" unicode="&#x201e;" horiz-adv-x="374" 
d="M46 -143l-5 7q59 36 59 90q0 57 -72 102l52 65q40 -16 63 -46.5t23 -68.5q0 -44 -33 -83.5t-87 -65.5zM226 -143l-5 7q59 36 59 90q0 57 -72 102l52 65q40 -16 63 -46.5t23 -68.5q0 -44 -33 -83.5t-87 -65.5z" />
    <glyph glyph-name="dagger" unicode="&#x2020;" horiz-adv-x="447" 
d="M425 513v-54l-196 21l18 -203v-427l-24 -36l-24 36v427l18 203l-196 -21v54l197 -21l-22 248h54l-22 -248z" />
    <glyph glyph-name="daggerdbl" unicode="&#x2021;" horiz-adv-x="475" 
d="M439 513v-54l-196 21l21 -203l-21 -203l196 21v-54l-197 21l22 -248h-54l22 248l-197 -21v54l196 -21l-21 203l21 203l-196 -21v54l197 -21l-22 248h54l-22 -248z" />
    <glyph glyph-name="bullet" unicode="&#x2022;" horiz-adv-x="323" 
d="M161 195l-101 101l101 101l102 -101z" />
    <glyph glyph-name="ellipsis" unicode="&#x2026;" horiz-adv-x="549" 
d="M93 -21l-71 70l71 71l71 -71zM274 -21l-71 70l71 71l71 -71zM456 -21l-71 70l71 71l71 -71z" />
    <glyph glyph-name="perthousand" unicode="&#x2030;" horiz-adv-x="1125" 
d="M26 554q0 82 45.5 131t120.5 49q73 0 118.5 -48t45.5 -126q0 -82 -45.5 -131t-119.5 -49t-119.5 47.5t-45.5 126.5zM150 0l440 728h22l-440 -728h-22zM294 555q0 77 -28 122t-76 45t-75 -43.5t-27 -119.5q0 -77 28 -122t77 -45q48 0 74.5 43.5t26.5 119.5zM407 168
q0 82 45.5 131t119.5 49q73 0 118.5 -47.5t45.5 -126.5q0 -82 -45.5 -131t-120.5 -49q-72 0 -117.5 48t-45.5 126zM770 168q0 82 45.5 131t119.5 49q73 0 118.5 -47.5t45.5 -126.5q0 -82 -45.5 -131t-119.5 -49q-73 0 -118.5 48t-45.5 126zM674 169q0 77 -27.5 122t-76.5 45
q-48 0 -75 -44t-27 -119q0 -77 28 -122t76 -45t75 43.5t27 119.5zM1038 169q0 77 -28 122t-77 45q-48 0 -74.5 -43.5t-26.5 -119.5q0 -77 27.5 -122t76.5 -45q48 0 75 44t27 119z" />
    <glyph glyph-name="minute" unicode="&#x2032;" horiz-adv-x="166" 
d="M40 452l34 288h84l-108 -288h-10z" />
    <glyph glyph-name="second" unicode="&#x2033;" horiz-adv-x="306" 
d="M40 452l34 288h84l-108 -288h-10zM180 452l34 288h84l-108 -288h-10z" />
    <glyph glyph-name="guilsinglleft" unicode="&#x2039;" horiz-adv-x="282" 
d="M245 509l-129 -243l129 -243h-12l-204 243l204 243h12z" />
    <glyph glyph-name="guilsinglright" unicode="&#x203a;" horiz-adv-x="282" 
d="M49 509l204 -243l-204 -243h-12l129 243l-129 243h12z" />
    <glyph glyph-name="fraction" unicode="&#x2044;" horiz-adv-x="100" 
d="M-182 0l440 728h23l-440 -728h-23z" />
    <glyph glyph-name="uni2070" unicode="&#x2070;" horiz-adv-x="401" 
d="M31 510q0 104 46 163.5t124 59.5q77 0 123 -58t46 -158q0 -104 -46 -164t-124 -60q-77 0 -123 58.5t-46 158.5zM301 511q0 100 -27 156t-75 56q-47 0 -73 -55t-26 -152q0 -99 27 -155.5t75 -56.5q47 0 73 55t26 152z" />
    <glyph glyph-name="uni2074" unicode="&#x2074;" horiz-adv-x="333" 
d="M316 454l-11 -40h-53v-115h-60v115h-179l-7 21l232 297h14v-278h64zM41 454h151v195z" />
    <glyph glyph-name="uni2075" unicode="&#x2075;" horiz-adv-x="308" 
d="M280 432q0 -59 -44 -99t-109 -40q-53 0 -107 27l9 32q40 -46 96 -46q43 0 72 29.5t29 74.5q0 54 -41 84t-118 30h-22l18 204h210l-15 -46h-183l-9 -104h22q91 0 141.5 -39.5t50.5 -106.5z" />
    <glyph glyph-name="uni2076" unicode="&#x2076;" horiz-adv-x="345" 
d="M30 464q0 96 62.5 170.5t159.5 98.5l3 -9q-75 -25 -116.5 -94.5t-41.5 -167.5q0 -74 23.5 -116t63.5 -42q36 0 55.5 31t19.5 86q0 54 -21 85t-57 31q-32 0 -57 -22l-7 8q38 38 88 38q52 0 86.5 -36t34.5 -92q0 -62 -41 -101t-104 -39q-69 0 -110 47t-41 124z" />
    <glyph glyph-name="uni2077" unicode="&#x2077;" horiz-adv-x="293" 
d="M20 728h267v-4l-154 -425h-58l182 383h-70q-117 0 -178 -13z" />
    <glyph glyph-name="uni2078" unicode="&#x2078;" horiz-adv-x="345" 
d="M315 414q0 -53 -43 -87q-41 -34 -104 -34q-59 0 -99 28.5t-40 74.5q0 80 96 115q-77 41 -77 108q0 49 36.5 81.5t92.5 32.5q51 0 85.5 -26.5t34.5 -67.5q0 -68 -85 -104q103 -48 103 -121zM177 550l20 -9q53 38 53 98q0 36 -21.5 60t-55.5 24q-35 0 -55.5 -23t-20.5 -59
q0 -31 19 -51.5t61 -39.5zM265 392q0 56 -86 94l-28 12l-14 7q-60 -38 -60 -106q0 -41 28 -68t68 -27q39 0 65.5 25.5t26.5 62.5z" />
    <glyph glyph-name="uni2079" unicode="&#x2079;" horiz-adv-x="344" 
d="M93 293l-4 10q76 24 117 93t41 169q0 74 -23.5 116t-63.5 42q-35 0 -55 -31.5t-20 -85.5t21 -85t57 -31q31 0 58 21l7 -8q-40 -37 -89 -37q-52 0 -86 36t-34 92q0 61 40.5 100t104.5 39q69 0 109.5 -46.5t40.5 -123.5q0 -95 -62 -170.5t-159 -99.5z" />
    <glyph glyph-name="uni2080" unicode="&#x2080;" horiz-adv-x="401" 
d="M31 42q0 104 46 163.5t124 59.5q77 0 123 -58t46 -158q0 -104 -46 -164t-124 -60q-77 0 -123 58.5t-46 158.5zM301 43q0 100 -27 156t-75 56q-47 0 -73 -55t-26 -152q0 -99 27 -155.5t75 -56.5q47 0 73 55t26 152z" />
    <glyph glyph-name="uni2081" unicode="&#x2081;" horiz-adv-x="193" 
d="M137 267h3v-435h-60v356q-27 -13 -66 -26v10q28 10 63.5 37.5t59.5 57.5z" />
    <glyph glyph-name="uni2082" unicode="&#x2082;" horiz-adv-x="325" 
d="M299 -113l-16 -56h-263v3l34 36q88 91 127.5 154.5t39.5 116.5q0 42 -23 67t-60 25q-64 0 -105 -69l-10 4q46 97 141 97q55 0 89.5 -31t34.5 -84q-2 -56 -46.5 -111.5t-165.5 -161.5l-1 -1h38q103 0 186 11z" />
    <glyph glyph-name="uni2083" unicode="&#x2083;" horiz-adv-x="320" 
d="M24 -148l10 37q46 -52 97 -52q45 0 73 29t28 73q0 43 -28 72t-73 34l-22 2l-2 9l19 7q39 13 62.5 40t23.5 62q0 32 -20 51t-53 19q-58 0 -98 -52l-10 4q51 78 134 78q48 0 79 -24.5t31 -63.5q0 -32 -25.5 -60t-63.5 -41v-2q45 -9 74.5 -41t29.5 -77q0 -55 -44 -93
t-111 -38q-49 0 -111 27z" />
    <glyph glyph-name="uni2084" unicode="&#x2084;" horiz-adv-x="333" 
d="M317 -14l-11 -40h-53v-115h-60v115h-179l-7 21l232 297h14v-278h64zM42 -14h151v195z" />
    <glyph glyph-name="uni2085" unicode="&#x2085;" horiz-adv-x="308" 
d="M280 -36q0 -59 -44 -99t-109 -40q-53 0 -107 27l9 32q40 -46 96 -46q43 0 72 29.5t29 74.5q0 54 -41 84t-118 30h-22l18 204h210l-15 -46h-183l-9 -104h22q91 0 141.5 -39.5t50.5 -106.5z" />
    <glyph glyph-name="uni2086" unicode="&#x2086;" horiz-adv-x="345" 
d="M30 -4q0 96 62.5 170.5t159.5 98.5l3 -9q-75 -25 -116.5 -94.5t-41.5 -167.5q0 -74 23.5 -116t63.5 -42q36 0 55.5 31t19.5 86q0 54 -21 85t-57 31q-32 0 -57 -22l-7 8q38 38 88 38q52 0 86.5 -36t34.5 -92q0 -62 -41 -101t-104 -39q-69 0 -110 47t-41 124z" />
    <glyph glyph-name="uni2087" unicode="&#x2087;" horiz-adv-x="293" 
d="M21 260h267v-4l-154 -425h-58l182 383h-70q-117 0 -178 -13z" />
    <glyph glyph-name="uni2088" unicode="&#x2088;" horiz-adv-x="345" 
d="M315 -54q0 -52 -43 -86q-43 -35 -104 -35q-59 0 -99 28.5t-40 74.5q0 80 96 115q-77 41 -77 108q0 49 36.5 81.5t92.5 32.5q51 0 85.5 -26.5t34.5 -67.5q0 -68 -85 -104q103 -48 103 -121zM177 82l20 -9q53 38 53 98q0 36 -21.5 60t-55.5 24q-35 0 -55.5 -23t-20.5 -59
q0 -31 19 -51.5t61 -39.5zM265 -76q0 56 -86 94l-28 12l-14 7q-60 -38 -60 -106q0 -41 28 -68t68 -27q39 0 65.5 25.5t26.5 62.5z" />
    <glyph glyph-name="uni2089" unicode="&#x2089;" horiz-adv-x="344" 
d="M93 -175l-4 10q76 24 117 93t41 169q0 74 -23.5 116t-63.5 42q-35 0 -55 -31.5t-20 -85.5t21 -85t57 -31q31 0 58 21l7 -8q-40 -37 -89 -37q-52 0 -86 36t-34 92q0 61 40.5 100t104.5 39q69 0 109.5 -46.5t40.5 -123.5q0 -95 -62 -170.5t-159 -99.5z" />
    <glyph glyph-name="Euro" unicode="&#x20ac;" horiz-adv-x="673" 
d="M636 122l11 -10q-93 -124 -241 -124q-123 0 -210.5 85t-103.5 225h-64v18h63q-2 38 -2 42q0 29 3 56h-64v18h66q19 141 110 224.5t221 83.5q122 0 216 -87l-45 -43q-78 114 -176 114q-91 0 -150 -81t-70 -211h255l-5 -18h-251q-1 -7 -1 -31q0 -35 3 -67h217l-6 -18h-208
q16 -124 82 -196q64 -70 159 -70q117 0 191 90z" />
    <glyph glyph-name="uni2113" unicode="&#x2113;" horiz-adv-x="352" 
d="M317 80l13 -8q-61 -84 -129 -84q-55 0 -85.5 44t-30.5 122v56q-33 -22 -56 -34l-8 14q27 15 64 39v265q0 246 117 246q53 0 86 -47t33 -127q0 -182 -188 -323v-103q0 -133 75 -133q55 0 109 73zM133 508v-245q144 117 144 303q0 76 -20.5 118t-54.5 42q-45 0 -57 -60
t-12 -158z" />
    <glyph glyph-name="uni2116" unicode="&#x2116;" horiz-adv-x="1075" 
d="M542 728h60q-20 -126 -20 -318v-422h-9l-464 642v-312q0 -192 20 -318h-60q20 117 20 318v339l-49 68v3h121l401 -564v246q0 192 -20 318zM656 472q0 87 55.5 141.5t141.5 54.5q84 0 138 -53.5t54 -138.5t-56 -140.5t-141 -55.5q-84 0 -138 53.5t-54 138.5zM731 475
q0 -81 33 -131t87 -50t86.5 49t32.5 129q0 81 -33.5 131.5t-87.5 50.5t-86 -49t-32 -130zM698 180v18h309v-18h-309z" />
    <glyph glyph-name="uni2117" unicode="&#x2117;" horiz-adv-x="623" 
d="M583 469q2 -109 -80 -190.5t-191 -79.5q-110 -2 -192 79.5t-80 190.5q-2 108 80 190.5t192 80.5q109 2 191 -80.5t80 -190.5zM561 471q2 101 -73.5 177t-175.5 74q-101 2 -176.5 -74t-73.5 -177q-2 -101 73.5 -177.5t176.5 -74.5q100 -2 175.5 74.5t73.5 177.5zM443 541
q0 -46 -35.5 -74.5t-93.5 -28.5q-22 0 -35 3v-139h-29v331h64q62 0 95.5 -23.5t33.5 -68.5zM411 535q0 41 -25.5 63t-71.5 22h-35v-165q13 -3 34 -3q47 0 72.5 21.5t25.5 61.5z" />
    <glyph glyph-name="trademark" unicode="&#x2122;" horiz-adv-x="758" 
d="M29 728h274l8 -26q-47 7 -62 8q-21 3 -55 3h-12v-359h-32v359h-12q-34 0 -56 -3q-14 -1 -61 -8zM697 354h-33l-27 300l-128 -275h-4l-136 273l-11 -135q-8 -120 -8 -163h-25q5 32 17 162l18 212h8l147 -298l138 298h8z" />
    <glyph glyph-name="uni2126" unicode="&#x2126;" horiz-adv-x="776" 
d="M746 58l-18 -58h-287v26q116 85 171 176t55 199q0 142 -77 232.5t-202 90.5q-126 0 -202.5 -88.5t-76.5 -230.5q0 -105 54.5 -197t171.5 -182v-26h-287l-18 58q88 -20 201 -20h60q-125 100 -183 182q-57 82 -57 181q-2 145 95.5 243t241.5 96q152 0 244.5 -92.5
t92.5 -242.5q0 -99 -58 -184q-60 -86 -182 -183h60q113 0 201 20z" />
    <glyph glyph-name="estimated" unicode="&#x212e;" horiz-adv-x="787" 
d="M708 200l16 -8q-49 -97 -134.5 -151.5t-189.5 -54.5q-98 -2 -182 50t-131 140t-46 188q-2 151 105 262t254 108q150 3 256.5 -110t103.5 -270h-591v-229q0 -30 25 -49q94 -70 206 -70q99 0 180.5 51.5t127.5 142.5zM169 591v-217h462v217q0 33 -25 53q-92 70 -206 70
t-206 -70q-25 -19 -25 -53z" />
    <glyph glyph-name="oneeighth" unicode="&#x215b;" horiz-adv-x="695" 
d="M151 735h3v-435h-60v356q-27 -13 -66 -26v10q28 10 63.5 37.5t59.5 57.5zM69 0l440 728h23l-440 -728h-23zM666 115q0 -53 -43 -87q-41 -34 -104 -34q-59 0 -99 28.5t-40 74.5q0 80 96 115q-77 41 -77 108q0 49 36.5 81.5t92.5 32.5q51 0 85.5 -26.5t34.5 -67.5
q0 -68 -85 -104q103 -48 103 -121zM528 251l20 -9q53 38 53 98q0 36 -21.5 60t-55.5 24q-35 0 -55.5 -23t-20.5 -59q0 -31 19 -51.5t61 -39.5zM616 93q0 56 -86 94l-28 12l-14 7q-60 -38 -60 -106q0 -41 28 -68t68 -27q39 0 65.5 25.5t26.5 62.5z" />
    <glyph glyph-name="threeeighths" unicode="&#x215c;" horiz-adv-x="767" 
d="M28 320l10 37q46 -52 97 -52q45 0 73 29t28 73q0 43 -28 72t-73 34l-22 2l-2 9l19 7q39 13 62.5 40t23.5 62q0 32 -20 51t-53 19q-58 0 -98 -52l-10 4q51 78 134 78q48 0 79 -24.5t31 -63.5q0 -32 -25.5 -60t-63.5 -41v-2q45 -9 74.5 -41t29.5 -77q0 -55 -44 -93
t-111 -38q-49 0 -111 27zM142 0l440 728h23l-440 -728h-23zM738 115q0 -53 -43 -87q-41 -34 -104 -34q-59 0 -99 28.5t-40 74.5q0 80 96 115q-77 41 -77 108q0 49 36.5 81.5t92.5 32.5q51 0 85.5 -26.5t34.5 -67.5q0 -68 -85 -104q103 -48 103 -121zM600 251l20 -9
q53 38 53 98q0 36 -21.5 60t-55.5 24q-35 0 -55.5 -23t-20.5 -59q0 -31 19 -51.5t61 -39.5zM688 93q0 56 -86 94l-28 12l-14 7q-60 -38 -60 -106q0 -41 28 -68t68 -27q39 0 65.5 25.5t26.5 62.5z" />
    <glyph glyph-name="fiveeighths" unicode="&#x215d;" horiz-adv-x="764" 
d="M287 432q0 -59 -44 -99t-109 -40q-53 0 -107 27l9 32q40 -46 96 -46q43 0 72 29.5t29 74.5q0 54 -41 84t-118 30h-22l18 204h210l-15 -46h-183l-9 -104h22q91 0 141.5 -39.5t50.5 -106.5zM139 0l440 728h23l-440 -728h-23zM735 115q0 -53 -43 -87q-41 -34 -104 -34
q-59 0 -99 28.5t-40 74.5q0 80 96 115q-77 41 -77 108q0 49 36.5 81.5t92.5 32.5q51 0 85.5 -26.5t34.5 -67.5q0 -68 -85 -104q103 -48 103 -121zM597 251l20 -9q53 38 53 98q0 36 -21.5 60t-55.5 24q-35 0 -55.5 -23t-20.5 -59q0 -31 19 -51.5t61 -39.5zM685 93
q0 56 -86 94l-28 12l-14 7q-60 -38 -60 -106q0 -41 28 -68t68 -27q39 0 65.5 25.5t26.5 62.5z" />
    <glyph glyph-name="seveneighths" unicode="&#x215e;" horiz-adv-x="774" 
d="M34 728h267v-4l-154 -425h-58l182 383h-70q-117 0 -178 -13zM141 0l440 728h23l-440 -728h-23zM737 115q0 -53 -43 -87q-41 -34 -104 -34q-59 0 -99 28.5t-40 74.5q0 80 96 115q-77 41 -77 108q0 49 36.5 81.5t92.5 32.5q51 0 85.5 -26.5t34.5 -67.5q0 -68 -85 -104
q103 -48 103 -121zM599 251l20 -9q53 38 53 98q0 36 -21.5 60t-55.5 24q-35 0 -55.5 -23t-20.5 -59q0 -31 19 -51.5t61 -39.5zM687 93q0 56 -86 94l-28 12l-14 7q-60 -38 -60 -106q0 -41 28 -68t68 -27q39 0 65.5 25.5t26.5 62.5z" />
    <glyph glyph-name="arrowleft" unicode="&#x2190;" horiz-adv-x="822" 
d="M786 364q2 -100 -49 -187.5t-138.5 -139t-187.5 -49.5q-153 -3 -265.5 110t-109.5 266q-3 153 109.5 266t265.5 110q100 2 187.5 -49.5t138.5 -139t49 -187.5zM764 364q3 146 -103 253.5t-250 104.5q-144 3 -250 -104.5t-103 -253.5q-3 -146 103 -253.5t250 -104.5
q144 -3 250 104.5t103 253.5zM649 265q0 -8 -1 -10h-127q-5 22 -24 53q-20 34 -34 48h-136q53 -80 75 -191l-9 -4q-40 52 -112 112q-71 61 -130 91q57 29 130 90q73 62 112 113l9 -4q-22 -111 -75 -191h136q13 13 34 47q19 33 24 54h127q4 -26 -16 -60q-20 -33 -47 -49
q26 -14 45 -43.5t19 -55.5zM574 457h-41q-20 -49 -49 -85h34q17 13 33.5 38t22.5 47zM632 457h-41q-12 -50 -51 -85h28q22 10 41.5 35.5t22.5 49.5zM518 356h-34q29 -36 49 -85h41q-6 22 -22.5 47t-33.5 38zM568 356h-28q39 -35 51 -85h41q-3 24 -22.5 49.5t-41.5 35.5z" />
    <glyph glyph-name="arrowup" unicode="&#x2191;" horiz-adv-x="822" 
d="M786 364q2 -100 -49 -187.5t-138.5 -139t-187.5 -49.5q-153 -3 -265.5 110t-109.5 266q-3 153 109.5 266t265.5 110q100 2 187.5 -49.5t138.5 -139t49 -187.5zM764 364q3 146 -103 253.5t-250 104.5q-144 3 -250 -104.5t-103 -253.5q-3 -146 103 -253.5t250 -104.5
q144 -3 250 104.5t103 253.5zM614 383l-4 -9q-111 22 -191 75v-136q13 -13 47 -34q33 -19 54 -24v-127q-2 -1 -10 -1q-26 0 -55.5 19t-43.5 45q-17 -29 -49 -48q-33 -19 -60 -15v127q22 5 53 24q34 20 48 34v136q-80 -53 -191 -75l-4 9q52 40 112 112q61 71 91 130
q29 -57 90 -130q62 -73 113 -112zM403 258v34q-36 -29 -85 -49v-41q22 6 47 22.5t38 33.5zM504 202v41q-49 20 -85 49v-34q13 -17 38 -33.5t47 -22.5zM403 208v28q-35 -39 -85 -51v-41q24 3 49.5 22.5t35.5 41.5zM504 144v41q-50 12 -85 51v-28q10 -22 35.5 -41.5
t49.5 -22.5z" />
    <glyph glyph-name="arrowright" unicode="&#x2192;" horiz-adv-x="822" 
d="M786 364q2 -100 -49 -187.5t-138.5 -139t-187.5 -49.5q-153 -3 -265.5 110t-109.5 266q-3 153 109.5 266t265.5 110q100 2 187.5 -49.5t138.5 -139t49 -187.5zM764 364q3 146 -103 253.5t-250 104.5q-144 3 -250 -104.5t-103 -253.5q-3 -146 103 -253.5t250 -104.5
q144 -3 250 104.5t103 253.5zM671 364q-59 -30 -130 -91q-72 -60 -112 -112l-9 4q22 111 75 191h-136q-14 -14 -34 -48q-19 -31 -24 -53h-127q-1 2 -1 10q0 26 19 55.5t45 43.5q-29 17 -48 49q-19 33 -15 60h127q5 -21 24 -54q21 -34 34 -47h136q-53 80 -75 191l9 4
q39 -51 112 -113q73 -61 130 -90zM254 372h28q-39 35 -51 85h-41q3 -24 22.5 -49.5t41.5 -35.5zM304 372h34q-29 36 -49 85h-41q6 -22 22.5 -47t33.5 -38zM190 271h41q12 50 51 85h-28q-22 -10 -41.5 -35.5t-22.5 -49.5zM248 271h41q20 49 49 85h-34q-17 -13 -33.5 -38
t-22.5 -47z" />
    <glyph glyph-name="arrowdown" unicode="&#x2193;" horiz-adv-x="822" 
d="M786 364q2 -100 -49 -187.5t-138.5 -139t-187.5 -49.5q-153 -3 -265.5 110t-109.5 266q-3 153 109.5 266t265.5 110q100 2 187.5 -49.5t138.5 -139t49 -187.5zM764 364q3 146 -103 253.5t-250 104.5q-144 3 -250 -104.5t-103 -253.5q-3 -146 103 -253.5t250 -104.5
q144 -3 250 104.5t103 253.5zM610 354l4 -9q-51 -39 -113 -112q-61 -73 -90 -130q-30 59 -91 130q-60 72 -112 112l4 9q111 -22 191 -75v136q-14 14 -48 34q-31 19 -53 24v127q26 4 60 -16q33 -20 49 -47q14 26 43.5 45t55.5 19q8 0 10 -1v-127q-21 -5 -54 -24
q-34 -21 -47 -34v-136q80 53 191 75zM318 584v-41q50 -12 85 -51v28q-10 22 -35.5 41.5t-49.5 22.5zM419 520v-28q35 39 85 51v41q-24 -3 -49.5 -22.5t-35.5 -41.5zM318 526v-41q49 -20 85 -49v34q-13 17 -38 33.5t-47 22.5zM419 470v-34q36 29 85 49v41q-22 -6 -47 -22.5
t-38 -33.5z" />
    <glyph glyph-name="uni2196" unicode="&#x2196;" horiz-adv-x="822" 
d="M786 364q2 -100 -49 -187.5t-138.5 -139t-187.5 -49.5q-153 -3 -265.5 110t-109.5 266q-3 153 109.5 266t265.5 110q100 2 187.5 -49.5t138.5 -139t49 -187.5zM764 364q3 146 -103 253.5t-250 104.5q-144 3 -250 -104.5t-103 -253.5q-3 -146 103 -253.5t250 -104.5
q144 -3 250 104.5t103 253.5zM566 363l90 -90q-25 -36 -91 -36q-17 0 -30 3q3 -14 3 -30q0 -66 -36 -91l-90 90q12 22 20 55q10 34 10 58l-97 96q-17 -94 -81 -188l-9 3q4 25 4 72q0 145 -32 243q98 -32 243 -32q47 0 72 4l3 -9q-94 -64 -188 -81l96 -97q22 0 58 9
q35 10 55 21zM506 293q47 0 86 22l-28 28q-49 -20 -96 -25l24 -24q3 -1 14 -1zM432 211l28 -28q22 39 22 86q0 11 -1 14l-24 24q-5 -47 -25 -96zM562 253q43 0 71 20l-29 30q-45 -29 -97 -24l21 -21q15 -5 34 -5zM522 213q0 21 -5 34l-21 21q5 -52 -24 -97l30 -29
q20 28 20 71z" />
    <glyph glyph-name="uni2197" unicode="&#x2197;" horiz-adv-x="822" 
d="M786 364q2 -100 -49 -187.5t-138.5 -139t-187.5 -49.5q-153 -3 -265.5 110t-109.5 266q-3 153 109.5 266t265.5 110q100 2 187.5 -49.5t138.5 -139t49 -187.5zM764 364q3 146 -103 253.5t-250 104.5q-144 3 -250 -104.5t-103 -253.5q-3 -146 103 -253.5t250 -104.5
q144 -3 250 104.5t103 253.5zM352 516q145 0 243 32q-32 -98 -32 -243q0 -47 4 -72l-9 -3q-64 94 -81 188l-97 -96q0 -22 9 -58q10 -35 21 -55l-90 -90q-36 25 -36 91q0 16 3 30q-13 -3 -30 -3q-66 0 -91 36l90 90q20 -11 55 -21q36 -9 58 -9l96 97q-94 17 -188 81l3 9
q25 -4 72 -4zM330 294l24 24q-47 5 -96 25l-28 -28q39 -22 86 -22q11 0 14 1zM365 307l-24 -24q-1 -3 -1 -14q0 -47 22 -86l28 28q-20 49 -25 96zM260 253q21 0 34 5l21 21q-52 -5 -97 24l-29 -30q28 -20 71 -20zM300 213q0 -43 20 -71l30 29q-29 45 -24 97l-21 -21
q-5 -13 -5 -34z" />
    <glyph glyph-name="uni2198" unicode="&#x2198;" horiz-adv-x="822" 
d="M786 364q2 -100 -49 -187.5t-138.5 -139t-187.5 -49.5q-153 -3 -265.5 110t-109.5 266q-3 153 109.5 266t265.5 110q100 2 187.5 -49.5t138.5 -139t49 -187.5zM764 364q3 146 -103 253.5t-250 104.5q-144 3 -250 -104.5t-103 -253.5q-3 -146 103 -253.5t250 -104.5
q144 -3 250 104.5t103 253.5zM563 423q0 -145 32 -243q-98 32 -243 32q-47 0 -72 -4l-3 9q94 64 188 81l-96 97q-24 0 -58 -10q-33 -8 -55 -20l-90 90q25 36 91 36q17 0 30 -3q-3 14 -3 30q0 66 36 91l90 -90q-11 -20 -21 -55q-9 -36 -9 -58l97 -96q17 94 81 188l9 -3
q-4 -25 -4 -72zM300 515q0 -19 5 -34l21 -21q-5 52 24 97l-30 29q-20 -28 -20 -71zM390 517l-28 28q-22 -39 -22 -86q0 -11 1 -14l24 -24q5 47 25 96zM260 475q-43 0 -71 -20l29 -30q45 29 97 24l-21 21q-13 5 -34 5zM316 435q-47 0 -86 -22l28 -28q49 20 96 25l-24 24
q-3 1 -14 1z" />
    <glyph glyph-name="uni2199" unicode="&#x2199;" horiz-adv-x="822" 
d="M786 364q2 -100 -49 -187.5t-138.5 -139t-187.5 -49.5q-153 -3 -265.5 110t-109.5 266q-3 153 109.5 266t265.5 110q100 2 187.5 -49.5t138.5 -139t49 -187.5zM764 364q3 146 -103 253.5t-250 104.5q-144 3 -250 -104.5t-103 -253.5q-3 -146 103 -253.5t250 -104.5
q144 -3 250 104.5t103 253.5zM565 491q66 0 91 -36l-90 -90q-22 12 -55 20q-34 10 -58 10l-96 -97q94 -17 188 -81l-3 -9q-25 4 -72 4q-145 0 -243 -32q32 98 32 243q0 47 -4 72l9 3q64 -94 81 -188l97 96q0 24 -10 58q-8 33 -20 55l90 90q36 -25 36 -91q0 -16 -3 -30
q13 3 30 3zM522 515q0 43 -20 71l-30 -29q29 -45 24 -97l21 21q5 15 5 34zM457 421l24 24q1 3 1 14q0 47 -22 86l-28 -28q20 -49 25 -96zM562 475q-19 0 -34 -5l-21 -21q52 5 97 -24l29 30q-28 20 -71 20zM492 434l-24 -24q47 -5 96 -25l28 28q-39 22 -86 22q-11 0 -14 -1z
" />
    <glyph glyph-name="partialdiff" unicode="&#x2202;" horiz-adv-x="525" 
d="M483 418q2 -188 -75.5 -310.5t-197.5 -119.5q-84 0 -135.5 56t-51.5 148q0 103 64 168t164 65t175 -82q3 35 3 73q0 142 -41.5 220t-119.5 78q-44 0 -92 -24t-79 -62l-12 12q82 100 194 100q98 0 151 -83.5t53 -238.5zM424 317q-71 88 -167 88q-84 0 -132 -54.5
t-48 -148.5q0 -87 40 -143.5t102 -56.5q75 0 131.5 87.5t73.5 227.5z" />
    <glyph glyph-name="uni2206" unicode="&#x2206;" horiz-adv-x="616" 
d="M310 740l287 -740h-578l287 740h4zM533 18l-243 631l-245 -631h488z" />
    <glyph glyph-name="product" unicode="&#x220f;" horiz-adv-x="652" 
d="M517 708v-768h-52v770h-64h-150h-64v-770h-52v768q-53 -4 -110 -10l12 30h578l12 -30q-81 9 -110 10z" />
    <glyph glyph-name="summation" unicode="&#x2211;" horiz-adv-x="542" 
d="M516 -22h2l-16 -38h-479v4l239 396l-231 384v4h459l12 -38h-2q-76 10 -147 15q-78 5 -165 5h-89l225 -369l-233 -383h104q186 0 321 20z" />
    <glyph glyph-name="minus" unicode="&#x2212;" horiz-adv-x="508" 
d="M50 354v20h408v-20h-408z" />
    <glyph glyph-name="uni2215" unicode="&#x2215;" horiz-adv-x="412" 
d="M-26 0l440 728h23l-440 -728h-23z" />
    <glyph glyph-name="uni2219" unicode="&#x2219;" horiz-adv-x="320" 
d="M160 225l-71 70l71 71l71 -71z" />
    <glyph glyph-name="radical" unicode="&#x221a;" horiz-adv-x="527" 
d="M516 713l20 -6l-271 -719h-4l-187 409h-82v16h120l160 -349z" />
    <glyph glyph-name="infinity" unicode="&#x221e;" horiz-adv-x="819" 
d="M783 355q0 -63 -46 -109t-110 -46q-65 0 -115 32t-102 99q-52 -67 -102 -99t-115 -32q-64 0 -110 46t-46 109t46 109t110 46q65 0 115 -32t102 -99q52 67 102 99t115 32q64 0 110 -46t46 -109zM392 356q-57 74 -96.5 103t-102.5 31q-53 0 -91.5 -39.5t-38.5 -95.5
t38.5 -95.5t91.5 -39.5q42 0 76 17q32 16 58 42t65 77zM757 355q0 56 -38.5 95.5t-91.5 39.5q-41 0 -77 -17q-31 -16 -57.5 -42.5t-64.5 -76.5q57 -74 96.5 -103t102.5 -31q53 0 91.5 39.5t38.5 95.5z" />
    <glyph glyph-name="integral" unicode="&#x222b;" horiz-adv-x="435" 
d="M-32 -228v14q60 9 98.5 56t46.5 123l69 663q10 90 53 138t112 48q63 0 119 -35l-6 -12q-47 23 -99 23q-115 0 -132 -170l-68 -655q-8 -81 -58 -131t-135 -62z" />
    <glyph glyph-name="approxequal" unicode="&#x2248;" horiz-adv-x="508" 
d="M251 422q-59 29 -91 29q-55 0 -95 -31l-14 16q47 35 109 35q33 0 101 -31q61 -29 90 -29q55 0 95 31l14 -16q-47 -35 -109 -35q-36 0 -100 31zM251 279q-59 29 -91 29q-55 0 -95 -31l-14 16q47 35 109 35q33 0 101 -31q61 -29 90 -29q55 0 95 31l14 -16q-47 -35 -109 -35
q-36 0 -100 31z" />
    <glyph glyph-name="notequal" unicode="&#x2260;" horiz-adv-x="508" 
d="M458 426h-153l-77 -124h230v-20h-242l-82 -132l-18 12l74 120h-140v20h153l77 124h-230v20h242l82 132l18 -12l-74 -120h140v-20z" />
    <glyph glyph-name="lessequal" unicode="&#x2264;" horiz-adv-x="508" 
d="M455 544l-379 -180l379 -180l-10 -18l-398 189v18l398 189zM47 12v20h408v-20h-408z" />
    <glyph glyph-name="greaterequal" unicode="&#x2265;" horiz-adv-x="508" 
d="M63 562l398 -189v-18l-398 -189l-10 18l379 180l-379 180zM53 12v20h408v-20h-408z" />
    <glyph glyph-name="uni25B4" unicode="&#x25b4;" horiz-adv-x="323" 
d="M34 251l127 227l127 -227h-254z" />
    <glyph glyph-name="uni25B8" unicode="&#x25b8;" horiz-adv-x="324" 
d="M258 237l-227 127l227 128v-255z" />
    <glyph glyph-name="uni25BE" unicode="&#x25be;" horiz-adv-x="317" 
d="M159 251l-127 227h254z" />
    <glyph glyph-name="uni25C2" unicode="&#x25c2;" horiz-adv-x="324" 
d="M66 237v255l227 -128z" />
    <glyph glyph-name="lozenge" unicode="&#x25ca;" horiz-adv-x="505" 
d="M255 740l224 -370l-224 -370h-4l-224 370l224 370h4zM233 64l186 306l-186 306l-186 -306z" />
    <glyph glyph-name="uni2610" unicode="&#x2610;" horiz-adv-x="726" 
d="M64 596h598v-596h-598v596zM640 576h-554v-556h554v556z" />
    <glyph glyph-name="uni2611" unicode="&#x2611;" horiz-adv-x="726" 
d="M382 184q113 241 333 539l21 -13l-364 -590q-80 141 -168 246l36 25q83 -101 142 -207zM640 20v428l22 36v-484h-598v596h481l-12 -20h-447v-556h554z" />
    <glyph glyph-name="uni2612" unicode="&#x2612;" horiz-adv-x="726" 
d="M64 596h598v-596h-598v596zM640 576h-554v-556h554v556zM179 129l169 169l-169 169l15 15l169 -169l169 169l15 -15l-169 -169l169 -169l-15 -15l-169 169l-169 -169z" />
    <glyph glyph-name="uni2661" unicode="&#x2661;" horiz-adv-x="964" 
d="M932 370q0 -86 -42 -152q-40 -64 -98 -108t-141 -92q-135 -80 -164 -161l-13 -6q-11 45 -39.5 74t-125.5 89q-112 71 -155 104q-122 95 -122 233q0 116 72.5 193.5t178.5 77.5q67 0 121 -32t82 -85q33 53 88 84.5t122 31.5q102 0 169 -71t67 -180zM631 29l20 12
q64 38 112 75q117 91 117 239q0 106 -58 177.5t-143 71.5q-69 0 -124 -48q-53 -46 -70 -120l-9 -4q-17 71 -76 121.5t-130 50.5q-82 0 -134 -66.5t-52 -170.5q0 -85 34 -143q35 -60 83 -96q56 -42 139 -95q60 -37 90.5 -63t50.5 -59q41 52 150 118z" />
    <glyph glyph-name="heart" unicode="&#x2665;" horiz-adv-x="964" 
d="M932 370q0 -86 -42 -152q-40 -64 -98 -108t-141 -92q-135 -80 -164 -161l-13 -6q-11 45 -39.5 74t-125.5 89q-112 71 -155 104q-122 95 -122 233q0 116 72.5 193.5t178.5 77.5q68 0 122.5 -34t79.5 -90q32 57 87 90t124 33q102 0 169 -71t67 -180z" />
    <glyph glyph-name="uni2713" unicode="&#x2713;" horiz-adv-x="726" 
d="M715 723l21 -13l-364 -590q-80 141 -168 246l36 25q83 -101 142 -207q113 241 333 539z" />
    <glyph glyph-name="uni275B" unicode="&#x275b;" horiz-adv-x="294" 
d="M34 203q0 83 55.5 157t153.5 107l4 -10q-70 -26 -111 -80t-41 -115q0 -64 47.5 -108.5t120.5 -44.5v-109q-108 0 -168.5 58t-60.5 145z" />
    <glyph glyph-name="uni275C" unicode="&#x275c;" horiz-adv-x="293" 
d="M55 261l-4 10q70 26 111 80t41 115q0 64 -47.5 108.5t-120.5 44.5v109q108 0 168.5 -58t60.5 -145q0 -83 -55.5 -157t-153.5 -107z" />
    <glyph glyph-name="uni275D" unicode="&#x275d;" horiz-adv-x="532" 
d="M34 203q0 83 55.5 157t153.5 107l4 -10q-70 -26 -111 -80t-41 -115q0 -63 45.5 -107.5t116.5 -45.5v-109q-105 1 -164 59.5t-59 143.5zM273 203q0 83 55.5 157t153.5 107l4 -10q-71 -26 -111.5 -80t-40.5 -115q0 -64 47.5 -108.5t120.5 -44.5v-109q-108 0 -168.5 58
t-60.5 145z" />
    <glyph glyph-name="uni275E" unicode="&#x275e;" horiz-adv-x="532" 
d="M55 261l-4 10q70 26 111 80t41 115q0 64 -47.5 108.5t-120.5 44.5v109q108 0 168.5 -58t60.5 -145q0 -83 -55.5 -157t-153.5 -107zM294 261l-4 10q70 26 110.5 80t40.5 115q0 62 -44.5 106t-113.5 47v109q104 -3 161.5 -60.5t57.5 -142.5q0 -83 -55.5 -157t-152.5 -107z
" />
    <glyph glyph-name="uni2766" unicode="&#x2766;" horiz-adv-x="1027" 
d="M617 743q-78 -113 -97 -317q38 60 102 91q64 33 131 33q74 0 121.5 -39.5t47.5 -107.5q0 -44 -20 -86q-12 -26 -31 -52.5t-35.5 -45t-57.5 -60.5q-43 -43 -75 -80q-66 -77 -66 -154q0 -52 28 -80.5t74 -28.5q90 0 166 101l11 -4q-51 -76 -109 -113.5t-140 -37.5
q-134 0 -257 93t-198 233t-75 269q0 81 39 130t98 49q86 0 157 -97q-3 -26 -5 -79v-89q0 -93 28 -192q29 -100 75 -155q-61 120 -61 368q0 308 121 461q-109 40 -183 61q-69 20 -133 20q-82 0 -133.5 -34t-51.5 -90q0 -26 20 -63l-44 -16q-24 41 -24 87q0 66 57.5 108
t152.5 42q73 0 145 -22q83 -25 185 -64l25 -9q95 107 242 107q72 0 114 -24.5t42 -65.5q0 -43 -44.5 -71t-113.5 -28q-78 0 -228 52zM631 762q145 -55 218 -55q53 0 82.5 22.5t29.5 57.5q0 36 -33 56.5t-89 20.5q-125 0 -208 -102z" />
    <glyph glyph-name="uniFB00" unicode="&#xfb00;" horiz-adv-x="671" 
d="M511 630v-99h167l-13 -22h-154v-509h-95v509h-225v-509h-95v509h-77v22h77v88q0 90 45.5 139.5t126.5 49.5q76 0 151 -42l-7 -13q-50 21 -101 21q-120 0 -120 -150v-93h225v94q0 90 45 139.5t126 49.5q82 0 158 -46l-7 -12q-54 24 -107 24q-120 0 -120 -150z" />
    <glyph glyph-name="fi" unicode="&#xfb01;" horiz-adv-x="580" 
d="M479 531l37 11h4v-542h-95v509h-234v-509h-95v509h-77v22h77v94q0 90 45.5 139.5t124.5 49.5q56 0 117 -30l-4 -13q-33 9 -68 9q-120 0 -120 -150v-99h288zM540 694l-68 -68l-68 68l68 68z" />
    <glyph glyph-name="fl" unicode="&#xfb02;" horiz-adv-x="582" 
d="M517 810h4v-810h-94v756q-60 24 -116 24q-120 0 -120 -150v-99h168l-14 -22h-154v-509h-95v509h-77v22h77v94q0 90 45.5 139.5t126.5 49.5q83 0 161 -43z" />
    <glyph glyph-name="uniFB03" unicode="&#xfb03;" horiz-adv-x="900" 
d="M798 531l37 11h4v-542h-94v509h-234v-509h-95v509h-225v-509h-95v509h-77v22h77v88q0 90 45.5 139.5t126.5 49.5q76 0 151 -42l-7 -13q-50 21 -101 21q-120 0 -120 -150v-93h225v94q0 90 45.5 139.5t124.5 49.5q56 0 117 -30l-4 -13q-35 9 -68 9q-120 0 -120 -150v-99
h287zM860 694l-68 -68l-68 68l68 68z" />
    <glyph glyph-name="uniFEFF" unicode="&#xfeff;" 
 />
    <glyph glyph-name="NULL" 
 />
    <glyph glyph-name="i.latn_TRK" horiz-adv-x="215" 
d="M60 0v515l90 27h4v-542h-94zM107 619l-68 68l68 68l68 -68z" />
    <glyph glyph-name="Ldot.latn_CAT" horiz-adv-x="470" 
d="M437 75h2l-19 -75h-348v728h102v-710h19q115 0 244 57zM369 341l-71 70l71 71l71 -71z" />
    <glyph glyph-name="ldot.latn_CAT" horiz-adv-x="347" 
d="M60 0v780l91 30h4v-810h-95zM279 321l-71 70l71 71l71 -71z" />
    <glyph glyph-name="zero.numr" horiz-adv-x="401" 
d="M31 510q0 104 46 163.5t124 59.5q77 0 123 -58t46 -158q0 -104 -46 -164t-124 -60q-77 0 -123 58.5t-46 158.5zM301 511q0 100 -27 156t-75 56q-47 0 -73 -55t-26 -152q0 -99 27 -155.5t75 -56.5q47 0 73 55t26 152z" />
    <glyph glyph-name="one.numr" horiz-adv-x="193" 
d="M137 735h3v-435h-60v356q-27 -13 -66 -26v10q28 10 63.5 37.5t59.5 57.5z" />
    <glyph glyph-name="two.numr" horiz-adv-x="325" 
d="M299 355l-16 -56h-263v3l34 36q88 91 127.5 154.5t39.5 116.5q0 42 -23 67t-60 25q-64 0 -105 -69l-10 4q46 97 141 97q55 0 89.5 -31t34.5 -84q-2 -56 -46.5 -111.5t-165.5 -161.5l-1 -1h38q103 0 186 11z" />
    <glyph glyph-name="three.numr" horiz-adv-x="320" 
d="M23 320l10 37q46 -52 97 -52q45 0 73 29t28 73q0 43 -28 72t-73 34l-22 2l-2 9l19 7q39 13 62.5 40t23.5 62q0 32 -20 51t-53 19q-58 0 -98 -52l-10 4q51 78 134 78q48 0 79 -24.5t31 -63.5q0 -32 -25.5 -60t-63.5 -41v-2q45 -9 74.5 -41t29.5 -77q0 -55 -44 -93
t-111 -38q-50 0 -111 27z" />
    <glyph glyph-name="four.numr" horiz-adv-x="333" 
d="M316 454l-11 -40h-53v-115h-60v115h-179l-7 21l232 297h14v-278h64zM41 454h151v195z" />
    <glyph glyph-name="five.numr" horiz-adv-x="308" 
d="M280 432q0 -59 -44 -99t-109 -40q-53 0 -107 27l9 32q40 -46 96 -46q43 0 72 29.5t29 74.5q0 54 -41 84t-118 30h-22l18 204h210l-15 -46h-183l-9 -104h22q91 0 141.5 -39.5t50.5 -106.5z" />
    <glyph glyph-name="six.numr" horiz-adv-x="345" 
d="M30 464q0 96 62.5 170.5t159.5 98.5l3 -9q-75 -25 -116.5 -94.5t-41.5 -167.5q0 -74 23.5 -116t63.5 -42q36 0 55.5 31t19.5 86q0 54 -21 85t-57 31q-32 0 -57 -22l-7 8q38 38 88 38q52 0 86.5 -36t34.5 -92q0 -62 -41 -101t-104 -39q-69 0 -110 47t-41 124z" />
    <glyph glyph-name="seven.numr" horiz-adv-x="293" 
d="M20 728h267v-4l-154 -425h-58l182 383h-70q-117 0 -178 -13z" />
    <glyph glyph-name="eight.numr" horiz-adv-x="345" 
d="M315 414q0 -53 -43 -87q-41 -34 -104 -34q-59 0 -99 28.5t-40 74.5q0 80 96 115q-77 41 -77 108q0 49 36.5 81.5t92.5 32.5q51 0 85.5 -26.5t34.5 -67.5q0 -68 -85 -104q103 -48 103 -121zM177 550l20 -9q53 38 53 98q0 36 -21.5 60t-55.5 24q-35 0 -55.5 -23t-20.5 -59
q0 -31 19 -51.5t61 -39.5zM265 392q0 56 -86 94l-28 12l-14 7q-60 -38 -60 -106q0 -41 28 -68t68 -27q39 0 65.5 25.5t26.5 62.5z" />
    <glyph glyph-name="nine.numr" horiz-adv-x="344" 
d="M93 293l-4 10q76 24 117 93t41 169q0 74 -23.5 116t-63.5 42q-35 0 -55 -31.5t-20 -85.5t21 -85t57 -31q31 0 58 21l7 -8q-40 -37 -89 -37q-52 0 -86 36t-34 92q0 61 40.5 100t104.5 39q69 0 109.5 -46.5t40.5 -123.5q0 -95 -62 -170.5t-159 -99.5z" />
    <glyph glyph-name="zero.dnom" horiz-adv-x="401" 
d="M31 211q0 104 46 163.5t124 59.5q77 0 123 -58t46 -158q0 -104 -46 -164t-124 -60q-77 0 -123 58.5t-46 158.5zM301 212q0 100 -27 156t-75 56q-47 0 -73 -55t-26 -152q0 -99 27 -155.5t75 -56.5q47 0 73 55t26 152z" />
    <glyph glyph-name="one.dnom" horiz-adv-x="193" 
d="M137 435h3v-435h-60v356q-27 -13 -66 -26v10q28 10 63.5 37.5t59.5 57.5z" />
    <glyph glyph-name="two.dnom" horiz-adv-x="325" 
d="M299 56l-16 -56h-263v3l34 36q88 91 127.5 154.5t39.5 116.5q0 42 -23 67t-60 25q-64 0 -105 -69l-10 4q46 97 141 97q55 0 89.5 -31t34.5 -84q-2 -56 -46.5 -111.5t-165.5 -161.5l-1 -1h38q103 0 186 11z" />
    <glyph glyph-name="three.dnom" horiz-adv-x="320" 
d="M24 21l10 37q46 -52 97 -52q45 0 73 29t28 73q0 43 -28 72t-73 34l-22 2l-2 9l19 7q39 13 62.5 40t23.5 62q0 32 -20 51t-53 19q-58 0 -98 -52l-10 4q51 78 134 78q48 0 79 -24.5t31 -63.5q0 -32 -25.5 -60t-63.5 -41v-2q45 -9 74.5 -41t29.5 -77q0 -55 -44 -93t-111 -38
q-49 0 -111 27z" />
    <glyph glyph-name="four.dnom" horiz-adv-x="333" 
d="M317 155l-11 -40h-53v-115h-60v115h-179l-7 21l232 297h14v-278h64zM42 155h151v195z" />
    <glyph glyph-name="five.dnom" horiz-adv-x="308" 
d="M280 133q0 -59 -44 -99t-109 -40q-53 0 -107 27l9 32q40 -46 96 -46q43 0 72 29.5t29 74.5q0 54 -41 84t-118 30h-22l18 204h210l-15 -46h-183l-9 -104h22q91 0 141.5 -39.5t50.5 -106.5z" />
    <glyph glyph-name="six.dnom" horiz-adv-x="345" 
d="M30 165q0 96 62.5 170.5t159.5 98.5l3 -9q-75 -25 -116.5 -94.5t-41.5 -167.5q0 -74 23.5 -116t63.5 -42q36 0 55.5 31t19.5 86q0 54 -21 85t-57 31q-32 0 -57 -22l-7 8q38 38 88 38q52 0 86.5 -36t34.5 -92q0 -62 -41 -101t-104 -39q-69 0 -110 47t-41 124z" />
    <glyph glyph-name="seven.dnom" horiz-adv-x="293" 
d="M21 429h267v-4l-154 -425h-58l182 383h-70q-117 0 -178 -13z" />
    <glyph glyph-name="eight.dnom" horiz-adv-x="345" 
d="M315 115q0 -53 -43 -87q-41 -34 -104 -34q-59 0 -99 28.5t-40 74.5q0 80 96 115q-77 41 -77 108q0 49 36.5 81.5t92.5 32.5q51 0 85.5 -26.5t34.5 -67.5q0 -68 -85 -104q103 -48 103 -121zM177 251l20 -9q53 38 53 98q0 36 -21.5 60t-55.5 24q-35 0 -55.5 -23t-20.5 -59
q0 -31 19 -51.5t61 -39.5zM265 93q0 56 -86 94l-28 12l-14 7q-60 -38 -60 -106q0 -41 28 -68t68 -27q39 0 65.5 25.5t26.5 62.5z" />
    <glyph glyph-name="nine.dnom" horiz-adv-x="344" 
d="M93 -6l-4 10q76 24 117 93t41 169q0 74 -23.5 116t-63.5 42q-35 0 -55 -31.5t-20 -85.5t21 -85t57 -31q31 0 58 21l7 -8q-40 -37 -89 -37q-52 0 -86 36t-34 92q0 61 40.5 100t104.5 39q69 0 109.5 -46.5t40.5 -123.5q0 -95 -62 -170.5t-159 -99.5z" />
    <glyph glyph-name="parenleft.case" horiz-adv-x="233" 
d="M41 354q0 135 38 231q37 94 118 197l13 -9q-68 -89 -96 -183q-29 -96 -29 -230t29 -233q28 -95 96 -184l-13 -9q-54 68 -87 126q-69 124 -69 294z" />
    <glyph glyph-name="parenright.case" horiz-adv-x="232" 
d="M36 -66l-13 9q68 89 96 184q29 99 29 233t-29 230q-29 94 -96 183l13 9q81 -103 118 -197q38 -96 38 -231q0 -94 -18 -164q-30 -120 -138 -256z" />
    <glyph glyph-name="hyphen.case" horiz-adv-x="324" 
d="M54 352v33h215v-33h-215z" />
    <glyph glyph-name="bracketleft.case" horiz-adv-x="255" 
d="M253 782v-12h-156q10 -125 15 -215q5 -98 5 -197t-5 -197q-5 -90 -15 -215h156v-12h-180v848h180z" />
    <glyph glyph-name="bracketright.case" horiz-adv-x="255" 
d="M2 782h180v-848h-180v12h156q-13 156 -16 215q-4 79 -4 197t4 197q3 59 16 215h-156v12z" />
    <glyph glyph-name="braceleft.case" horiz-adv-x="287" 
d="M138 674q0 -38 26 -104q24 -65 24 -91q0 -47 -36 -79.5t-91 -41.5q55 -9 91 -41.5t36 -78.5q0 -28 -24 -92q-26 -66 -26 -104q0 -50 34 -73t104 -23v-12q-111 0 -160.5 29.5t-49.5 95.5q0 44 30 110q25 59 25 89q0 39 -27 65.5t-72 28.5v12q45 2 72 28.5t27 65.5
q0 30 -25 89q-30 66 -30 110q0 66 49.5 95.5t160.5 29.5v-12q-70 0 -104 -23t-34 -73z" />
    <glyph glyph-name="braceright.case" horiz-adv-x="287" 
d="M166 258q0 -30 25 -89q30 -66 30 -110q0 -66 -49.5 -95.5t-160.5 -29.5v12q70 0 104 23t34 73q0 38 -26 104q-24 64 -24 92q0 46 36 78.5t91 41.5q-55 9 -91 41.5t-36 79.5q0 27 24 91q26 66 26 104q0 50 -34 73t-104 23v12q111 0 160.5 -29.5t49.5 -95.5q0 -44 -30 -110
q-25 -59 -25 -89q0 -39 27 -65.5t72 -28.5v-12q-45 -2 -72 -28.5t-27 -65.5z" />
    <glyph glyph-name="exclamdown.case" horiz-adv-x="223" 
d="M111 749l71 -70l-71 -71l-70 71zM104 519h15l45 -519h-106z" />
    <glyph glyph-name="guillemotleft.case" horiz-adv-x="488" 
d="M254 615l-129 -243l129 -243h-12l-204 243l204 243h12zM441 615l-129 -243l129 -243h-12l-204 243l204 243h12z" />
    <glyph glyph-name="uni00AD.case" horiz-adv-x="324" 
d="M54 352v33h215v-33h-215z" />
    <glyph glyph-name="periodcentered.case" horiz-adv-x="218" 
d="M109 341l-71 70l71 71l71 -71z" />
    <glyph glyph-name="guillemotright.case" horiz-adv-x="488" 
d="M59 615l204 -243l-204 -243h-12l129 243l-129 243h12zM246 615l204 -243l-204 -243h-12l129 243l-129 243h12z" />
    <glyph glyph-name="questiondown.case" horiz-adv-x="481" 
d="M243 749l71 -70l-71 -71l-71 71zM316 454q0 -28 -17 -53t-59 -65q-36 -36 -53 -57q-48 -55 -48 -120q0 -58 38.5 -94t101.5 -36q97 0 170 84l12 -8q-36 -45 -90 -81t-139 -36q-87 0 -143 44q-55 45 -55 118q0 43 21 79q20 33 48 58.5t83 65.5q55 39 76.5 62t21.5 47
q0 43 -53 43q-12 0 -27 -3l-3 14q15 3 31 3q37 0 60.5 -17t23.5 -48z" />
    <glyph glyph-name="gravecomb.case" 
d="M-147 797l-181 170h118l70 -165z" />
    <glyph glyph-name="acutecomb.case" 
d="M-252 797l-7 5l70 165h118z" />
    <glyph glyph-name="uni0302.case" 
d="M-32 802l-6 -5l-162 92l-162 -92l-6 5l165 165h6z" />
    <glyph glyph-name="tildecomb.case" 
d="M-365 809l-9 3q14 111 87 111q32 0 107 -32q66 -26 85 -26q44 0 60 58l10 -2q-16 -112 -88 -112q-31 0 -105 31q-58 27 -86 27q-45 0 -61 -58z" />
    <glyph glyph-name="uni0304.case" 
d="M-356 824v32h313v-32h-313z" />
    <glyph glyph-name="uni0306.case" 
d="M-362 957l9 3q18 -42 60 -68.5t93 -26.5q52 0 94 26.5t60 68.5l9 -3q-41 -148 -163 -148q-121 0 -162 148z" />
    <glyph glyph-name="uni0307.case" 
d="M-200 811l-71 70l71 71l71 -71z" />
    <glyph glyph-name="uni0308.case" 
d="M-304 811l-61 60l61 60l59 -60zM-108 811l-61 60l61 60l59 -60z" />
    <glyph glyph-name="uni030A.case" 
d="M-309 897q0 44 31.5 72t77.5 28t77.5 -28t31.5 -72t-31.5 -72t-77.5 -28t-77.5 28t-31.5 72zM-136 897q0 40 -17 63.5t-47 23.5t-47 -23.5t-17 -63.5t17 -63.5t47 -23.5t47 23.5t17 63.5z" />
    <glyph glyph-name="uni030B.case" 
d="M-343 797l-7 5l72 165h101zM-207 797l-7 5l73 165h100z" />
    <glyph glyph-name="uni030C.case" 
d="M-38 967l6 -5l-165 -165h-6l-165 165l6 5l162 -92z" />
    <glyph glyph-name="uni0326.case" 
d="M-239 -276l-5 6q55 33 55 82q0 52 -66 86l48 53q34 -14 53 -40t19 -58q0 -38 -29 -72.5t-75 -56.5z" />
    <glyph glyph-name="uni0327.case" 
d="M-99 -136q0 -38 -31.5 -62t-81.5 -24t-82 18l3 9q25 -9 63 -9q33 0 53 14.5t20 36.5q0 21 -20.5 35t-55.5 14h-26l47 104h20l-23 -51q53 -4 83.5 -27.5t30.5 -57.5z" />
    <glyph glyph-name="uni0328.case" 
d="M-288 -149q0 38 29.5 72t94.5 78h15q-68 -71 -68 -128q0 -29 16 -45.5t42 -16.5q25 0 62 15l3 -5q-50 -43 -112 -43q-36 0 -59 20t-23 53z" />
    <glyph glyph-name="endash.case" horiz-adv-x="475" 
d="M43 374v18h390v-18h-390z" />
    <glyph glyph-name="emdash.case" horiz-adv-x="765" 
d="M43 374v18h680v-18h-680z" />
    <glyph glyph-name="bullet.case" horiz-adv-x="319" 
d="M159 298l-101 101l101 101l102 -101z" />
    <glyph glyph-name="guilsinglleft.case" horiz-adv-x="301" 
d="M253 600l-129 -243l129 -243h-12l-204 243l204 243h12z" />
    <glyph glyph-name="guilsinglright.case" horiz-adv-x="301" 
d="M61 600l204 -243l-204 -243h-12l129 243l-129 243h12z" />
    <glyph glyph-name="A_A" horiz-adv-x="1027" 
d="M818 239h-285l-7 -20l89 -219h-111l-96 239h-284q-55 -148 -59 -239h-69q53 109 130 300l8 19l174 425h4l202 -496l200 496h4l308 -744h-111zM671 599l-119 -309l-12 -33h270zM131 257h270l-135 334l-113 -279z" />
    <glyph glyph-name="A_N_D" horiz-adv-x="936" 
d="M61 201h-41q31 72 49 114l13 31l79 192h7l141 -337h-61l-44 106h-120q-23 -63 -23 -106zM326 345v150l-24 33v3h64l171 -236v91q0 96 -9 145h35q-8 -56 -8 -145v-191h-9l-204 278v-128q0 -91 8 -144h-33q9 48 9 144zM713 201h-112v330h119q83 0 130.5 -43t47.5 -119
q0 -79 -49.5 -123.5t-135.5 -44.5zM716 518h-58v-302q19 -3 62 -3q56 0 87 40.5t31 113.5q0 68 -33.5 109.5t-88.5 41.5zM144 454l-46 -111l-9 -23h110zM44 120v14h821v-14h-821z" />
    <glyph glyph-name="C_A" horiz-adv-x="1232" 
d="M1120 0l-96 239h-284q-55 -148 -59 -239h-58l67 161q-51 -79 -129.5 -126t-173.5 -47q-152 0 -250.5 103t-98.5 267q-2 169 104.5 276.5t265.5 105.5q82 0 154.5 -32t118.5 -85l-50 -45q-41 68 -100.5 107t-127.5 39q-112 0 -182.5 -97t-70.5 -244q0 -161 79 -256
t203 -95q93 0 173.5 62.5t114.5 151.5l204 498h4l303 -744h-111zM747 257h270l-135 334l-113 -279z" />
    <glyph glyph-name="C_O_period" horiz-adv-x="1082" 
d="M38 358q-2 169 104.5 276.5t265.5 105.5q82 0 154.5 -32t118.5 -85l-50 -45q-41 68 -100.5 107t-127.5 39q-112 0 -182.5 -97t-70.5 -244q0 -161 79 -256t203 -95q159 0 247 137l12 -7q-107 -174 -304 -174q-152 0 -250.5 103t-98.5 267zM683 348q0 81 54 134.5t135 53.5
t133 -51t52 -131q0 -82 -54 -135t-137 -53q-81 0 -132 51t-51 131zM992 349q0 78 -34.5 126t-89.5 48q-54 0 -87 -46t-33 -124t34.5 -126t88.5 -48t87.5 46.5t33.5 123.5zM870 -21l-66 66l66 66l67 -66z" />
    <glyph glyph-name="D_O" horiz-adv-x="1225" 
d="M1187 371q2 -168 -109.5 -276.5t-274.5 -106.5q-130 0 -227 74q-98 -62 -246 -62h-258v728h275q144 0 239 -61q97 73 229 73q159 2 266.5 -101t105.5 -268zM1075 360q0 162 -75 263t-193 101q-120 0 -193 -76q119 -96 119 -276q0 -183 -120 -284q78 -84 200 -84
q119 0 190.5 97.5t71.5 258.5zM546 87q-107 102 -107 271q0 167 107 274q-82 80 -208 80h-164v-687q42 -9 173 -9q122 0 199 71zM581 128q61 89 61 239q0 140 -67 231q-57 -92 -57 -230q0 -142 63 -240z" />
    <glyph glyph-name="D_O_G" horiz-adv-x="1628" 
d="M1327 330h260v-251q-124 -91 -285 -91q-148 0 -249 71q-98 -71 -236 -71q-141 0 -240 75q-100 -63 -247 -63h-258v728h275q143 0 241 -62q104 74 242 74q133 0 233 -70q100 70 233 70q83 0 155 -31.5t120 -85.5l-50 -45q-90 146 -236 146q-116 0 -191 -80
q113 -100 113 -273q0 -170 -111 -276q81 -89 211 -89q107 0 185 60v246h-154zM1028 78q-115 100 -115 281q0 175 116 283q-83 82 -208 82q-127 0 -205 -78q117 -94 117 -274q0 -182 -118 -283q82 -85 212 -85q121 0 201 74zM547 88q-108 102 -108 269q0 166 108 274
q-81 81 -209 81h-164v-687q42 -9 173 -9q125 0 200 72zM1062 602q-58 -91 -58 -236q0 -144 66 -238q59 94 59 232q0 145 -67 242zM582 130q60 88 60 237q0 139 -66 230q-58 -91 -58 -229q0 -143 64 -238z" />
    <glyph glyph-name="D_O_O" horiz-adv-x="1699" 
d="M1662 371q2 -168 -109.5 -276.5t-275.5 -106.5q-129 0 -224 71q-98 -71 -236 -71q-141 0 -240 75q-100 -63 -247 -63h-258v728h275q143 0 241 -62q104 74 242 74q133 0 233 -71q95 71 227 71q161 0 266.5 -101.5t105.5 -267.5zM1029 79q-116 103 -116 279q0 173 116 283
q-83 83 -208 83q-127 0 -205 -78q117 -94 117 -274q0 -182 -118 -283q82 -85 212 -85q122 0 202 75zM1550 360q0 162 -75 263t-194 101q-117 0 -192 -75q118 -102 118 -278q0 -178 -119 -284q80 -83 199 -83t191 97.5t72 258.5zM547 88q-108 102 -108 269q0 166 108 274
q-81 81 -209 81h-164v-687q42 -9 173 -9q125 0 200 72zM1062 118q67 92 67 242q0 153 -73 250q-64 -94 -64 -242q0 -150 70 -250zM582 130q60 88 60 237q0 139 -66 230q-58 -91 -58 -229q0 -143 64 -238z" />
    <glyph glyph-name="E_A" horiz-adv-x="1073" 
d="M962 0l-97 239h-284l-97 -239h-412v728h419l12 -63h-2q-133 45 -272 45h-55v-322h46q161 0 210 20h2v-62h-2q-53 24 -210 24h-46v-352h58q159 0 262 58l271 668h4l304 -744h-111zM588 257h270l-135 334z" />
    <glyph glyph-name="E_T" horiz-adv-x="1059" 
d="M520 67h2l-19 -67h-431v728h419l12 -63h-2q-133 45 -272 45h-55v-322h46q161 0 210 20h2v-62h-2q-53 24 -210 24h-46v-352h58q153 0 288 49zM1036 728l14 -71h-2q-115 53 -196 53h-24v-710h-102v710h-23q-75 0 -190 -45h-2l13 63h512z" />
    <glyph glyph-name="E_V" horiz-adv-x="1082" 
d="M1017 728h69q-53 -109 -130 -300l-8 -19l-174 -425h-4l-278 684q-30 24 -91 33t-172 9h-55v-322h46q161 0 210 20h2v-62h-2q-53 24 -210 24h-46v-352h58q153 0 288 49h2l-19 -67h-431v728h506l238 -591l113 279q48 116 66 185q19 67 22 127z" />
    <glyph glyph-name="E_V_T" horiz-adv-x="1581" 
d="M1558 728l14 -71h-2q-115 53 -197 53h-23v-710h-102v710h-23q-116 0 -173 -40v-2l-278 -684h-4l-278 684q-30 24 -91 33t-172 9h-55v-322h46q161 0 210 20h2v-62h-2q-53 24 -210 24h-46v-352h58q153 0 288 49h2l-19 -67h-431v728h506l238 -591l113 279q44 104 65 178
q17 59 32 134h532z" />
    <glyph glyph-name="E_W" horiz-adv-x="1399" 
d="M1336 728h63q-44 -105 -119 -319l-148 -425h-4l-195 570l-200 -570h-4l-236 683q-52 43 -264 43h-55v-322h46q161 0 210 20h2v-62h-2q-53 24 -210 24h-46v-352h58q153 0 288 49h2l-19 -67h-431v728h508l194 -568l200 568h4l195 -567l88 254q62 179 75 313z" />
    <glyph glyph-name="E_X" horiz-adv-x="1093" 
d="M867 464l-31 -44l233 -293v-149h-6l-294 368l-244 -346h-453v728h362l16 -63h-2q-80 27 -120 35q-41 10 -99 10h-55v-322h46q161 0 210 20h2v-62h-2q-53 24 -210 24h-46v-352h58q84 0 171 16q91 17 151 43l203 285l-293 366h128l232 -292l27 39q123 177 144 253h79
q-92 -100 -207 -264z" />
    <glyph glyph-name="E_X_A" horiz-adv-x="1665" 
d="M1553 0l-96 239h-283l-105 -261h-6l-294 368l-244 -346h-453v728h362l16 -63h-2q-80 27 -120 35q-41 10 -99 10h-55v-322h46q161 0 210 20h2v-62h-2q-53 24 -210 24h-46v-352h58q84 0 171 16q91 17 151 43l203 285l-293 366h128l232 -292l27 39q123 177 144 253h79
q-92 -100 -207 -264l-31 -44l258 -324l263 648h4l303 -744h-111zM1181 257h269l-135 333z" />
    <glyph glyph-name="E_X_T" horiz-adv-x="1535" 
d="M1512 728l14 -71h-2q-115 53 -197 53h-23v-710h-102v710h-23q-82 0 -168 -44l-175 -246l233 -293v-149h-6l-294 368l-244 -346h-453v728h362l16 -63h-2q-80 27 -120 35q-41 10 -99 10h-55v-322h46q161 0 210 20h2v-62h-2q-53 24 -210 24h-46v-352h58q84 0 171 16
q91 17 151 43l203 285l-293 366h128l232 -292l206 292h482z" />
    <glyph glyph-name="E_Y" horiz-adv-x="1029" 
d="M847 431l-60 -107v-324h-102v312l-210 365v1q-60 32 -246 32h-55v-322h46q161 0 210 20h2v-62h-2q-53 24 -210 24h-46v-352h58q153 0 288 49h2l-19 -67h-431v728h491l215 -381l52 93q99 176 126 288h63q-90 -151 -172 -297z" />
    <glyph glyph-name="F_T" horiz-adv-x="1042" 
d="M72 728h402l13 -63h-2q-133 45 -272 45h-39v-334h36q161 0 210 20h2v-62h-2q-53 24 -210 24h-36v-358h-102v728zM1020 728l13 -71h-2q-115 53 -196 53h-23v-710h-102v710h-24q-78 0 -189 -45h-2l12 63h513z" />
    <glyph glyph-name="F_V" horiz-adv-x="1030" 
d="M965 728h69q-53 -109 -130 -300l-8 -19l-174 -425h-4l-278 685q-54 41 -227 41h-39v-334h36q161 0 210 20h2v-62h-2q-53 24 -210 24h-36v-358h-102v728h454l238 -591l113 279q48 116 66 185q19 67 22 127z" />
    <glyph glyph-name="F_W" horiz-adv-x="1347" 
d="M1284 728h63q-44 -105 -119 -319l-148 -425h-4l-195 570l-200 -570h-4l-236 684q-55 42 -228 42h-39v-334h36q161 0 210 20h2v-62h-2q-53 24 -210 24h-36v-358h-102v728h456l194 -568l200 568h4l195 -567l88 254q62 179 75 313z" />
    <glyph glyph-name="F_Y" horiz-adv-x="997" 
d="M815 431l-60 -107v-324h-102v312l-204 355q-58 43 -236 43h-39v-334h36q161 0 210 20h2v-62h-2q-53 24 -210 24h-36v-358h-102v728h459l215 -381l52 93q99 176 126 288h63q-90 -151 -172 -297z" />
    <glyph glyph-name="K_A" horiz-adv-x="1183" 
d="M1072 0l-97 239h-283l-105 -261h-6l-375 395l145 136q146 136 194 219h80v-2q-85 -70 -261 -232l-74 -70l320 -335l265 655h4l304 -744h-111zM72 0v728h102v-728h-102zM699 257h269l-135 333z" />
    <glyph glyph-name="K_AE" horiz-adv-x="1470" 
d="M72 0v728h102v-728h-102zM1451 67h2l-19 -67h-431v262h-254l-162 -284h-6l-375 395l145 136q146 136 194 219h80v-2q-85 -70 -261 -232l-74 -70l330 -345l371 649h430l13 -63h-2q-134 45 -272 45h-55v-322h46q159 0 210 20h2v-62h-2q-56 24 -210 24h-46v-352h57
q154 0 289 49zM759 280h244v428z" />
    <glyph glyph-name="K_S" horiz-adv-x="1121" 
d="M1091 198q0 -93 -69 -151.5t-175 -58.5q-91 0 -195 31v66q37 -36 93.5 -58.5t110.5 -22.5q73 0 117 40q46 40 46 102q-3 64 -40.5 99t-119.5 74l-50 22q-56 26 -91 48q-93 60 -93 159q0 83 64 137.5t166 54.5q113 0 204 -53l-16 -56q-91 93 -199 93q-66 0 -106 -36
t-40 -92q3 -58 38 -90t118 -71l50 -23q67 -33 97 -53q90 -56 90 -161zM72 0v728h102v-728h-102zM364 494l-73 -69l337 -316v-131h-6l-416 395l145 136q146 136 194 219h80v-2q-85 -70 -261 -232z" />
    <glyph glyph-name="K_T" horiz-adv-x="1077" 
d="M72 0v728h102v-728h-102zM1054 728l14 -71h-2q-115 53 -197 53h-23v-710h-102v710h-23q-92 0 -188 -56l-242 -229l330 -318v-129h-6l-409 395l373 355h475z" />
    <glyph glyph-name="L_A" horiz-adv-x="1011" 
d="M899 0l-96 239h-285l-97 -239h-349v728h102v-710h19q123 0 239 60l270 666h4l304 -744h-111zM526 257h270l-135 334z" />
    <glyph glyph-name="L_AE" horiz-adv-x="1286" 
d="M1267 67h2l-19 -67h-431v262h-254l-149 -262h-344v728h102v-710h19q54 0 121.5 18.5t123.5 51.5l369 640h431l12 -63h-2q-134 45 -272 45h-55v-322h46q161 0 210 20h2v-62h-2q-53 24 -210 24h-46v-352h58q153 0 288 49zM575 280h244v428z" />
    <glyph glyph-name="L_L" horiz-adv-x="836" 
d="M415 73h2l-20 -73h-325v728h102v-710h19q111 0 222 55zM823 75h2l-20 -75h-348v728h102v-710h20q115 0 244 57z" />
    <glyph glyph-name="L_S" horiz-adv-x="928" 
d="M898 198q0 -93 -69 -151.5t-175 -58.5q-62 0 -127 16q-62 16 -105 37l15 66q38 -47 100 -75q63 -28 126 -28q73 0 117 40q46 40 46 102q-3 64 -40.5 99t-119.5 74l-50 22q-56 26 -91 48q-93 60 -93 159q0 83 64 137.5t166 54.5q113 0 204 -53l-16 -56q-91 93 -199 93
q-66 0 -106 -36t-40 -92q3 -58 38 -90t118 -71l50 -23q67 -33 97 -53q90 -56 90 -161zM427 79h2l-18 -79h-339v728h102v-710h19q95 0 234 61z" />
    <glyph glyph-name="M_C_period" horiz-adv-x="1225" 
d="M652 728h92l68 -728h-102l-62 665l-245 -619h-4l-271 594l-28 -321q-10 -101 -10 -193q0 -70 6 -126h-60q25 111 44 320l32 358l-22 47v3h110l241 -535zM1180 263l12 -7q-57 -90 -156 -90q-77 0 -127 51t-50 131q0 85 51.5 136.5t136.5 51.5q87 0 140 -64l-37 -25
q-40 76 -106 76q-53 0 -86.5 -45t-33.5 -118q0 -74 37.5 -120t96.5 -46q77 0 122 69zM971 45l66 66l67 -66l-67 -66z" />
    <glyph glyph-name="N_period" horiz-adv-x="333" 
d="M110 767l43 47q64 -26 64 -85q0 -33 -26 -62.5t-67 -48.5l-4 5q48 29 48 70q0 47 -58 74zM259 531h37q-10 -47 -10 -144v-190h-6l-210 277v-128q0 -91 11 -144h-38q11 53 11 144v149l-25 33v3h66l175 -236v92q0 89 -11 144zM217 -14q0 -33 -26 -62.5t-67 -48.5l-4 5
q48 29 48 70q0 46 -58 74l43 47q64 -26 64 -85z" />
    <glyph glyph-name="O_C" horiz-adv-x="1156" 
d="M1133 169l12 -7q-107 -174 -304 -174q-122 0 -211 67q-98 -67 -221 -67q-161 0 -266.5 101.5t-105.5 267.5q-2 168 109.5 276.5t275.5 106.5q124 0 219 -67q94 67 221 67q82 0 154 -32t119 -85l-50 -45q-41 68 -101.5 107t-131.5 39q-109 0 -180 -77q114 -103 114 -276
q0 -160 -98 -266q78 -73 197 -73q157 0 248 137zM606 74q-114 106 -114 284q0 180 116 288q-78 78 -194 78q-120 0 -192.5 -98t-72.5 -258q0 -162 75.5 -263t195.5 -101q113 0 186 70zM640 606q-57 -92 -57 -223q0 -151 73 -244q51 91 51 221q0 149 -67 246z" />
    <glyph glyph-name="O_F" horiz-adv-x="651" 
d="M38 361q0 77 50 126.5t127 49.5q75 0 123.5 -47.5t48.5 -121.5q0 -75 -50.5 -124t-127.5 -49t-124 46q-47 47 -47 120zM496 517h-14v-145h12q76 0 97 10h2v-35h-2q-27 11 -97 11h-12v-157h-57v330h190l7 -36h-2q-65 22 -124 22zM99 367q0 -72 32 -116t83 -44
q50 0 80.5 42t30.5 114t-31.5 116.5t-82.5 44.5t-81.5 -42.5t-30.5 -114.5zM71 120v14h518v-14h-518z" />
    <glyph glyph-name="O_G" horiz-adv-x="1206" 
d="M906 330h259v-251q-124 -91 -284 -91q-149 0 -247 70q-100 -70 -225 -70q-161 0 -266.5 101.5t-105.5 267.5q-2 168 109.5 276.5t275.5 106.5q127 0 221 -69q97 69 231 69q83 0 155.5 -31.5t119.5 -85.5l-50 -45q-90 146 -235 146q-116 0 -190 -78q112 -106 112 -275
q0 -170 -109 -277q80 -88 209 -88q109 0 184 60v246h-153zM609 77q-117 100 -117 282q0 179 117 285q-75 80 -195 80t-192.5 -98t-72.5 -258q0 -162 75.5 -263t195.5 -101q115 0 189 73zM642 604q-59 -95 -59 -238q0 -142 66 -239q58 91 58 233q0 147 -65 244z" />
    <glyph glyph-name="O_O" horiz-adv-x="1277" 
d="M1240 371q2 -168 -109.5 -276.5t-275.5 -106.5q-126 0 -221 70q-100 -70 -225 -70q-161 0 -266.5 101.5t-105.5 267.5q-2 168 109.5 276.5t275.5 106.5q124 0 222 -70q98 70 224 70q161 0 266.5 -101.5t105.5 -267.5zM610 78q-118 102 -118 280q0 176 118 285
q-76 81 -196 81t-192.5 -98t-72.5 -258q0 -162 75.5 -263t195.5 -101q116 0 190 74zM1128 360q0 162 -75 263t-193 101q-117 0 -191 -74q117 -104 117 -279q0 -179 -118 -286q79 -81 198 -81q118 0 190 98t72 258zM642 116q65 92 65 244q0 154 -71 252q-66 -94 -66 -244
q0 -154 72 -252z" />
    <glyph glyph-name="O_O_C" horiz-adv-x="1630" 
d="M1607 169l12 -7q-107 -174 -304 -174q-122 0 -213 68q-101 -68 -232 -68q-134 0 -235 71q-95 -71 -226 -71q-161 0 -266.5 101.5t-105.5 267.5q-2 168 109.5 276.5t275.5 106.5q129 0 224 -71q98 71 236 71q133 0 231 -69q95 69 223 69q82 0 154.5 -32t118.5 -85l-50 -45
q-41 68 -101 107t-131 39q-109 0 -182 -78q115 -102 115 -275q0 -160 -99 -265q80 -74 199 -74q159 0 247 137zM611 78q-119 102 -119 279q0 176 120 285q-79 82 -198 82q-120 0 -192.5 -98t-72.5 -258q0 -162 75.5 -263t195.5 -101q114 0 191 74zM1078 76
q-112 104 -112 282t114 286q-83 80 -206 80q-124 0 -204 -75q116 -106 116 -278q0 -174 -116 -284q81 -83 210 -83q122 0 198 72zM643 118q64 92 64 242q0 152 -70 250q-67 -92 -67 -242q0 -153 73 -250zM1113 604q-56 -92 -56 -221q0 -150 72 -242q52 88 52 219
q0 147 -68 244z" />
    <glyph glyph-name="O_O_G" horiz-adv-x="1681" 
d="M1380 330h259v-251q-124 -91 -284 -91q-148 0 -249 71q-98 -71 -236 -71q-134 0 -235 71q-95 -71 -226 -71q-161 0 -266.5 101.5t-105.5 267.5q-2 168 109.5 276.5t275.5 106.5q129 0 224 -71q98 71 236 71q134 0 234 -70q100 70 233 70q83 0 155.5 -31.5t118.5 -85.5
l-50 -45q-87 146 -235 146q-117 0 -191 -80q113 -100 113 -273q0 -170 -111 -276q81 -89 211 -89q110 0 185 60v246h-154zM611 78q-119 102 -119 279q0 176 120 285q-79 82 -198 82q-120 0 -192.5 -98t-72.5 -258q0 -162 75.5 -263t195.5 -101q114 0 191 74zM1081 79
q-115 101 -115 280q0 174 115 283q-82 82 -207 82q-124 0 -204 -75q116 -106 116 -278q0 -174 -116 -284q81 -83 210 -83q123 0 201 75zM643 118q64 92 64 242q0 152 -70 250q-67 -92 -67 -242q0 -153 73 -250zM1115 602q-58 -92 -58 -236q0 -145 65 -237q59 92 59 231
q0 145 -66 242z" />
    <glyph glyph-name="R_A" horiz-adv-x="1153" 
d="M1041 0l-96 239h-284l-105 -261h-6l-257 330q-16 21 -52 21h-67v-329h-102v728h179q295 0 295 -184q0 -130 -175 -191l208 -266l266 657h4l303 -744h-111zM443 537q0 83 -50.5 129t-145.5 46h-73v-361q31 -6 92 -6q78 0 127.5 55.5t49.5 136.5zM668 257h270l-135 334z
" />
    <glyph glyph-name="R_S" horiz-adv-x="1117" 
d="M1087 198q0 -93 -69 -151.5t-175 -58.5q-91 0 -195 31v66q37 -36 93.5 -58.5t110.5 -22.5q73 0 117 40q46 40 46 102q-3 64 -40.5 99t-119.5 74l-50 22q-56 26 -91 48q-93 60 -93 159q0 83 64 137.5t166 54.5q113 0 204 -53l-16 -56q-91 93 -199 93q-66 0 -106 -36
t-40 -92q3 -58 38 -90t118 -71l50 -23q67 -33 97 -53q90 -56 90 -161zM371 354l224 -249v-127h-6l-296 330q-12 12 -22 16.5t-30 4.5h-67v-329h-102v728h179q295 0 295 -184q0 -129 -175 -190zM443 537q0 83 -50.5 129t-145.5 46h-73v-361q31 -6 92 -6q78 0 127.5 55.5
t49.5 136.5z" />
    <glyph glyph-name="S_S" horiz-adv-x="993" 
d="M33 41l18 63q36 -44 99 -72t125 -28q73 0 117 40q46 40 46 102q-3 64 -40.5 99t-119.5 74l-50 22q-56 26 -91 48q-93 60 -93 159q0 83 64 137.5t166 54.5q51 0 104.5 -14t89.5 -34l-16 -53q-88 85 -189 85q-66 0 -106 -36t-40 -92q3 -58 38 -90t118 -71l50 -23
q67 -33 97 -53q90 -56 90 -161q0 -93 -69 -151.5t-175 -58.5q-63 0 -128 16q-64 16 -105 37zM505 32l16 53q38 -36 95 -58.5t111 -22.5q72 0 117.5 39.5t45.5 102.5q-3 64 -40.5 99t-119.5 74l-49 22q-44 20 -71.5 36t-56 40.5t-42.5 57t-15 73.5q0 83 64.5 137.5
t165.5 54.5q54 0 110.5 -15.5t93.5 -37.5l-15 -56q-91 93 -199 93q-66 0 -106 -36t-40 -92q3 -58 38 -90t118 -71l49 -23q64 -29 97 -52q90 -58 90 -162q0 -93 -69 -151.5t-175 -58.5q-105 0 -213 44z" />
    <glyph glyph-name="S_T_period" horiz-adv-x="808" 
d="M510 198q0 -93 -69 -151.5t-175 -58.5q-63 0 -128 16q-64 16 -105 37l18 63q36 -44 99 -72t125 -28q73 0 117 40q46 40 46 102q-3 64 -40.5 99t-119.5 74l-50 22q-56 26 -91 48q-93 60 -93 159q0 83 64 137.5t166 54.5q113 0 204 -53l-16 -56q-91 93 -199 93
q-66 0 -106 -36t-40 -92q3 -58 38 -90t118 -71l50 -23q67 -33 97 -53q90 -56 90 -161zM777 531l10 -42h-2q-55 27 -111 27h-8v-345h-64v345h-8q-56 0 -111 -27h-2l10 42h286zM568 45l66 66l66 -66l-66 -66z" />
    <glyph glyph-name="T_H_E" horiz-adv-x="863" 
d="M122 517h-8q-46 0 -90 -24h-2l7 38h243l7 -38h-2q-43 24 -90 24h-8v-316h-57v316zM362 366v-165h-56v330h56v-152h148v152h57v-330h-57v165h-148zM823 237h2l-9 -36h-203v330h197l7 -36h-2q-62 22 -125 22h-20v-138h17q69 0 96 10h2v-35h-2q-24 11 -96 11h-17v-150h21
q73 0 132 22zM70 120v14h741v-14h-741z" />
    <glyph glyph-name="T_T" horiz-adv-x="941" 
d="M919 728l13 -71h-2q-115 53 -196 53h-23v-710h-102v710h-276v-710h-102v710h-24q-81 0 -196 -53h-2l14 71h896z" />
    <glyph glyph-name="T_V" horiz-adv-x="1133" 
d="M1067 728h70q-53 -109 -130 -300l-8 -19l-174 -425h-4l-276 681q-62 45 -189 45h-23v-710h-102v710h-24q-81 0 -196 -53h-2l14 71h605l239 -591l113 279q47 114 66 184q18 69 21 128z" />
    <glyph glyph-name="T_W" horiz-adv-x="1449" 
d="M1387 728h62q-50 -124 -118 -319l-148 -425h-4l-195 569l-200 -569h-4l-234 678q-60 48 -190 48h-23v-710h-102v710h-24q-81 0 -196 -53h-2l14 71h607l195 -569l199 569h4l196 -567l88 254q62 179 75 313z" />
    <glyph glyph-name="T_Y" horiz-adv-x="1066" 
d="M885 431l-61 -107v-324h-102v312l-205 357l-1 8q-56 33 -160 33h-23v-710h-102v710h-24q-81 0 -196 -53h-2l14 71h578l214 -380l52 92q100 174 127 288h63q-92 -153 -172 -297z" />
    <glyph glyph-name="T_Y_T" horiz-adv-x="1549" 
d="M1527 728l13 -71h-2q-115 53 -196 53h-23v-710h-102v710h-24q-115 0 -174 -43l-1 -2l-194 -341v-324h-102v312l-204 355l-3 11q-55 32 -159 32h-23v-710h-102v710h-24q-81 0 -196 -53h-2l14 71h578l214 -380l52 92q90 158 132 288h528z" />
    <glyph glyph-name="U_T" horiz-adv-x="1129" 
d="M1106 728l14 -71h-2q-115 53 -197 53h-23v-710h-102v710h-23q-125 0 -186 -57v-401q0 -264 -257 -264q-130 0 -197 67t-67 195v478h102v-476q0 -116 51 -175t148 -59q96 0 148 58.5t52 170.5v481h539z" />
    <glyph glyph-name="V_S" horiz-adv-x="563" 
d="M309 449q0 38 30.5 63t77.5 25t97 -26l-10 -35q-41 48 -91 48q-27 0 -44.5 -15t-17.5 -40q0 -23 15 -36.5t53 -31.5l22 -11q46 -22 66.5 -43t20.5 -55q0 -42 -32 -69.5t-83 -27.5q-26 0 -59 9.5t-51 21.5l12 41q13 -26 42.5 -43t60.5 -17q30 0 49.5 17.5t19.5 45.5
q0 26 -16.5 41.5t-53.5 32.5l-22 10q-86 35 -86 95zM167 193h-6l-141 338h61l104 -255l46 112q36 93 37 143h41q-15 -31 -46 -107l-17 -39zM64 120v14h438v-14h-438z" />
    <glyph glyph-name="V_T" horiz-adv-x="1115" 
d="M1092 728l14 -71h-2q-115 53 -197 53h-23v-710h-102v710h-23q-116 0 -173 -40v-2l-278 -684h-4l-303 744h111l238 -591l113 279q44 104 65 178q17 59 32 134h532z" />
    <glyph glyph-name="W_T" horiz-adv-x="1434" 
d="M1411 728l14 -71h-2q-115 53 -196 53h-24v-710h-102v710h-23q-116 0 -173 -40l-238 -686h-4l-195 569l-200 -569h-4l-259 744h109l195 -569l199 569h4l196 -567l88 254q32 90 52 169q18 72 30 144h533z" />
    <glyph glyph-name="X_A" horiz-adv-x="1192" 
d="M1080 0l-96 239h-283l-105 -261l-1 1v-1h-5l-294 368l-66 -92q-99 -141 -121 -254h-106q82 85 212 265l68 97l-292 366h128l232 -292l27 39q123 177 144 253h79q-97 -108 -207 -264l-31 -44l258 -324l262 648h4l304 -744h-111zM708 257h269l-135 333z" />
    <glyph glyph-name="X_T" horiz-adv-x="1061" 
d="M1039 728l13 -71h-2q-115 53 -196 53h-23v-710h-102v710h-24q-94 0 -167 -43l-3 -4l-172 -243l232 -293v-149h-5l-294 368l-66 -92q-99 -141 -121 -254h-106q82 85 212 265l68 97l-292 366h128l231 -292l207 292h482z" />
    <glyph glyph-name="Y_T" horiz-adv-x="1074" 
d="M1052 728l13 -71h-2q-115 53 -196 53h-23v-710h-102v710h-24q-115 0 -174 -43l-1 -2l-194 -341v-324h-102v312l-238 416h117l214 -380l52 92q90 158 132 288h528z" />
    <glyph glyph-name="Z_A" horiz-adv-x="1100" 
d="M991 0l-96 239h-285l-97 -239h-508v4l404 706h-62q-210 0 -320 -45h-2l12 63h496v-4l-405 -706h79q115 0 184 13q75 14 133 47l270 666h4l304 -744h-111zM618 257h270l-135 334z" />
    <glyph glyph-name="Z_Z" horiz-adv-x="1043" 
d="M478 67h2l-19 -67h-456v4l404 706h-62q-210 0 -320 -45h-2l12 63h496v-4l-405 -706h79q153 0 271 49zM1031 67h2l-18 -67h-513v4l404 706h-63q-158 0 -270 -45h-2l13 63h445v-4l-404 -706h78q210 0 328 49z" />
    <glyph glyph-name="f_b" horiz-adv-x="957" 
d="M927 274q1 -122 -76 -205t-182 -81q-111 0 -182 70l-56 -62h-4v760q-60 24 -116 24q-120 0 -120 -150v-99h168l-14 -22h-154v-509h-95v509h-77v22h77v94q0 90 45.5 139.5t126.5 49.5q83 0 161 -43l88 39h4v-351q79 84 178 84q98 0 163 -76t65 -193zM825 265
q0 116 -42.5 180.5t-113.5 64.5q-83 0 -148 -77v-328q20 -48 56.5 -74.5t82.5 -26.5q73 0 119 71.5t46 189.5z" />
    <glyph glyph-name="f_h" horiz-adv-x="941" 
d="M886 354v-354h-94v356q0 58 -21 104q-21 47 -96 47q-80 0 -154 -71v-436h-94v756q-60 24 -116 24q-120 0 -120 -150v-99h168l-14 -22h-154v-509h-95v509h-77v22h77v94q0 90 45.5 139.5t126.5 49.5q83 0 161 -43l88 39h4v-355q89 88 195 88q170 0 170 -189z" />
    <glyph glyph-name="f_j" horiz-adv-x="580" 
d="M479 531l37 11h4v-552q0 -92 -63 -148q-62 -56 -154 -70l-4 12q59 13 92.5 66t33.5 133v526h-234v-509h-95v509h-77v22h77v94q0 90 45.5 139.5t124.5 49.5q56 0 117 -30l-4 -13q-33 9 -68 9q-120 0 -120 -150v-99h288zM540 714l-68 -68l-68 68l68 68z" />
    <glyph glyph-name="f_k" horiz-adv-x="882" 
d="M429 771l88 39h4v-810h-94v756q-60 24 -116 24q-120 0 -120 -150v-99h168l-14 -22h-154v-509h-95v509h-77v22h77v94q0 90 45.5 139.5t126.5 49.5q83 0 161 -43zM628 345l241 -240v-127h-5l-317 322l88 76q59 51 99 89q34 33 63 66h69v-2q-114 -75 -220 -168z" />
    <glyph glyph-name="f_t" horiz-adv-x="658" 
d="M658 47l8 -12q-71 -47 -140 -47q-130 0 -130 137v384h-205v-509h-95v509h-77v22h77v94q0 90 45.5 139.5t126.5 49.5t157 -46l-7 -12q-54 24 -107 24q-120 0 -120 -150v-99h201l95 170h4v-170h171l-13 -22h-158v-382q0 -40 14 -73q15 -32 67 -32q43 0 86 25z" />
    <glyph glyph-name="k_s" horiz-adv-x="931" 
d="M58 780l90 30h4v-810h-94v780zM910 146q0 -70 -55 -114t-149 -44q-101 0 -173 30v60q79 -76 183 -76q59 0 94.5 28.5t35.5 73.5q-3 43 -29.5 65t-94.5 51l-41 17q-37 15 -78 37q-76 46 -76 123q0 64 51 105t135 41q102 0 173 -42l-14 -47q-79 75 -166 75q-52 0 -83.5 -26
t-31.5 -65q0 -29 18 -50q17 -19 36.5 -30t70.5 -32l40 -17q43 -17 76 -36q78 -46 78 -127zM277 361l-18 -16l241 -240v-127h-5l-317 322l88 76q59 51 99 89q35 33 63 66h69v-2q-114 -75 -220 -168z" />
    <glyph glyph-name="l_l" horiz-adv-x="426" 
d="M271 0v780l91 30h4v-810h-95zM60 0v730l91 30h4v-760h-95z" />
    <glyph glyph-name="r_v" horiz-adv-x="774" 
d="M718 531h58q-57 -115 -135 -300l-106 -246h-7l-205 478q-13 12 -41 12q-40 0 -74.5 -25.5t-55.5 -68.5v-381h-95v515l89 27h4v-131q58 130 170 130q33 0 76 -10l177 -414l51 120q87 202 94 294z" />
    <glyph glyph-name="r_w" horiz-adv-x="1043" 
d="M983 531h59q-48 -105 -125 -305l-94 -241h-7l-146 394l-150 -394h-7l-192 479q-14 11 -39 11q-40 0 -74.5 -25.5t-55.5 -68.5v-381h-95v515l89 27h4v-131q58 130 170 130q33 0 76 -10l159 -402l151 402h6l149 -399l39 102q74 192 83 297z" />
    <glyph glyph-name="r_y" horiz-adv-x="773" 
d="M714 531h58q-35 -75 -88 -202l-40 -95l-132 -318q-62 -150 -214 -150l5 57q21 -7 49 -7q44 0 82.5 25.5t58.5 75.5l33 79l-203 467q-13 12 -41 12q-40 0 -74.5 -25.5t-55.5 -68.5v-381h-95v515l89 27h4v-131q58 130 170 130q33 0 76 -10l180 -414l51 124q79 190 87 290z
" />
    <glyph glyph-name="t_t" horiz-adv-x="659" 
d="M660 47l8 -12q-73 -47 -140 -47q-131 0 -131 137v384h-208v-382q0 -40 14 -73q15 -32 67 -32q43 0 86 25l8 -12q-71 -47 -140 -47q-130 0 -130 137v384h-77v17l73 5l95 170h4v-170h204l95 170h4v-170h172l-14 -22h-158v-382q0 -40 14 -73q15 -32 68 -32q42 0 86 25z" />
    <glyph glyph-name="zero.osf" horiz-adv-x="642" 
d="M40 303q0 148 77 236t205 88q124 0 202 -84t78 -230q0 -149 -76.5 -237t-205.5 -88q-125 0 -202.5 84.5t-77.5 230.5zM497 304q0 142 -47 225q-46 84 -132 84q-84 0 -129 -82q-44 -83 -44 -219q0 -143 46 -226q47 -84 133 -84q83 0 128 81t45 221z" />
    <glyph glyph-name="one.osf" horiz-adv-x="287" 
d="M214 624h4v-624h-92v505q-46 -28 -116 -48v12q52 19 108.5 61.5t95.5 93.5z" />
    <glyph glyph-name="two.osf" horiz-adv-x="509" 
d="M480 89l-25 -89h-435v4l62 52q99 82 153 135q123 121 123 229q0 72 -39.5 114.5t-105.5 42.5q-110 0 -178 -121l-13 6q80 165 234 165q90 0 148 -52t58 -140q0 -65 -40 -120q-38 -54 -106 -107q-66 -51 -195 -138l-1 -1h52q100 0 163 4q60 4 145 16z" />
    <glyph glyph-name="three.osf" horiz-adv-x="504" 
d="M18 -80l15 56q76 -85 172 -85q73 0 123 49.5t50 130.5q0 71 -48 121q-48 51 -129 60l-38 5l-4 11l34 11q66 21 108.5 68.5t42.5 109.5q0 57 -36 90t-94 33q-55 0 -100 -26t-72 -64l-13 6q84 131 227 131q79 0 132 -41q54 -40 54 -109q0 -58 -46 -107q-45 -48 -107 -69v-2
q75 -14 127 -69t52 -129q0 -101 -74.5 -163.5t-189.5 -62.5q-88 0 -186 45z" />
    <glyph glyph-name="four.osf" horiz-adv-x="531" 
d="M521 147l-17 -62h-92v-198h-92v198h-310l-12 30l394 505h20v-473h109zM50 147h270v345z" />
    <glyph glyph-name="five.osf" horiz-adv-x="489" 
d="M455 110q0 -103 -74.5 -169t-184.5 -66q-96 0 -181 45l14 48q70 -77 164 -77q77 0 128 52t51 131q0 92 -71 145t-207 53h-34l30 343h352l-24 -72h-311l-16 -186h37q160 0 243.5 -67.5t83.5 -179.5z" />
    <glyph glyph-name="six.osf" horiz-adv-x="553" 
d="M37 278q-2 162 103.5 292t269.5 170l5 -15q-134 -44 -204 -163q-71 -121 -71 -287q0 -129 42 -201t115 -72q63 0 99 54.5t36 148.5t-38 148t-102 54q-56 0 -102 -38l-10 12q64 61 150 61q87 0 146 -60.5t59 -156.5q0 -105 -69.5 -171t-175.5 -66q-114 0 -183.5 78.5
t-69.5 211.5z" />
    <glyph glyph-name="seven.osf" horiz-adv-x="485" 
d="M23 615h455v-4l-267 -724h-90l313 656h-125q-202 0 -304 -24z" />
    <glyph glyph-name="eight.osf" horiz-adv-x="553" 
d="M519 192q0 -86 -72 -145t-178 -59q-97 0 -165.5 48t-68.5 127q0 142 166 198q-135 71 -135 187q0 80 61 136t157 56q84 0 144 -45.5t60 -114.5q0 -61 -40 -106.5t-109 -73.5q180 -78 180 -208zM283 424l37 -16q95 68 95 170q0 64 -38.5 106t-98.5 42q-62 0 -98.5 -40
t-36.5 -103q0 -54 34 -91.5t106 -67.5zM442 156q0 55 -38 94.5t-114 70.5l-49 21l-24 11q-109 -67 -109 -186q0 -73 49.5 -119t120.5 -46q70 0 117 44.5t47 109.5z" />
    <glyph glyph-name="nine.osf" horiz-adv-x="552" 
d="M142 -125l-5 15q133 44 204 162q71 121 71 287q0 130 -42 202t-115 72q-63 0 -99 -54.5t-36 -148.5q0 -96 37 -149t103 -53q58 0 102 38l10 -12q-64 -61 -148 -61q-87 0 -147 60.5t-60 156.5q0 105 69.5 171t175.5 66q114 0 183.5 -78.5t69.5 -212.5
q2 -162 -103.5 -291.5t-269.5 -169.5z" />
    <glyph glyph-name="zero.zero" horiz-adv-x="663" 
d="M619 370q0 -175 -78.5 -278.5t-210.5 -103.5q-128 0 -207 99t-79 271q0 175 78 278.5t210 103.5q128 0 207.5 -99t79.5 -271zM148 369q0 -103 19 -185l323 382q-48 160 -161 160q-89 0 -135 -97q-46 -96 -46 -260zM515 360q0 100 -20 185l-322 -382q22 -78 63 -119.5
t98 -41.5q89 0 135 97q46 96 46 261z" />
    <glyph glyph-name="space.alt" horiz-adv-x="241" 
d="M121 229l-67 66l67 67l66 -67z" />
    <glyph glyph-name="percent.alt" horiz-adv-x="695" 
d="M565 728h17l-440 -728h-31l421 676q-74 -61 -155 -61q-31 0 -56 9q3 -20 3 -40q0 -83 -46 -147t-118 -64q-60 0 -96 41t-36 110q0 85 47.5 147.5t122.5 62.5q68 0 101 -53q28 -44 85 -44q125 0 181 91zM301 632q-47 23 -76 79q-3 1 -16 1q-57 0 -93 -55t-36 -133
q0 -62 26 -96.5t71 -34.5q56 0 92.5 57t36.5 134q0 23 -5 48zM668 204q0 -82 -46 -146t-118 -64q-60 0 -96.5 41t-36.5 110q0 85 47.5 147.5t122.5 62.5q59 0 93 -40.5t34 -110.5zM650 204q0 61 -26 95t-71 34q-59 0 -94.5 -55t-35.5 -133q0 -63 26 -97.5t71 -34.5
q56 0 93 57.5t37 133.5z" />
    </font>
</defs>
</svg>
