<?xml version="1.0" standalone="no"?>
<!DOCTYPE svg PUBLIC "-//W3C//DTD SVG 1.1//EN" "http://www.w3.org/Graphics/SVG/1.1/DTD/svg11.dtd" >
<svg xmlns="http://www.w3.org/2000/svg">
<metadata>Generated by IcoMoon</metadata>
<defs>
<font id="icomoon" horiz-adv-x="1024">
<font-face units-per-em="1024" ascent="960" descent="-64" />
<missing-glyph horiz-adv-x="1024" />
<glyph unicode="&#x20;" horiz-adv-x="512" d="" />
<glyph unicode="&#xe900;" glyph-name="bell" horiz-adv-x="896" d="M448-64c70.692 0 128 57.308 128 128v0h-256c0-70.692 57.308-128 128-128v0zM878.784 235.392c-38.656 41.536-110.784 103.808-110.784 308.608 0 0.064 0 0.14 0 0.217 0 153.266-109.169 281.034-253.99 309.787l-2.010 0.333v41.664c0 35.346-28.654 64-64 64s-64-28.654-64-64v0-41.664c-146.83-29.085-256-156.853-256-310.119 0-0.076 0-0.152 0-0.228v0.011c0-204.8-72.128-267.072-110.784-308.608-10.659-11.183-17.217-26.357-17.217-43.063 0-0.116 0-0.231 0.001-0.346v0.018c0-35.346 28.654-64 64-64v0h768c35.346 0 64 28.654 64 64v0c0.001 0.098 0.001 0.213 0.001 0.329 0 16.706-6.558 31.88-17.241 43.088l0.024-0.025z" />
<glyph unicode="&#xe901;" glyph-name="calendar" horiz-adv-x="896" d="M99.724-63.936c-0.057 0-0.125 0-0.192 0-54.925 0-99.46 44.489-99.532 99.398v694.942c0.109 54.888 44.629 99.341 99.532 99.341 0.045 0 0.090 0 0.135 0h118.28v99.34c0 0.037 0 0.080 0 0.124 0 8.554 3.474 16.297 9.089 21.894l0.001 0.001c5.604 5.54 13.313 8.962 21.82 8.962 0.092 0 0.185 0 0.277-0.001h-0.014c8.593-0.002 16.374-3.474 22.020-9.090l-0.001 0.001c5.641-5.611 9.137-13.373 9.153-21.952v-99.279h335.85v99.34c0.073 17.125 13.972 30.98 31.108 30.98 0 0 0 0 0 0v0c0.055 0 0.119 0.001 0.183 0.001 8.564 0 16.323-3.447 21.966-9.028l-0.003 0.003c5.685-5.613 9.209-13.404 9.217-22.017v-99.278h118.223c0.028 0 0.062 0 0.095 0 27.447 0 52.302-11.103 70.316-29.062l-0.003 0.003c18.069-17.983 29.252-42.872 29.252-70.373 0-0.013 0-0.025 0-0.038v0.002-694.935c-0.036-54.907-44.556-99.405-99.468-99.405-0.068 0-0.135 0-0.203 0h0.011zM62.408 35.404c0-20.609 16.707-37.317 37.317-37.317v0h696.855c0 0 0 0 0 0 20.648 0 37.399 16.684 37.508 37.306v468.293c-3.759-1.745-8.155-2.779-12.788-2.816h-745.962c-0.069-0.001-0.15-0.001-0.231-0.001-4.553 0-8.875 0.991-12.762 2.768l0.192-0.079zM821.159 562.894c4.64-0.028 9.037-1.038 13.003-2.834l-0.201 0.082v170.325c-0.109 20.633-16.86 37.317-37.508 37.317 0 0 0 0 0 0h-118.223v-37.317c0-0.019 0-0.042 0-0.065 0-17.11-13.87-30.98-30.98-30.98-0.068 0-0.135 0-0.202 0.001h0.010c-17.129 0.072-30.999 13.92-31.108 31.033v37.327h-335.85v-37.317c-0.036-17.13-13.913-31.008-31.040-31.044h-0.003c-17.143 0.036-31.035 13.906-31.108 31.037v37.324h-118.287c-0.019 0-0.041 0-0.064 0-20.609 0-37.317-16.707-37.317-37.317 0 0 0 0 0 0v0-170.261c3.769 1.694 8.169 2.683 12.8 2.688h0.002z" />
<glyph unicode="&#xe902;" glyph-name="category" d="M801.35 2.795c0.019 0 0.042 0 0.064 0 86.041 0 155.791 69.75 155.791 155.791 0 0.023 0 0.045 0 0.068v-0.004c0 86.077-69.779 155.855-155.855 155.855v0c-86.077 0-155.855-69.779-155.855-155.855v0c0.036-86.075 69.786-155.846 155.848-155.919h0.007zM356.177 2.731c0.019 0 0.042 0 0.064 0 12.261 0 22.201 9.94 22.201 22.201 0 0.023 0 0.045 0 0.068v-0.003 267.181c0 12.297-9.968 22.265-22.265 22.265h-267.181c-12.297 0-22.265-9.968-22.265-22.265v0-267.181c0-12.297 9.968-22.265 22.265-22.265h267.181zM934.94 581.494c0.019 0 0.042 0 0.064 0 12.261 0 22.201 9.94 22.201 22.201 0 0.023 0 0.045 0 0.068v-0.003 267.181c0 0.019 0 0.042 0 0.064 0 12.261-9.94 22.201-22.201 22.201-0.023 0-0.045 0-0.068 0h-267.114c-0.019 0-0.041 0-0.064 0-12.297 0-22.265-9.968-22.265-22.265 0 0 0 0 0 0v0-267.181c0 0 0 0 0 0 0-12.297 9.968-22.265 22.265-22.265 0.023 0 0.045 0 0.067 0h267.113zM356.177 581.494c0.019 0 0.042 0 0.064 0 12.261 0 22.201 9.94 22.201 22.201 0 0.023 0 0.045 0 0.068v-0.003 267.181c0 0.019 0 0.042 0 0.064 0 12.261-9.94 22.201-22.201 22.201-0.023 0-0.045 0-0.068 0h-267.178c-12.297 0-22.265-9.968-22.265-22.265v0-267.181c0-12.297 9.968-22.265 22.265-22.265h267.181zM801.35-64.064c-122.931 0-222.586 99.655-222.586 222.586v0c0.037 122.917 99.67 222.55 222.583 222.586h0.003c122.917-0.037 222.55-99.67 222.586-222.583v-0.003c-0.218-122.766-99.79-222.203-222.586-222.203 0 0 0 0 0 0v0zM356.177-64.064h-267.181c-49.187 0-89.060 39.874-89.060 89.060v0 267.181c0 49.187 39.874 89.060 89.060 89.060v0h267.181c49.187 0 89.060-39.874 89.060-89.060v0-267.181c-0.218-49.021-40.008-88.676-89.059-88.676 0 0-0.001 0-0.001 0v0zM934.94 514.699h-267.117c-0.019 0-0.041 0-0.064 0-49.187 0-89.060 39.874-89.060 89.060v267.181c0 49.187 39.874 89.060 89.060 89.060 0.023 0 0.045 0 0.068 0h267.113c49.187 0 89.060-39.874 89.060-89.060v0-267.181c-0.036-49.159-39.896-88.996-89.060-88.996 0 0 0 0 0 0v0zM356.177 514.699h-267.181c-49.187 0-89.060 39.874-89.060 89.060v0 267.181c0 49.187 39.874 89.060 89.060 89.060v0h267.181c49.187 0 89.060-39.874 89.060-89.060v0-267.181c-0.036-49.159-39.896-88.996-89.060-88.996 0 0 0 0 0 0v0z" />
<glyph unicode="&#xe903;" glyph-name="cross" d="M258.396 272.092l170.662 170.662-170.662 170.662c-23.564 23.564-23.564 61.768 0 85.331v0c23.564 23.564 61.768 23.564 85.331 0v0l170.662-170.662 170.662 170.662c23.564 23.564 61.768 23.564 85.331 0v0c23.564-23.564 23.564-61.768 0-85.331v0l-170.662-170.662 170.662-170.662c23.564-23.564 23.564-61.768 0-85.331v0c-23.564-23.564-61.768-23.564-85.331 0v0l-170.662 170.662-170.662-170.662c-23.564-23.564-61.768-23.564-85.331 0v0c-23.564 23.564-23.564 61.768 0 85.331v0z" />
<glyph unicode="&#xe904;" glyph-name="down-arrow" horiz-adv-x="1786" d="M890.906 244.653l677.157 677.727c23.087 23.254 55.070 37.649 90.416 37.649s67.329-14.394 90.408-37.641l0.007-0.008c22.971-23.296 37.158-55.306 37.158-90.63s-14.186-67.334-37.172-90.644l-767.344-767.914c-23.162-22.937-55.041-37.109-90.23-37.109-33.297 0-63.63 12.689-86.427 33.495l0.1-0.090-772.631 771.064c-20.103 22.542-32.388 52.435-32.388 85.197 0 70.83 57.419 128.249 128.249 128.249 32.656 0 62.461-12.205 85.102-32.302l-0.132 0.115z" />
<glyph unicode="&#xe905;" glyph-name="facebook" d="M967.488 960h-910.976c-31.196-0.036-56.476-25.316-56.512-56.508v-910.98c0.036-31.196 25.316-56.476 56.508-56.512h455.492v405.312h-122.432v149.376h122.432v110.4c-0.176 3.093-0.276 6.711-0.276 10.352 0 107.453 87.107 194.56 194.56 194.56 5.481 0 10.909-0.227 16.275-0.671l-0.703 0.047c0.689 0.001 1.505 0.002 2.32 0.002 45.478 0 90.413-2.325 134.693-6.863l-5.557 0.461v-137.92h-94.080c-64 0-76.8-30.4-76.8-75.2v-95.232h153.088l-19.968-149.312h-132.864v-405.312h284.8c31.196 0.036 56.476 25.316 56.512 56.508v910.98c-0.036 31.196-25.316 56.476-56.508 56.512h-0.004z" />
<glyph unicode="&#xe906;" glyph-name="globe" horiz-adv-x="1031" d="M511.904 959.936c2.227 0.035 4.855 0.055 7.488 0.055 282.782 0 512.023-229.24 512.023-512.023 0-280.15-224.992-507.75-504.139-511.963l-0.397-0.005h-16.255c-276.766 0.616-501.917 220.748-510.604 495.489l-0.020 0.8v16.191c0.292 282.532 229.396 511.456 511.968 511.456v0zM640.664 398.435h-257.84c10.239-191.348 77.691-352.938 124.6-362.857l4.48-0.448c44.797 0 113.593 156.214 127.608 345.578zM921.734 398.435h-181.813c-3.378-122.292-31.945-237.103-80.666-340.551l2.207 5.212c134.969 53.616 233.583 172.49 257.635 316.605l0.333 2.415zM283.502 398.435h-181.621c19.124-153.515 120.022-279.539 257.1-334.292l2.788-0.983c-43.235 90.525-70.935 196.122-76.711 307.519l-0.084 2.030-1.472 25.598zM362.025 832.84l-7.616-3.008c-136.077-57.276-233.746-181.508-252.322-330.309l-0.206-2.022h181.685c3.577 115.542 28.959 224.238 72.142 323.397l-2.195-5.656zM511.456 860.742c-46.397 0-118.073-165.814-128.632-363.241h257.904c-10.559 191.796-77.819 353.002-124.984 363.241zM662.103 832.2l1.536-3.328c45.318-97.217 73.134-210.713 76.386-330.34l0.025-1.16h181.557c-19.407 153.194-119.993 278.937-256.654 333.964l-2.786 0.991z" />
<glyph unicode="&#xe907;" glyph-name="golf" horiz-adv-x="1200" d="M494.338 41.459c0 0.038 0 0.083 0 0.128 0 58.243 47.216 105.459 105.459 105.459s105.459-47.216 105.459-105.459c0-58.243-47.216-105.459-105.459-105.459v0c-58.198 0-105.386 47.143-105.459 105.324v0.007zM803.228 106.987l-24.829 24.829 211.174 211.174c22.278 22.209 53.018 35.941 86.965 35.941s64.687-13.732 86.968-35.944l-0.003 0.003c22.24-22.264 35.993-53.008 35.993-86.965s-13.754-64.701-35.995-86.966l-62.135-62.135c-38.193-38.083-90.897-61.631-149.101-61.631s-110.909 23.548-149.106 61.636l0.005-0.005zM599.797 310.481l-49.466 49.722-550.331 550.011 49.722 49.786 728.613-728.677-49.722-49.786z" />
<glyph unicode="&#xe908;" glyph-name="heart" horiz-adv-x="1214" d="M607.278-64.069c-310.17 210.836-607.278 441.951-607.278 737.615 0 0.020 0 0.043 0 0.067 0 158.204 128.249 286.453 286.453 286.453 79.118 0 150.745-32.076 202.586-83.933l0.001-0.001 118.238-118.376 24.335 24.335 93.628 94.041c51.834 51.874 123.463 83.962 202.587 83.962 158.166 0 286.385-128.219 286.385-286.385 0-0.058 0-0.116 0-0.173v0.009c0.275-295.665-296.49-526.78-606.934-737.615z" />
<glyph unicode="&#xe909;" glyph-name="instagram" d="M854.016 960h-684.032c-93.763-0.29-169.694-76.221-169.984-169.956v-684.060c0.29-93.763 76.221-169.694 169.956-169.984h684.060c93.763 0.29 169.694 76.221 169.984 169.956v684.060c-0.29 93.763-76.221 169.694-169.956 169.984h-0.028zM327.808 512h368.384c6.854-19.082 10.816-41.1 10.816-64.042 0-107.7-87.308-195.008-195.008-195.008s-195.008 87.308-195.008 195.008c0 22.943 3.962 44.96 11.239 65.405l-0.423-1.363zM896 512v-384c0-35.346-28.654-64-64-64v0h-640c-35.346 0-64 28.654-64 64v0 384h100.096c-4.515-19.204-7.104-41.253-7.104-63.908 0-160.719 130.289-291.008 291.008-291.008s291.008 130.289 291.008 291.008c0 22.654-2.589 44.704-7.486 65.869l0.382-1.962zM896 736c0-17.673-14.327-32-32-32v0h-64c-17.673 0-32 14.327-32 32v0 64c0 17.673 14.327 32 32 32v0h64c17.673 0 32-14.327 32-32v0z" />
<glyph unicode="&#xe90a;" glyph-name="kitesurf" horiz-adv-x="1002" d="M994.121 632.422c-33.715 86.44-88.921 158.281-159.178 211.214l-1.22 0.88c-75.191 57.65-167.229 97.073-267.558 110.067l-2.822 0.298c-22.459 3.236-48.395 5.084-74.762 5.084-111.253 0-214.822-32.896-301.512-89.491l2.119 1.297c-22.031-14.53-41.203-29.433-59.148-45.667l0.414 0.369c50.753 17.342 109.224 27.353 170.033 27.353 3.608 0 7.209-0.035 10.8-0.105l-0.538 0.008c1.91 0.033 4.163 0.052 6.42 0.052 131.272 0 247.758-63.306 320.595-161.054l0.755-1.059c16.081-17.636 30.63-37.215 43.108-58.17l0.91-1.651c10.621-19.194 61.165-110.493 66.027-118.427 14.128-22.817 34.124-40.799 57.907-52.11l0.827-0.354-197.826-465.007h-78.248v721.183h0.576c-58.8 47.83-134.609 76.799-217.184 76.799-1.405 0-2.808-0.008-4.208-0.025l0.213 0.002c-4.058 0.132-8.828 0.207-13.617 0.207-61.549 0-120.203-12.398-173.599-34.833l2.953 1.101c-45.845-20.068-82.827-53.298-107.030-94.883l-0.584-1.087c-8.414-21.9-14.979-47.49-18.549-74.029l-0.197-1.787h1.024c-0.549-4.417-0.862-9.53-0.862-14.715 0-69.61 56.43-126.041 126.041-126.041 0.011 0 0.021 0 0.032 0h-0.002c0.551-0.014 1.201-0.022 1.852-0.022 3.225 0 6.405 0.194 9.529 0.571l-0.376-0.037 216.124-512.352h295.652l217.532 511.84c75.101 0.814 135.669 61.885 135.669 137.102 0 16.975-3.085 33.23-8.725 48.234l0.312-0.945zM471.213-4.051h-78.056l-199.042 471.917c16.778 10.861 30.463 25.099 40.372 41.836l0.319 0.582 0.832 1.536c33.179 59.88 78.472 109.263 132.89 146.213l1.468 0.941c29.131 19.898 62.852 36.039 98.942 46.644l2.53 0.637z" />
<glyph unicode="&#xe90b;" glyph-name="kitesurf-1" horiz-adv-x="1365" d="M85.333-64c-47.128 0-85.333 38.205-85.333 85.333s38.205 85.333 85.333 85.333v0h1194.667c47.128 0 85.333-38.205 85.333-85.333s-38.205-85.333-85.333-85.333v0zM85.333 362.667c-47.128 0-85.333 38.205-85.333 85.333s38.205 85.333 85.333 85.333v0h1194.667c47.128 0 85.333-38.205 85.333-85.333s-38.205-85.333-85.333-85.333v0zM85.333 789.333c-47.128 0-85.333 38.205-85.333 85.333s38.205 85.333 85.333 85.333v0h1194.667c47.128 0 85.333-38.205 85.333-85.333s-38.205-85.333-85.333-85.333v0z" />
<glyph unicode="&#xe90c;" glyph-name="location" horiz-adv-x="896" d="M448 896c-211.712 0-384-132.096-384-294.4 0-176.192 247.296-448 384-578.56 136.704 130.24 384 402.368 384 578.56 0 162.304-172.288 294.4-384 294.4zM448 729.6h35.136c3.884 0.483 8.38 0.758 12.94 0.758 27.433 0 52.537-9.971 71.885-26.486l-0.154 0.128c15.841-18.854 25.465-43.393 25.465-70.18 0-5.724-0.439-11.345-1.286-16.832l0.078 0.612v-32c0.774-4.891 1.217-10.531 1.217-16.274 0-26.791-9.627-51.334-25.61-70.358l0.137 0.168c-19.187-16.389-44.285-26.361-71.711-26.361-4.567 0-9.070 0.277-13.493 0.814l0.532-0.053h-70.4c-3.884-0.483-8.38-0.758-12.94-0.758-27.433 0-52.537 9.971-71.885 26.486l0.154-0.128c-15.841 18.854-25.465 43.393-25.465 70.18 0 5.724 0.439 11.345 1.286 16.832l-0.078-0.612v32c-0.762 4.852-1.197 10.447-1.197 16.144 0 26.851 9.67 51.443 25.717 70.484l-0.135-0.165c19.187 16.389 44.285 26.361 71.711 26.361 4.567 0 9.070-0.277 13.493-0.814l-0.532 0.053h35.136zM448 960c247.68 0 448-160 448-358.4 0-268.8-448-665.6-448-665.6s-448 396.8-448 665.6c0 198.4 200.32 358.4 448 358.4zM448 665.6c-88.32 0-80 6.4-80-64s-8.32-64 80-64 80-6.4 80 64 8.32 64-80 64z" />
<glyph unicode="&#xe90d;" glyph-name="logo" horiz-adv-x="9242" d="M833.776 369.741v539.756h-210.209v-547.955c0-151.678-77.889-229.567-206.337-229.567s-206.565 80.622-206.565 236.627v540.895h-210.664v-546.589c0-281.493 157.144-424.973 414.041-424.973s419.735 142.113 419.735 431.805zM1697.386-47.033v474.166c0 168.076-91.554 271.928-248.698 271.928-89.494-0.883-168.028-46.998-213.935-116.547l-0.601-0.969v103.852h-207.704v-732.429h207.704v408.575c0 98.386 50.559 148.945 129.815 148.945s125.715-50.559 125.715-148.945v-408.575zM2100.495 766.018v184.474h-218.636v-184.474zM2095.029-47.033v732.429h-207.476v-732.429zM2700.377 767.157v172.175c-40.727 13.092-87.579 20.638-136.194 20.638-4.003 0-7.995-0.051-11.973-0.153l0.589 0.012c-146.213 0-226.834-74.017-226.834-235.033v-46.46h-86.088v-170.809h86.088v-554.56h207.704v554.788h165.115v169.443h-167.848v28.468c0 54.659 27.329 79.255 75.156 79.255 33.941-0.099 66.333-6.61 96.067-18.386l-1.78 0.622zM3035.162 765.79v184.474h-218.636v-184.474zM3029.696-47.033v732.429h-207.704v-732.429zM3908.338 298.684v2.733c0 207.704-112.051 397.643-356.649 397.643-103.279-0.549-196.307-43.979-262.273-113.376l-0.146-0.155c-61.98-65.197-100.107-153.58-100.107-250.868 0-6.086 0.149-12.136 0.444-18.149l-0.033 0.847v-2.733c-0.132-3.674-0.207-7.99-0.207-12.324 0-101.897 41.604-194.078 108.751-260.481l0.034-0.033c66.118-65.28 157.014-105.6 257.327-105.6 5.877 0 11.721 0.138 17.53 0.412l-0.822-0.031c4.077-0.163 8.862-0.255 13.67-0.255 115.149 0 217.889 53.128 285.045 136.209l0.543 0.693-118.883 105.218c-43.858-46.338-105.796-75.177-174.47-75.177-1.115 0-2.228 0.008-3.339 0.023l0.168-0.002c-3.326-0.232-7.207-0.364-11.119-0.364-84.635 0-154.816 61.886-167.761 142.874l-0.128 0.97h509.694c1.366 19.358 2.733 31.429 2.733 51.926zM3706.1 376.573h-313.15c16.398 94.287 72.423 155.778 158.511 155.778 87.682 0 142.341-62.858 154.639-155.778zM4799.278-47.033v997.525h-207.704v-360.749c-51.936 66.803-132.311 109.373-222.628 109.373-1.96 0-3.914-0.020-5.864-0.060l0.291 0.005c-173.542 0-333.419-133.914-333.419-378.513v-2.733c0-244.826 162.61-378.513 333.419-378.513 1.479-0.029 3.223-0.046 4.97-0.046 92.584 0 174.243 46.779 222.629 117.991l0.601 0.938v-105.218zM4594.307 317.815c0.468-4.947 0.735-10.697 0.735-16.509 0-47.123-17.544-90.149-46.458-122.901l0.174 0.201c-32.604-36.987-79.363-60.836-131.719-63.016l-0.373-0.012c-52.881 2.031-99.851 25.743-132.556 62.444l-0.163 0.186c-29.138 32.796-46.938 76.234-46.938 123.829 0 5.474 0.235 10.893 0.697 16.248l-0.048-0.696v2.733c-0.461 4.913-0.724 10.624-0.724 16.396 0 47.38 17.72 90.622 46.895 123.459l-0.166-0.19c32.875 37.031 79.994 60.788 132.686 62.621l0.317 0.009c52.756-2.129 99.561-25.944 132.033-62.715l0.173-0.2c28.74-32.552 46.284-75.577 46.284-122.7 0-5.812-0.267-11.562-0.789-17.238l0.054 0.729zM6285.999 88.248v415.635h-415.635v-182.196h211.803v-136.647c-52.721-36.036-117.856-57.544-188.015-57.544-3.56 0-7.107 0.055-10.64 0.165l0.517-0.013c-0.989-0.012-2.158-0.019-3.328-0.019-81.496 0-155.047 34.013-207.234 88.618l-0.103 0.109c-49.049 51.343-79.236 121.069-79.236 197.845 0 5.912 0.179 11.782 0.532 17.606l-0.039-0.801v2.733c-0.131 3.239-0.205 7.040-0.205 10.859 0 154.298 121.636 280.187 274.251 287.010l0.615 0.022c2.223 0.050 4.841 0.079 7.467 0.079 94.092 0 179.566-36.896 242.744-97.010l-0.147 0.139 132.548 159.877c-92.159 81.761-214.163 131.698-347.83 131.698-9.831 0-19.6-0.27-29.298-0.803l1.348 0.059c-3.145 0.072-6.849 0.114-10.563 0.114-134.393 0-256.174-53.999-344.831-141.483l0.054 0.053c-90.294-89.080-146.225-212.794-146.225-349.572 0-1.247 0.005-2.494 0.014-3.739l-0.001 0.191v-2.733c-0.126-4.097-0.198-8.917-0.198-13.753 0-134.048 55.096-255.229 143.877-342.131l0.085-0.083c86.25-84.46 204.455-136.579 334.832-136.579 8.535 0 17.018 0.223 25.443 0.665l-1.178-0.049c0.609-0.002 1.33-0.003 2.051-0.003 155.849 0 298.28 57.447 407.274 152.32l-0.749-0.638zM7131.846-47.033v732.429h-207.704v-408.575c0-98.386-50.559-148.945-129.815-148.945s-125.715 50.559-125.715 148.945v408.575h-207.704v-474.166c0-168.076 91.554-271.928 248.698-271.928 89.494 0.883 168.028 46.998 213.935 116.547l0.601 0.969v-103.852zM8000.922 298.684v2.733c0 207.704-112.051 397.643-356.649 397.643-103.258-0.566-196.263-43.992-262.217-113.376l-0.146-0.155c-62.013-65.204-100.161-153.61-100.161-250.925 0-6.065 0.148-12.096 0.441-18.089l-0.033 0.844v-2.733c-0.137-3.74-0.215-8.132-0.215-12.543 0-101.845 41.561-193.983 108.647-260.379l0.031-0.031c66.13-65.348 157.072-105.713 257.442-105.713 5.876 0 11.72 0.138 17.528 0.412l-0.821-0.031c4.077-0.163 8.862-0.255 13.67-0.255 115.149 0 217.889 53.128 285.045 136.209l0.543 0.693-118.883 105.446c-43.858-46.338-105.796-75.177-174.47-75.177-1.115 0-2.228 0.008-3.339 0.023l0.168-0.002c-3.326-0.232-7.207-0.364-11.119-0.364-84.635 0-154.816 61.886-167.761 142.874l-0.128 0.97h509.694c1.366 19.358 2.733 31.429 2.733 51.926zM7798.684 376.573h-313.15c16.398 94.287 72.423 155.778 158.511 155.778 87.682 0 142.113-62.858 154.639-155.778zM8692.584 175.702v2.733c0 133.914-118.883 183.107-221.368 217.269-79.255 27.329-148.945 46.46-148.945 87.454v2.733c0 28.468 25.963 50.559 76.522 50.559 74.389-6.75 141.906-31.307 199.78-69.336l-1.641 1.013 79.255 143.48c-76.901 51.78-171.281 83.207-272.908 84.717l-0.386 0.005c-147.579 0-267.601-83.355-267.601-232.3v-2.733c0-142.341 116.15-189.94 218.636-220.002 80.622-24.596 151.678-39.855 151.678-84.721v-2.733c0-32.795-27.329-54.659-87.454-54.659-88.131 5.205-167.902 37.211-232.274 87.898l0.885-0.672-88.821-136.647c85.643-68.136 195.156-109.611 314.327-110.455l0.189-0.001c158.283 0 279.899 74.017 279.899 236.4zM9239.173-16.971v166.71c-29.288-16.343-64.253-25.965-101.466-25.965-0.358 0-0.717 0.001-1.075 0.003h0.055c-46.46 0-66.957 23.23-66.957 71.057v313.15h172.175v177.641h-172.403v187.207h-207.704v-187.207h-87.454v-177.641h87.454v-347.312c0-169.443 86.088-220.002 213.17-220.002 2.498-0.073 5.438-0.115 8.387-0.115 57.383 0 111.080 15.785 156.985 43.249l-1.395-0.774z" />
<glyph unicode="&#xe90e;" glyph-name="mic" horiz-adv-x="673" d="M336.513 274.049c113.616 0.146 205.676 92.228 205.785 205.839v274.327c0 113.652-92.133 205.785-205.785 205.785s-205.785-92.133-205.785-205.785v0-274.317c0.109-113.608 92.177-205.676 205.775-205.785h0.010zM368.507 149.080v-149.092h134.375c17.67 0 31.994-14.324 31.994-31.994s-14.324-31.994-31.994-31.994v0h-332.738c-17.67 0-31.994 14.324-31.994 31.994s14.324 31.994 31.994 31.994v0h134.375v149.092c-171.363 17.34-304.051 160.622-304.519 334.994v0.047c0 17.67 14.324 31.994 31.994 31.994s31.994-14.324 31.994-31.994v0c0-150.511 122.014-272.525 272.525-272.525s272.525 122.014 272.525 272.525v0c0 17.67 14.324 31.994 31.994 31.994s31.994-14.324 31.994-31.994v0c-0.499-174.408-133.17-317.673-303.093-334.924l-1.426-0.117z" />
<glyph unicode="&#xe90f;" glyph-name="music" horiz-adv-x="709" d="M651.927 308.777c31.88 53.76 52.483 117.671 56.954 185.984l0.066 1.268c0.189 3.715 0.296 8.066 0.296 12.443 0 42.835-10.302 83.265-28.564 118.945l0.686-1.476c-34.053 58.927-82.138 106.335-139.831 138.621l-1.856 0.954c-40.699 24.060-75.318 53.482-104.266 87.838l-0.496 0.604-4.8 6.4c-16.319 18.263-28.926 40.218-36.405 64.424l-0.329 1.235c-2.937 19.339-19.447 33.987-39.378 33.987-0.826 0-1.646-0.025-2.459-0.075l0.112 0.005c-20.513-1.449-36.606-18.446-36.606-39.202 0-0.010 0-0.020 0-0.030v0.002-701.908c-33.282 20.107-73.481 32.004-116.458 32.004-0.59 0-1.179-0.002-1.768-0.007l0.090 0.001c-108.793 0-196.916-70.396-196.916-157.558s88.314-157.238 196.852-157.238 196.916 70.396 196.916 157.558v459.107c93.929-34.515 163.489-114.708 182.36-212.929l0.284-1.778c-5.146-8.219-10.164-15.233-15.563-21.928l0.332 0.426c-5.584-6.744-8.971-15.483-8.971-25.013 0-21.737 17.621-39.358 39.358-39.358 11.299 0 21.485 4.761 28.663 12.386l0.019 0.020c10.226 11.98 19.778 25.261 28.187 39.305l0.739 1.333c0.938 1.076 1.804 2.269 2.561 3.535l0.063 0.113z" />
<glyph unicode="&#xe910;" glyph-name="next" d="M473.372-47.388c-10.291 10.294-16.656 24.514-16.656 40.22s6.365 29.926 16.656 40.221v0l356.75 358.059h-773.234c-31.419 0-56.889 25.47-56.889 56.889s25.47 56.889 56.889 56.889v0h773.234l-356.864 358.059c-9.848 10.214-15.916 24.131-15.916 39.466 0 31.419 25.47 56.889 56.889 56.889 15.391 0 29.355-6.112 39.596-16.042l-0.015 0.014 452.551-454.087c9.161-8.807 15.371-20.623 17.038-33.853l0.029-0.28 0.569-1.365v-2.503s0-0.512 0-0.796 0-0.398 0-0.626 0-1.308 0-1.764 0-0.967 0-1.422 0-0.398 0-0.626 0-0.512 0-0.796v-3.755c-1.695-13.511-7.906-25.327-17.048-34.115l-0.019-0.018-453.12-454.542c-10.294-10.291-24.514-16.656-40.22-16.656s-29.926 6.365-40.221 16.656v0z" />
<glyph unicode="&#xe911;" glyph-name="pinterest" d="M1024 850.304v-804.608c-0.036-60.569-49.127-109.66-109.692-109.696h-561.412c24.892 38.983 46.152 83.866 61.499 131.407l1.157 4.145c6.848 26.304 34.944 133.504 34.944 133.504 27.456-39.254 72.449-64.607 123.363-64.607 1.878 0 3.749 0.035 5.61 0.103l-0.269-0.008c169.344 0 291.2 155.648 291.2 349.056-2.754 179.812-149.164 324.518-329.372 324.518-5.866 0-11.696-0.153-17.486-0.456l0.81 0.034c-242.304 0-370.752-162.496-370.752-339.648-0.060-2.045-0.094-4.45-0.094-6.864 0-87.783 44.913-165.076 113.013-210.153l0.936-0.582c10.752-5.056 16.256-2.752 18.752 7.552 1.856 7.744 11.456 45.952 15.552 63.552 0.411 1.375 0.648 2.955 0.648 4.59 0 4.425-1.734 8.445-4.559 11.417l0.007-0.007c-26.019 35.43-41.695 79.869-41.856 127.962v0.038c-0.001 0.274-0.002 0.598-0.002 0.922 0 134.316 108.884 243.2 243.2 243.2 3.625 0 7.231-0.079 10.817-0.236l-0.511 0.018c3.879 0.242 8.412 0.38 12.978 0.38 122.404 0 221.632-99.228 221.632-221.632 0-2.497-0.041-4.984-0.123-7.461l0.009 0.361c0-151.744-76.8-256.896-176.448-256.896-1.197-0.063-2.598-0.098-4.007-0.098-45.102 0-81.664 36.562-81.664 81.664 0 7.082 0.901 13.953 2.596 20.505l-0.124-0.567c18.72 52.64 34.859 115.581 45.508 180.371l0.892 6.573c0 121.152-172.8 104.448-172.8-57.152-0.007-0.643-0.011-1.402-0.011-2.162 0-29.294 6.15-57.152 17.231-82.352l-0.515 1.314c-71.744-303.552-82.496-307.2-67.648-440.256l5.056-1.856h-202.368c-60.501 0.036-109.55 49.018-109.696 109.49v804.622c0.036 60.569 49.127 109.66 109.692 109.696h804.612c60.569-0.036 109.66-49.127 109.696-109.692v-0.004z" />
<glyph unicode="&#xe912;" glyph-name="prev" d="M470.187-47.275l-452.608 454.144c-9.608 9.060-16.052 21.382-17.556 35.189l-0.022 0.253v1.877c0 0.341 0 0.683 0 1.024v0.569s0 0.512 0 0.796 0 0.967 0 1.422 0 0.91 0 1.422 0 0.512 0 0.796v0.569c0 0.341 0 0.683 0 1.024v1.536c1.326 14.084 7.605 26.494 17.052 35.655l0.015 0.014 453.12 454.258c10.364 10.748 24.889 17.423 40.973 17.423 31.419 0 56.889-25.47 56.889-56.889 0-16.028-6.628-30.507-17.293-40.847l-0.015-0.014-356.864-358.059h773.234c31.419 0 56.889-25.47 56.889-56.889s-25.47-56.889-56.889-56.889v0h-773.234l356.864-358.116c10.66-10.351 17.275-24.818 17.275-40.83 0-31.419-25.47-56.889-56.889-56.889-16.097 0-30.632 6.685-40.981 17.431l-0.017 0.018z" />
<glyph unicode="&#xe913;" glyph-name="star" horiz-adv-x="1103" d="M1060.786 605.6h-362.371l-109.699 328.291c-5.768 15.363-20.334 26.099-37.407 26.099s-31.64-10.735-37.317-25.824l-0.091-0.275-109.699-328.291h-364.858c-21.696-0.083-39.262-17.649-39.345-39.337v-0.008c0-0.046 0-0.099 0-0.153 0-2.305 0.267-4.548 0.771-6.7l-0.039 0.198c1.116-11.597 7.321-21.548 16.325-27.707l0.13-0.084 297.576-209.89-114.233-332.021c-1.356-3.822-2.139-8.23-2.139-12.821 0-12.819 6.108-24.212 15.572-31.426l0.096-0.070c5.865-5.279 13.432-8.773 21.786-9.569l0.154-0.012c9.311 0.671 17.758 3.887 24.789 8.947l-0.143-0.098 290.409 206.965 290.409-206.965c6.846-5.065 15.321-8.301 24.52-8.843l0.126-0.006c8.55 0.581 16.177 4.123 21.956 9.596l-0.016-0.015c9.609 7.181 15.764 18.528 15.764 31.312 0 4.662-0.819 9.134-2.32 13.278l0.086-0.271-114.013 332.021 295.089 212.084 7.313 6.143c7.961 6.943 12.962 17.103 12.962 28.432 0 20.801-16.862 37.663-37.663 37.663-1.604 0-3.185-0.1-4.737-0.295l0.185 0.019z" />
<glyph unicode="&#xe914;" glyph-name="swimming" horiz-adv-x="2288" d="M1144.155-63.909h-4.912c-106.757 3.148-203.852 42.076-280.298 105.139l0.786-0.629c-35.685 29.472-80.595 48.974-129.822 53.681l-0.975 0.075c-6.202 0.479-13.431 0.752-20.724 0.752-24.949 0-49.152-3.194-72.223-9.195l1.989 0.439c-29.958-11.090-55.659-23.833-79.763-38.894l1.812 1.056c-14.735-8.459-28.652-16.554-42.932-23.285-45.033-21.871-97.958-34.655-153.869-34.655-0.011 0-0.022 0-0.034 0h0.002c-92.349 0.538-176.743 34.155-242.035 89.588l0.543-0.449c-11.279 10.551-21.648 21.648-33.29 33.29-20.984 22.892-43.714 43.487-68.215 61.846l-1.276 0.915c-6.094 4.184-12.37 8.004-18.919 11.915 38.83-3.77 74.463-13.743 107.169-28.95l-2.023 0.844c48.544-24.952 105.567-40.628 165.986-43.177l0.83-0.028c1.875-0.059 4.080-0.093 6.293-0.093 14.703 0 29.059 1.491 42.923 4.33l-1.372-0.235c68.95 22.212 128.266 57.459 177.78 103.166l-0.321-0.293c67.414 53.657 153.802 86.091 247.766 86.091 2.111 0 4.219-0.016 6.323-0.049l-0.318 0.004h1.455c0.432 0.002 0.944 0.003 1.455 0.003 71.083 0 137.9-18.266 196.012-50.36l-2.091 1.059c13.644-7.64 27.287-16.827 41.477-26.56 25.883-19.784 55.797-36.116 88.044-47.506l2.277-0.701c17.102-4.426 36.809-7.126 57.092-7.456l0.212-0.003c0.068 0 0.15 0 0.231 0 49.572 0 95.737 14.585 134.439 39.697l-0.962-0.585c67.599 50.448 150.716 83.752 241.076 92.002l1.872 0.138c7.277 0.455 14.644 0.455 21.921 0.455 1.696 0.025 3.697 0.039 5.702 0.039 67.524 0 131.292-16.076 187.688-44.608l-2.379 1.092c31.907-18.082 59.48-37.742 84.814-59.898l-0.587 0.503c42.529-40.719 95.646-70.718 154.8-85.454l2.375-0.501c16.308-2.905 35.175-4.652 54.418-4.82l0.156-0.001c50.22 0.876 97.353 13.246 139.148 34.58l-1.802-0.835c37.013 18.48 80.031 31.695 125.41 37.281l1.931 0.194-7.186-4.275c-30.497-20.591-56.943-43.715-80.233-69.724l-0.356-0.404c-11.279-11.734-22.012-22.648-33.381-33.2-53.419-48.225-122.503-80.023-198.769-86.948l-1.337-0.098c-11.33-1.39-24.447-2.183-37.748-2.183-0.096 0-0.191 0-0.287 0h0.015c-82.689 4.041-158.72 29.311-223.735 70.426l1.89-1.116c-39.344 21.705-86.242 34.476-136.124 34.476-0.493 0-0.987-0.001-1.48-0.004h-11.294c-61.664-8.059-116.087-34.261-158.977-72.994l0.256 0.228c-21.472-16.958-45.595-32.684-71.097-46.148l-2.579-1.241c-51.235-23.998-111.253-38.008-174.543-38.020h-0.005zM1102.86 252.987c-26.645 9.905-49.689 22.933-70.246 38.997l0.572-0.431c-15.008 10.187-30.562 20.829-47.116 29.925-31.845 17.834-68.713 32.724-107.533 42.764l-3.254 0.714 251.316 238.945-69.219 111.514-322.626-64.671c-5.108-1.12-10.975-1.761-16.992-1.761-45.764 0-82.862 37.099-82.862 82.862 0 35.811 22.717 66.316 54.527 77.891l0.576 0.183 391.481 143.895c10.415 3.925 22.454 6.198 35.023 6.198 31.286 0 59.283-14.078 78.003-36.244l0.125-0.152 11.006-13.098s415.767-503.905 439.143-541.197c-31.802 6.709-68.344 10.551-105.783 10.551-0.064 0-0.128 0-0.192 0h0.010c-8.277 0-16.827-0.546-25.104-0.546-105.879-8.992-201.516-46.593-280.957-104.95l1.536 1.077c-24.803-17.168-55.458-27.534-88.518-27.832l-0.075-0.001c-15.34 0.297-30.075 2.236-44.236 5.65l1.395-0.284zM1679.076 474.651c-108.022 13.35-190.821 104.563-190.821 215.114 0 119.658 97.002 216.661 216.661 216.661s216.661-97.002 216.661-216.661c0-119.658-97.002-216.661-216.661-216.661-0.099 0-0.198 0-0.297 0h0.015c-9.028 0.019-17.904 0.58-26.622 1.653l1.063-0.107z" />
<glyph unicode="&#xe915;" glyph-name="theatre" horiz-adv-x="1597" d="M1513.679 98.463h-81.272v387.72c95.578 34.445 162.678 124.346 162.678 229.92 0 134.657-109.161 243.817-243.817 243.817s-243.817-109.161-243.817-243.817c0-27.704 4.621-54.33 13.133-79.147l-0.511 1.715c-349.946-220.188-292.712-220.188-642.739 0 7.982 23.072 12.592 49.661 12.592 77.327 0 134.611-109.124 243.736-243.736 243.736s-243.736-109.124-243.736-243.736c0-105.509 67.040-195.36 160.847-229.279l1.697-0.536v-387.72h-81.191c-0.768 0.026-1.671 0.041-2.577 0.041-44.886 0-81.272-36.387-81.272-81.272s36.387-81.272 81.272-81.272c0.906 0 1.809 0.015 2.709 0.044l-0.131-0.003h324.926c0.768-0.026 1.671-0.041 2.577-0.041 44.886 0 81.272 36.387 81.272 81.272s-36.387 81.272-81.272 81.272c-0.906 0-1.809-0.015-2.709-0.044l0.131 0.003h-81.191v387.72c18.775 6.751 34.966 14.833 50.015 24.534l-0.957-0.578c202.363-131.311 187.483-200.483 422.061-200.483s219.779 69.172 422.061 200.483c14.091-9.119 30.282-17.2 47.368-23.419l1.69-0.538v-387.72h-81.272c-0.768 0.026-1.671 0.041-2.577 0.041-44.886 0-81.272-36.387-81.272-81.272s36.387-81.272 81.272-81.272c0.906 0 1.809 0.015 2.709 0.044l-0.131-0.003h325.008c0.768-0.026 1.671-0.041 2.577-0.041 44.886 0 81.272 36.387 81.272 81.272s-36.387 81.272-81.272 81.272c-0.906 0-1.809-0.015-2.709-0.044l0.131 0.003zM246.352 797.21c44.886 0 81.272-36.387 81.272-81.272s-36.387-81.272-81.272-81.272c-44.886 0-81.272 36.387-81.272 81.272v0c0 44.886 36.387 81.272 81.272 81.272v0zM1351.297 797.21c44.886 0 81.272-36.387 81.272-81.272s-36.387-81.272-81.272-81.272c-44.886 0-81.272 36.387-81.272 81.272v0c0 44.886 36.387 81.272 81.272 81.272v0z" />
<glyph unicode="&#xe916;" glyph-name="thumbs-up" horiz-adv-x="944" d="M903.311 121.449c24.123 17.687 39.919 45.504 41.078 77.059l0.005 0.179c0 0.112 0.001 0.244 0.001 0.377 0 27.347-10.162 52.32-26.916 71.349l0.103-0.119c-1.472 2.944-2.688 5.631-3.968 8.383l-0.512 2.688c-0.43 1.968-0.677 4.229-0.677 6.547 0 6.76 2.096 13.030 5.674 18.196l-0.070-0.106c9.204 15.552 14.642 34.276 14.642 54.269 0 3.152-0.135 6.273-0.4 9.356l0.028-0.401c0.022 0.683 0.035 1.485 0.035 2.291 0 21.622-9.181 41.1-23.858 54.747l-0.046 0.042c-7.484 8.278-12.063 19.306-12.063 31.403 0 4.775 0.713 9.383 2.040 13.724l-0.087-0.332c2.898 8.69 4.569 18.696 4.569 29.092 0 24.643-9.393 47.092-24.793 63.962l0.067-0.074c-25.597 29.052-49.978 32.508-114.162 28.796-44.282-2.688-136.559-16.958-197.351-26.557-24.829-3.968-46.522-7.359-53.177-7.871-31.228-3.2-37.371 0-40.379 12.030 1.788 12.067 6.032 22.877 12.217 32.299l-0.186-0.303c13.131 24.83 25.252 54.016 34.705 84.379l1.003 3.738c11.115 30.571 17.543 65.859 17.543 102.648 0 43.055-8.803 84.053-24.708 121.294l0.766-2.017c-11.718 25.597-35.765 43.748-64.332 46.937l-0.364 0.033c-2.932 0.312-6.335 0.49-9.778 0.49-22.214 0-42.699-7.398-59.128-19.864l0.243 0.177c-8.383-9.855-5.631-28.54-15.23-65.976-8.367-40.267-18.539-74.872-31.134-108.289l1.634 4.942c-40.261-56.857-86.615-105.773-139.012-147.413l-1.45-1.113c-10.111-8.831-18.686-16.51-24.829-22.397-22.871-23.866-43.569-50.179-61.555-78.389l-1.221-2.049c-11.128-17.194-22.227-32.037-34.22-46.094l0.496 0.596c-14.106-14.661-33.15-24.482-54.449-26.778l-0.393-0.034c-10.871-0.036-19.673-8.839-19.71-19.706v-392.466c0-0.019 0-0.042 0-0.064 0-11.239 9.111-20.349 20.349-20.349 0.023 0 0.045 0 0.068 0h-0.003c4.583 0.194 9.96 0.304 15.362 0.304 53.394 0 104.267-10.791 150.559-30.311l-2.549 0.954c33.248-14.251 71.825-24.725 112.137-29.559l2.025-0.198c82.044-11.396 178.043-18.587 275.465-19.885l1.621-0.017c49.735 0.608 98.004 4.078 145.421 10.256l-6.174-0.657c76.278 8.831 157.996 26.557 185.065 91.061 3.676 8.196 5.817 17.764 5.817 27.833 0 11.088-2.597 21.569-7.215 30.868l0.182-0.405c-0.978 1.855-1.677 4.016-1.974 6.303l-0.010 0.096c-0.249 1.21-0.392 2.6-0.392 4.024 0 6.45 2.927 12.216 7.525 16.042l0.034 0.027z" />
<glyph unicode="&#xe917;" glyph-name="twitter" horiz-adv-x="1261" d="M1131.059 704.736c0.832-11.199 0.832-22.397 0.832-33.596 0.011-1.507 0.018-3.289 0.018-5.073 0-403.215-326.87-730.085-730.085-730.085-1.784 0-3.566 0.006-5.346 0.019l0.273-0.002c-0.543-0.001-1.186-0.002-1.829-0.002-146.709 0-283.312 43.269-397.744 117.742l2.823-1.722c17.559-2.046 37.902-3.214 58.518-3.214 1.362 0 2.723 0.005 4.082 0.015l-0.208-0.001c0.397-0.001 0.866-0.002 1.335-0.002 121.057 0 232.405 41.572 320.546 111.218l-1.089-0.83c-112.58 2.121-207.405 75.795-241.045 177.349l-0.525 1.828c14.609-2.424 31.508-3.863 48.723-3.967h0.103c24.179 0.064 47.584 3.259 69.868 9.2l-1.908-0.433c-119.029 24.691-207.206 128.687-207.206 253.278 0 0.091 0 0.182 0 0.273v-0.014 3.2c33.664-19.124 73.658-31.064 116.287-32.748l0.498-0.016c-69.846 47.076-115.174 125.884-115.174 215.279 0 48.001 13.069 92.949 35.842 131.481l-0.658-1.203c128.025-156.693 317.395-259.093 530.924-270.291l1.809-0.076c-3.956 17.746-6.281 38.165-6.399 59.107v0.086c0.070 142.763 115.819 258.468 258.592 258.468 74.305 0 141.29-31.34 188.458-81.523l0.126-0.135c61.833 12.14 116.813 33.811 166.295 63.671l-2.283-1.278c-20.005-60.742-60.174-110.247-112.426-141.734l-1.16-0.648c55.111 6.401 105.379 20.477 152.013 41.241l-3.295-1.31c-36.050-52.029-78.964-96.204-128.068-132.482l-1.516-1.069z" />
<glyph unicode="&#xe918;" glyph-name="check" horiz-adv-x="1373" d="M477.056-64c-35.343 0.008-67.337 14.339-90.496 37.504l-349.056 349.056c-22.231 22.995-35.931 54.359-35.931 88.923 0 70.692 57.308 128 128 128 34.564 0 65.928-13.7 88.959-35.966l-0.036 0.035 258.56-258.56 677.504 677.504c23.308 24.109 55.941 39.077 92.069 39.077 70.692 0 128-57.308 128-128 0-36.128-14.968-68.761-39.041-92.034l-0.036-0.035-768-768c-23.158-23.165-55.153-37.496-90.494-37.504h-0.002z" />
</font>
</defs>
</svg>
