<svg xmlns="http://www.w3.org/2000/svg" width="48" height="60" viewBox="0 0 48 60">
  <g id="avatar-woman-girl-person-user" opacity="0.5">
    <path id="Path_227" data-name="Path 227" d="M26,21a3,3,0,0,0-3,3h2a1,1,0,0,1,2,0h2A3,3,0,0,0,26,21Z" transform="translate(-8 -2)"/>
    <path id="Path_228" data-name="Path 228" d="M38,23a1,1,0,0,1,1,1h2a3,3,0,1,0-6,0h2A1,1,0,0,1,38,23Z" transform="translate(-8 -2)"/>
    <path id="Path_229" data-name="Path 229" d="M49.29,43.46,37,40.23V37a13.043,13.043,0,0,0,6-5.1V34a9.014,9.014,0,0,0,9,9h2a1,1,0,0,0,1-1V34a9.009,9.009,0,0,0-7.18-8.81A4.934,4.934,0,0,0,49,22a4.987,4.987,0,0,0-1-2.97V18a16,16,0,1,0-32,0v1.03a4.959,4.959,0,0,0,3.16,7.88A13.017,13.017,0,0,0,27,37v3.23L14.7,43.46A9.03,9.03,0,0,0,8,52.17V61a1,1,0,0,0,1,1H55a1,1,0,0,0,1-1V52.17A9.028,9.028,0,0,0,49.29,43.46ZM53,34v7H52a7.008,7.008,0,0,1-7-7V27h1A7.008,7.008,0,0,1,53,34ZM47,22a2.994,2.994,0,0,1-2,2.81V19.18a3.179,3.179,0,0,1,1.12.69A3.013,3.013,0,0,1,47,22ZM19,24.82a3,3,0,0,1-1.13-4.94,3.1,3.1,0,0,1,1.13-.7Zm-.97-7.41a13.982,13.982,0,0,1,27.94,0,4.794,4.794,0,0,0-1.6-.37l-6.79-4.85a.982.982,0,0,0-.86-.15L19.78,17.02a4.956,4.956,0,0,0-1.75.39ZM21,25V18.75L36.81,14.1,43,18.51V25a11,11,0,1,1-22,0Zm7.25,16.97A1.014,1.014,0,0,0,29,41V37.64a12.68,12.68,0,0,0,6,0V41a1.014,1.014,0,0,0,.75.97l3.2.84a7,7,0,0,1-13.9,0ZM54,60H46.46A5.99,5.99,0,0,0,42,50v2a4,4,0,0,1,0,8H22a4,4,0,0,1,0-8V50a5.99,5.99,0,0,0-4.46,10H10V52.17a7.019,7.019,0,0,1,5.21-6.77l7.9-2.08a8.985,8.985,0,0,0,17.78,0l7.89,2.08A7.017,7.017,0,0,1,54,52.17Z" transform="translate(-8 -2)"/>
    <path id="Path_230" data-name="Path 230" d="M35,30H33a1,1,0,1,1-2,0H29a3,3,0,1,0,6,0Z" transform="translate(-8 -2)"/>
  </g>
</svg>
