<svg xmlns="http://www.w3.org/2000/svg" width="57.498" height="60.3" viewBox="0 0 57.498 60.3">
  <g id="bigender" transform="translate(0.15 0.15)" opacity="0.5">
    <path id="Path_220" data-name="Path 220" d="M280.193,164.19a1.841,1.841,0,1,0-1.455-1.8A1.637,1.637,0,0,0,280.193,164.19Zm0,0" transform="translate(-246.132 -141.771)" fill="#222" stroke="#222" stroke-width="0.3"/>
    <path id="Path_221" data-name="Path 221" d="M188.429,162.39a1.488,1.488,0,1,0-1.455,1.8A1.637,1.637,0,0,0,188.429,162.39Zm0,0" transform="translate(-163.838 -141.771)" fill="#222" stroke="#222" stroke-width="0.3"/>
    <path id="Path_222" data-name="Path 222" d="M202.641,234.532a.886.886,0,0,0-.255,1.227,5.69,5.69,0,0,0,9.624,0,.886.886,0,0,0-1.479-.975,3.92,3.92,0,0,1-6.665,0A.886.886,0,0,0,202.641,234.532Zm0,0" transform="translate(-178.6 -206.92)" fill="#222" stroke="#222" stroke-width="0.3"/>
    <path id="Path_223" data-name="Path 223" d="M229.072,184.59q.135,0,.276-.005a.886.886,0,0,0-.074-1.771c-.433.018-1.2-.007-1.431-.382-.3-.483.046-1.63.378-2.254a.886.886,0,0,0-1.561-.839c-.135.25-1.287,2.486-.32,4.032a2.973,2.973,0,0,0,2.731,1.219Zm0,0" transform="translate(-199.537 -157.912)" fill="#222" stroke="#222" stroke-width="0.3"/>
    <path id="Path_224" data-name="Path 224" d="M12.233,58.228H2.374a20.374,20.374,0,0,1,.477-2.388,9.327,9.327,0,0,1,2.679-4.9c2.574-2.081,13.461-7.913,17.045-9.813a6.67,6.67,0,0,0,13.046,0c1.341.71,3.7,1.97,6.253,3.37a.886.886,0,1,0,.852-1.554c-3.074-1.687-5.874-3.172-6.957-3.743V35.062c.194-.176.385-.358.569-.553a13.222,13.222,0,0,0,2.561-4.1,4.965,4.965,0,0,0,.863.078,4.348,4.348,0,0,0,3.58-1.88c1.61-2.187,1.855-5.876.514-7.741-.028-.038-.056-.076-.085-.113.588-3.8,1.075-8.789.247-11.815-.934-3.413-2.978-6.026-5.333-6.817a4.72,4.72,0,0,0-3.981.425A8.512,8.512,0,0,0,29.161,0h-.04C17.843.019,11.541,8.979,10.9,25.914a.886.886,0,0,0,.852.919h.034a.886.886,0,0,0,.885-.852c.27-7.086,1.548-12.726,3.8-16.763a14.632,14.632,0,0,1,4.931-5.4A14.339,14.339,0,0,1,29.1,1.772,7,7,0,0,1,33.855,4.25a.885.885,0,0,0,1.245.166,3.119,3.119,0,0,1,3.021-.609c1.776.6,3.42,2.8,4.189,5.605.551,2.012.5,5.576-.147,10.121a3.115,3.115,0,0,0-1.487-.139c-.007-.243-.015-.387-.016-.41a.887.887,0,0,0-.349-.654,23.1,23.1,0,0,1-6.661-9.062A.887.887,0,0,0,32.083,9.1c-.042.063-4.261,6.291-13.845,9.013a.886.886,0,0,0-.642.794,31.846,31.846,0,0,0,.258,5.758c.576,4.3,1.909,7.6,3.96,9.8.2.212.4.41.613.6V39.2c-1.288.679-4.91,2.6-8.624,4.662a105.413,105.413,0,0,1-1.185-14.386.886.886,0,0,0-1.772.014,105.955,105.955,0,0,0,1.306,15.3,74.324,74.324,0,0,0-7.737,4.775C.972,52.342.518,58.784.5,59.057A.886.886,0,0,0,1.385,60H12.234a.886.886,0,0,0,0-1.772ZM34,39.729a4.9,4.9,0,0,1-9.8,0v-3.4a10.043,10.043,0,0,0,4.867,1.183h.042A10.016,10.016,0,0,0,34,36.332ZM40.362,24.74a33.54,33.54,0,0,0,.3-3.538,1.492,1.492,0,0,1,1.751.7c.814,1.132.742,3.964-.5,5.655A2.569,2.569,0,0,1,39.5,28.709a26,26,0,0,0,.86-3.969Zm-21.02-5.1A28.3,28.3,0,0,0,32.6,11.314a24.961,24.961,0,0,0,6.3,8.16c.045,1.832,0,9.741-3.853,13.818a7.85,7.85,0,0,1-5.944,2.449h-.035a7.857,7.857,0,0,1-5.959-2.485c-3.683-3.944-3.815-11.435-3.77-13.62Zm0,0" transform="translate(-0.499 0)" fill="#222" stroke="#222" stroke-width="0.3"/>
    <path id="Path_225" data-name="Path 225" d="M166.119,394.664c-.017-.273-.471-6.715-3.914-9.5a72.548,72.548,0,0,0-7.95-4.894.886.886,0,1,0-.869,1.544,67.2,67.2,0,0,1,7.705,4.728c2.147,1.736,2.909,5.524,3.155,7.292H124.2a.886.886,0,0,0,0,1.772h41.033a.886.886,0,0,0,.884-.943Zm0,0" transform="translate(-108.924 -335.607)" fill="#222" stroke="#222" stroke-width="0.3"/>
  </g>
</svg>
