<svg xmlns="http://www.w3.org/2000/svg" width="33.256" height="38.644" viewBox="0 0 33.256 38.644">
  <g id="Group_1047" data-name="Group 1047" transform="matrix(0.966, -0.259, 0.259, 0.966, -22939.771, -1658.947)">
    <path id="Path_237" data-name="Path 237" d="M113.153,29.965,111.709,16.85s.1-3.408,3.036-1.508c0,0,.048-3.825,3.488-2.38,0,0-.541-2.756,1.445-2.975s2.017,2.639,2.017,2.639,3.268-2.093,3.64,1.286,1.336,11.015,1.336,11.015S129.2,20.12,131.313,21a2.1,2.1,0,0,1,1.425,2.2s-1.629,4.709-2.1,6.8c-.649,2.9-1.843,5.544-3.272,6.653l.661,6H117.709l-.405-5.6S113.776,35.624,113.153,29.965Z" transform="translate(21618.953 7536.686)" fill="#ef0"/>
    <g id="Group_261" data-name="Group 261" transform="translate(21724.09 7546)">
      <path id="Path_238" data-name="Path 238" d="M121.575,11.048a2.713,2.713,0,0,0-2.958.96L117.2,13.893,116,3.976a2.38,2.38,0,0,0-3.691-1.714,2.517,2.517,0,0,0-2.64-2.248,2.251,2.251,0,0,0-1.618,1,2.8,2.8,0,0,0-.47,1.77,2.382,2.382,0,0,0-3.239,2.091,2.394,2.394,0,0,0-2.749.715,2.347,2.347,0,0,0-.512,1.743l1.572,14.28a9.238,9.238,0,0,0,4.1,6.722l.356,5.051a.665.665,0,0,0,.664.619H118.1a.665.665,0,0,0,.661-.738l-.626-5.683A10.358,10.358,0,0,0,121.37,20.8l1.991-6.352a2.706,2.706,0,0,0-1.787-3.4Zm.517,3-2.018,6.437a.665.665,0,0,0-.03.179,9.206,9.206,0,0,1-3,6.124l-.08.08a.665.665,0,0,0-.19.543l.579,5.263h-8.96l-.336-4.766a.665.665,0,0,0-.316-.52,7.924,7.924,0,0,1-3.766-5.92l-1.572-14.28a1.025,1.025,0,0,1,.224-.761,1.059,1.059,0,0,1,1.48-.163,1.025,1.025,0,0,1,.384.694l.914,8.3a.75.75,0,0,0,.8.658.672.672,0,0,0,.576-.733l-1.108-10.06a1.051,1.051,0,1,1,2.089-.23l1.108,10.06a.689.689,0,0,0,1.368-.151L108.917,2.769a1.485,1.485,0,0,1,.233-1.005.941.941,0,0,1,.667-.428,1.214,1.214,0,0,1,1.189,1.2l1.324,12.027a.689.689,0,0,0,1.368-.151l-1.108-10.06a1.051,1.051,0,1,1,2.089-.23v.007l1.364,11.3-.479.637a5.961,5.961,0,0,0-3.261,2.54.665.665,0,1,0,1.144.679,4.688,4.688,0,0,1,2.663-1.993.665.665,0,0,0,.383-.249l3.185-4.236a1.375,1.375,0,0,1,2.411,1.238Z" transform="translate(-95.204 0)" fill="#222"/>
      <circle id="Ellipse_23" data-name="Ellipse 23" cx="0.664" cy="0.664" r="0.664" transform="translate(30.978 5.588)" fill="#ef0"/>
      <path id="Path_239" data-name="Path 239" d="M346.723,48.106a11.88,11.88,0,0,1,5.963.853.665.665,0,1,0,.524-1.223,13.112,13.112,0,0,0-6.7-.943.665.665,0,0,0,.217,1.313Z" transform="translate(-323.823 -43.593)" fill="#ef0"/>
      <path id="Path_240" data-name="Path 240" d="M368.36,88.316a.665.665,0,0,0,.094,1.327,9.362,9.362,0,0,1,6.385,2.37.665.665,0,0,0,.906-.975A10.549,10.549,0,0,0,368.36,88.316Z" transform="translate(-344.169 -82.442)" fill="#ef0"/>
      <path id="Path_241" data-name="Path 241" d="M16.9,167.841a.665.665,0,0,0-.694-1.135,9.956,9.956,0,0,0-3.388,3.865.665.665,0,0,0,1.2.584A8.755,8.755,0,0,1,16.9,167.841Z" transform="translate(-12.756 -155.545)" fill="#ef0"/>
      <path id="Path_242" data-name="Path 242" d="M35.491,219.128a9.836,9.836,0,0,0-2.3,3.943.665.665,0,1,0,1.282.358,8.606,8.606,0,0,1,1.957-3.355.665.665,0,0,0-.936-.946Z" transform="translate(-31.808 -204.397)" fill="#ef0"/>
    </g>
  </g>
</svg>
