<svg xmlns="http://www.w3.org/2000/svg" width="51.964" height="60" viewBox="0 0 51.964 60">
  <path id="Union_3" data-name="Union 3" d="M1,60a1,1,0,0,1-1-1,16.969,16.969,0,0,1,16.99-16.99h3v-3.2a14.965,14.965,0,0,1-6.472-8.84c-2.194-.412-3.52-3.611-3.52-5.949a3.8,3.8,0,0,1,1.52-3.3A12.991,12.991,0,0,1,31.483,4.161a8.986,8.986,0,0,1,7.98,15.091,3.6,3.6,0,0,1,2.508,3.773c0,2.253-1.233,5.3-3.282,5.889a15.014,15.014,0,0,1-6.71,9.9v3.2h3A17.01,17.01,0,0,1,51.964,59a1,1,0,0,1-1,1ZM31.777,44.612l-.151.2-2.581,3.447L30.816,58H49.934A15.013,15.013,0,0,0,34.976,44.011h-3A1.006,1.006,0,0,1,31.777,44.612ZM23.184,58h5.6l-1.63-8.994H24.819ZM6.383,48.4A14.919,14.919,0,0,0,2.032,58H21.152l1.771-9.745-2.735-3.646a1,1,0,0,1-.2-.6H16.958A14.933,14.933,0,0,0,6.383,48.4Zm15.6-4.717,2.5,3.33h2.988l2.508-3.333V39.9c-.088.039-.182.063-.27.1-.39.163-.788.308-1.192.437-.155.047-.3.1-.453.141a15.574,15.574,0,0,1-1.62.372l-.3.047a.881.881,0,0,1-.328,0l-.3-.047a15.532,15.532,0,0,1-1.618-.379c-.153-.039-.3-.091-.453-.139q-.6-.193-1.185-.434c-.092-.038-.187-.062-.277-.1Zm-.5-6.269a13.128,13.128,0,0,0,4.366,1.569l.131.022.136-.018a12.736,12.736,0,0,0,4.357-1.567,13.026,13.026,0,0,0,6.378-9.534,11.4,11.4,0,0,0,.122-1.718V20.029a1.733,1.733,0,0,0-.058-.426A9.6,9.6,0,0,0,34,15.713c-.233-.22-.481-.439-.739-.661-.888-.763-1.729-1.395-2.262-1.78l-4.8,3.637a15.072,15.072,0,0,1-9.013,3.1h-.226a1.89,1.89,0,0,0-.562.093c-.029.009-.058.015-.085.025a2.071,2.071,0,0,0-.5.256l-.012.01a2.044,2.044,0,0,0-.4.391c-.01.015-.024.027-.036.042a1.9,1.9,0,0,0-.256.491c-.012.034-.022.068-.032.1a1.823,1.823,0,0,0-.093.54v4.206a12.286,12.286,0,0,0,.277,2.626h0A13.007,13.007,0,0,0,21.486,37.411ZM11.993,24.026a6.008,6.008,0,0,0,1.044,3.3c-.031-.385-.044-.773-.044-1.161V22.389c-.047-.044-.092-.09-.137-.135A1.761,1.761,0,0,0,11.993,24.026Zm26.98,2.229a6,6,0,0,0,1-3.23c0-.987-.316-1.584-1-1.844ZM12.04,8.345A11,11,0,0,0,13.5,20.029a3.949,3.949,0,0,1,1.661-1.584h.01a3.853,3.853,0,0,1,.528-.221l.049-.017a3.957,3.957,0,0,1,.518-.127.405.405,0,0,1,.085-.017,3.925,3.925,0,0,1,.6-.053h.234a13.014,13.014,0,0,0,7.758-2.654l5.43-4.119a1,1,0,0,1,1.158-.034,34.992,34.992,0,0,1,3.032,2.33c.389.335.74.661,1.077.983l.27.262c.265.261.511.518.742.771.056.061.117.125.173.187q.4.453.725.886l.151.21q.245.342.443.671c.027.042.066.1.094.143a7,7,0,0,0-6.9-11.416A.994.994,0,0,1,30.36,5.9,11,11,0,0,0,12.04,8.345ZM21.172,31.84a.887.887,0,0,1,1.481-.976,4.421,4.421,0,0,0,3.331,1.857,4.438,4.438,0,0,0,3.333-1.857.886.886,0,0,1,1.479.976,6.156,6.156,0,0,1-4.812,2.652A6.16,6.16,0,0,1,21.172,31.84Zm3.019-3.379c-.968-1.544.185-3.783.319-4.033a.886.886,0,0,1,1.561.839c-.331.625-.681,1.773-.379,2.255.234.374,1,.4,1.431.382a.885.885,0,1,1,.073,1.769c-.095,0-.187,0-.277,0A2.973,2.973,0,0,1,24.191,28.46Zm5.8-4.84a1.639,1.639,0,0,1,1.455-1.8,1.638,1.638,0,0,1,1.455,1.8,1.637,1.637,0,0,1-1.455,1.8A1.638,1.638,0,0,1,29.991,23.62Zm-10.925,0a1.637,1.637,0,0,1,1.455-1.8,1.636,1.636,0,0,1,1.455,1.8,1.637,1.637,0,0,1-1.455,1.8A1.638,1.638,0,0,1,19.066,23.62Z" transform="translate(0 0)" opacity="0.5"/>
</svg>
