<svg xmlns="http://www.w3.org/2000/svg" width="80" height="80" viewBox="0 0 80 80">
  <path id="Icon_awesome-user-circle" data-name="Icon awesome-user-circle" d="M40,.563a40,40,0,1,0,40,40A39.993,39.993,0,0,0,40,.563Zm0,15.484A14.194,14.194,0,1,1,25.806,30.24,14.194,14.194,0,0,1,40,16.046ZM40,71.53a30.908,30.908,0,0,1-23.629-11,17.983,17.983,0,0,1,15.887-9.645,3.947,3.947,0,0,1,1.145.177A21.355,21.355,0,0,0,40,52.175a21.274,21.274,0,0,0,6.6-1.113,3.946,3.946,0,0,1,1.145-.177A17.983,17.983,0,0,1,63.629,60.53,30.908,30.908,0,0,1,40,71.53Z" transform="translate(0 -0.563)" fill="#fff" opacity="0.89"/>
</svg>
